<?xml version="1.0" standalone="no"?>
<!DOCTYPE svg PUBLIC "-//W3C//DTD SVG 1.1//EN" "http://www.w3.org/Graphics/SVG/1.1/DTD/svg11.dtd" >
<svg xmlns="http://www.w3.org/2000/svg" xmlns:xlink="http://www.w3.org/1999/xlink" version="1.1">
<metadata>
Created by FontForge 20170731 at Thu Jun  4 21:15:17 2020
 By Aleksey,,,
Copyright 2020 The Domine Project Authors (https://github.com/googlefonts/domine)
</metadata>
<defs>
<font id="Domine-Regular" horiz-adv-x="0" >
  <font-face 
    font-family="Domine"
    font-weight="400"
    font-stretch="normal"
    units-per-em="1000"
    panose-1="2 4 5 3 4 4 3 6 2 4"
    ascent="800"
    descent="-200"
    x-height="540"
    cap-height="720"
    bbox="-200 -240 1366 908"
    underline-thickness="50"
    underline-position="-150"
    unicode-range="U+000D-FB04"
  />
<missing-glyph horiz-adv-x="640" 
d="M80 -240v1140h480v-1140h-480zM177 830v-1000h286v1000h-286z" />
    <glyph glyph-name="f_f" unicode="ff" horiz-adv-x="677" 
d="M18 490v36l97 14v10q0 101 54 155.5t151 54.5q47 0 87.5 -12t63.5 -32q49 74 143 74q59 0 94.5 -28.5t35.5 -72.5q0 -28 -14 -42.5t-38 -14.5q-23 0 -37 13t-14 37q0 26 16 52q-17 18 -46 18q-11 0 -21 -2.5t-19 -7.5q-22 -13 -31.5 -37t-11.5 -54t-2 -61v-50h128v-50
h-128v-430l108 -19v-41h-262v41l57 19v430h-217v-430l68 -19v-41h-242v41l77 19v430h-97zM429 540v23q0 85 -24.5 122t-80.5 37q-57 0 -84.5 -33.5t-27.5 -98.5v-50h217z" />
    <glyph glyph-name="f_i" unicode="fi" horiz-adv-x="628" 
d="M18 490v36l97 14v10q0 111 65 175.5t176 64.5q77 0 124 -30.5t47 -81.5q0 -56 -53 -56q-25 0 -37.5 12.5t-12.5 37.5q0 24 16 52q-34 28 -88 28q-37 0 -65 -10q-41 -14 -58 -48.5t-17 -103.5v-50h314v-480l77 -19v-41h-241v41l67 19v430h-217v-430l78 -19v-41h-252v41
l77 19v430h-97z" />
    <glyph glyph-name="f_l" unicode="fl" horiz-adv-x="632" 
d="M342 790q45 0 80 -12.5t56 -37.5l18 40h30v-720l77 -19v-41h-241v41l67 19v430h-217v-430l78 -19v-41h-252v41l77 19v430h-97v36l97 14v10q0 111 60.5 175.5t166.5 64.5zM212 590v-50h217v105q0 51 -27 79t-76 28q-56 0 -85 -40.5t-29 -121.5z" />
    <glyph glyph-name="f_f_i" unicode="ffi" horiz-adv-x="941" 
d="M18 490v36l97 14v10q0 100 54 155t150 55q51 0 89 -14t66 -48q32 47 75.5 69.5t115.5 22.5q81 0 128 -30.5t47 -81.5q0 -27 -14 -41.5t-40 -14.5q-24 0 -36.5 12.5t-12.5 37.5q0 13 4 25.5t12 26.5q-16 14 -39 21t-49 7q-18 0 -36 -3.5t-33 -8.5q-37 -13 -53.5 -48.5
t-16.5 -101.5v-50h313v-480l77 -19v-41h-241v41l67 19v430h-216v-430l78 -19v-41h-242v41l67 19v430h-217v-430l78 -19v-41h-252v41l77 19v430h-97zM429 540v23q0 86 -24 122.5t-80 36.5q-55 0 -84 -33.5t-29 -98.5v-50h217z" />
    <glyph glyph-name="f_f_l" unicode="ffl" horiz-adv-x="945" 
d="M657 790q90 0 134 -50l18 40h30v-720l77 -19v-41h-241v41l67 19v430h-216v-430l78 -19v-41h-242v41l67 19v430h-217v-430l78 -19v-41h-252v41l77 19v430h-97v36l97 14v10q0 101 54.5 155.5t154.5 54.5q97 0 150 -62q57 92 183 92zM526 590v-50h216v105q0 51 -26.5 79
t-74.5 28q-57 0 -86 -40.5t-29 -121.5zM212 590v-50h217v23q0 85 -24 122t-80 37q-113 0 -113 -132z" />
    <glyph glyph-name="f_b" unicode="fb" horiz-adv-x="947" 
d="M901 275q0 -65 -19 -123t-53 -97q-56 -65 -161 -65q-51 0 -91 23.5t-71 87.5l-30 -101h-47v490h-217v-430l78 -19v-41h-252v41l77 19v430h-97v36l97 14v10q0 111 60.5 175.5t166.5 64.5q45 0 80 -12.5t56 -37.5l18 40h30v-298q30 38 67 53t83 15q51 0 92.5 -15t67.5 -48
q31 -38 48 -93t17 -119zM526 274q0 -61 9 -106t26 -73q16 -25 39.5 -39t60.5 -14q68 0 101 47q18 26 26 72t8 106t-9 105t-26 73q-16 26 -39.5 39.5t-61.5 13.5q-34 0 -59.5 -11.5t-39.5 -34.5q-16 -28 -25.5 -72.5t-9.5 -105.5zM212 590v-50h217v105q0 51 -27 79t-76 28
q-56 0 -85 -40.5t-29 -121.5z" />
    <glyph glyph-name="f_f_b" unicode="ffb" horiz-adv-x="1261" 
d="M1215 275q0 -65 -19 -123t-53 -97q-56 -65 -161 -65q-51 0 -91 23.5t-71 87.5l-30 -101h-47v490h-217v-430l78 -19v-41h-252v41l77 19v430h-217v-430l78 -19v-41h-252v41l77 19v430h-97v36l97 14v10q0 101 54.5 155.5t154.5 54.5q48 0 83.5 -14t62.5 -44q29 42 76.5 65
t109.5 23q45 0 80 -12.5t56 -37.5l18 40h30v-298q30 38 67 53t83 15q51 0 92.5 -15t67.5 -48q31 -38 48 -93t17 -119zM840 274q0 -123 35 -179q16 -25 39.5 -39t60.5 -14q34 0 59.5 12.5t41.5 34.5q18 26 26 72t8 106t-9 105t-26 73q-16 26 -39.5 39.5t-61.5 13.5
q-34 0 -59.5 -11.5t-39.5 -34.5q-16 -28 -25.5 -72.5t-9.5 -105.5zM526 590v-50h217v105q0 51 -27 79t-76 28q-56 0 -85 -40.5t-29 -121.5zM212 590v-50h217v23q0 85 -24 122t-80 37q-55 0 -84 -33.5t-29 -98.5z" />
    <glyph glyph-name="f_h" unicode="fh" horiz-adv-x="971" 
d="M775 60v223q0 65 -3.5 97t-12.5 50q-24 49 -88 49q-28 0 -54 -10t-46 -27q-23 -20 -34 -46t-11 -61v-275l67 -19v-41h-241v41l77 19v430h-217v-430l78 -19v-41h-252v41l77 19v430h-97v36l97 14v10q0 112 61 176t166 64q94 0 136 -50l18 40h30v-334q30 49 80 76.5
t106 27.5q40 0 72 -14t51 -40q20 -28 28.5 -78.5t8.5 -136.5v-221l77 -19v-41h-241v41zM212 590v-50h217v110q0 48 -27.5 75t-75.5 27q-57 0 -85.5 -41t-28.5 -121z" />
    <glyph glyph-name="f_f_h" unicode="ffh" horiz-adv-x="1284" 
d="M1088 60v223q0 65 -3.5 97t-12.5 50q-12 24 -34.5 36.5t-53.5 12.5q-58 0 -100 -37q-45 -39 -45 -111v-271l67 -19v-41h-241v41l77 19v430h-216v-430l78 -19v-41h-242v41l67 19v430h-217v-430l78 -19v-41h-252v41l77 19v430h-97v36l97 14v10q0 101 54.5 155.5t154.5 54.5
q97 0 150 -62q57 92 183 92q90 0 134 -50l18 40h30v-334q30 49 80 76.5t106 27.5q83 0 123 -54q20 -28 28.5 -78.5t8.5 -136.5v-221l77 -19v-41h-241v41zM526 590v-50h216v105q0 51 -26.5 79t-74.5 28q-115 0 -115 -162zM212 590v-50h217v23q0 85 -24 122t-80 37
q-55 0 -84 -33.5t-29 -98.5z" />
    <glyph glyph-name="f_j" unicode="fj" horiz-adv-x="609" 
d="M526 540v-455q0 -74 -5 -116.5t-17 -69.5q-19 -43 -55.5 -66t-83.5 -23q-53 0 -88 27t-35 68q0 26 14.5 41.5t38.5 15.5q23 0 36 -14.5t13 -40.5q0 -14 -4 -25.5t-12 -19.5q2 -7 12.5 -11t26.5 -4q35 0 48.5 28t13.5 101v514h-217v-430l78 -19v-41h-252v41l77 19v430h-97
v36l97 14v10q0 111 65 175.5t176 64.5q77 0 124 -30.5t47 -81.5q0 -27 -13.5 -41.5t-39.5 -14.5q-25 0 -37.5 12.5t-12.5 37.5q0 13 4 25.5t12 26.5q-34 28 -88 28q-18 0 -35 -2.5t-30 -7.5q-41 -14 -58 -48.5t-17 -103.5v-50h314z" />
    <glyph glyph-name="f_f_j" unicode="ffj" horiz-adv-x="922" 
d="M18 490v36l97 14v10q0 100 54 155t150 55q51 0 89 -14t66 -48q32 47 75.5 69.5t115.5 22.5q81 0 128 -30.5t47 -81.5q0 -56 -54 -56q-24 0 -36.5 12.5t-12.5 37.5q0 24 16 52q-16 14 -39 21t-49 7q-18 0 -36 -3.5t-33 -8.5q-37 -13 -53.5 -48.5t-16.5 -101.5v-50h313
v-455q0 -74 -4.5 -116.5t-16.5 -69.5q-19 -43 -55.5 -66t-83.5 -23q-53 0 -88 27t-35 68q0 26 14.5 41.5t38.5 15.5q23 0 36 -14.5t13 -40.5q0 -29 -16 -45q2 -7 12.5 -11t26.5 -4q35 0 48.5 28t13.5 101v514h-217v-430l78 -19v-41h-242v41l67 19v430h-217v-430l78 -19v-41
h-252v41l77 19v430h-97zM429 540v23q0 86 -24 122.5t-80 36.5q-55 0 -84 -33.5t-29 -98.5v-50h217z" />
    <glyph glyph-name="f_k" unicode="fk" horiz-adv-x="923" 
d="M697 41l59 19l-154 208l-76 -64v-144l77 -19v-41h-251v41l77 19v430h-217v-430l78 -19v-41h-252v41l77 19v430h-97v36l97 14v10q0 112 61 176t166 64q94 0 136 -50l18 40h30v-529l213 229l-66 19v41h215v-41l-73 -19l-151 -155l199 -267l53 -17v-41h-219v41zM212 590v-50
h217v110q0 48 -27.5 75t-75.5 27q-57 0 -85.5 -41t-28.5 -121z" />
    <glyph glyph-name="f_f_k" unicode="ffk" horiz-adv-x="1236" 
d="M1010 41l59 19l-154 208l-76 -64v-144l77 -19v-41h-251v41l77 19v430h-216v-430l78 -19v-41h-242v41l67 19v430h-217v-430l78 -19v-41h-252v41l77 19v430h-97v36l97 14v10q0 101 54.5 155.5t154.5 54.5q97 0 150 -62q57 92 183 92q90 0 134 -50l18 40h30v-529l213 229
l-66 19v41h215v-41l-73 -19l-151 -155l199 -267l53 -17v-41h-219v41zM526 590v-50h216v110q0 48 -27 75t-74 27q-115 0 -115 -162zM212 590v-50h217v23q0 85 -24 122t-80 37q-113 0 -113 -132z" />
    <glyph glyph-name=".notdef" horiz-adv-x="640" 
d="M80 -240v1140h480v-1140h-480zM177 830v-1000h286v1000h-286z" />
    <glyph glyph-name=".null" 
 />
    <glyph glyph-name="nonmarkingreturn" horiz-adv-x="333" 
 />
    <glyph glyph-name="NULL" 
 />
    <glyph glyph-name="NULL" 
 />
    <glyph glyph-name="CR" unicode="&#xd;" horiz-adv-x="270" 
 />
    <glyph glyph-name="space" unicode=" " horiz-adv-x="254" 
 />
    <glyph glyph-name="exclam" unicode="!" horiz-adv-x="285" 
d="M170 205h-56q0 39 -2 82.5t-4.5 85.5t-5 75.5t-4.5 51.5q-3 37 -8 73t-5 77q0 35 14.5 57.5t44.5 22.5q31 0 43 -23.5t12 -55.5q0 -42 -5 -78t-8 -73q-1 -18 -4 -51.5t-5.5 -75.5t-4.5 -85.5t-2 -82.5zM204 52q0 -30 -16 -46t-45 -16t-46 16.5t-17 45.5t16.5 46t45.5 17
t45.5 -17t16.5 -46z" />
    <glyph glyph-name="quotedbl" unicode="&#x22;" horiz-adv-x="377" 
d="M128 485h-47q0 45 -6.5 88t-13 77.5t-6.5 53.5q0 25 11 40.5t39 15.5t38.5 -15t10.5 -41q0 -19 -6.5 -53.5t-13 -77.5t-6.5 -88zM296 485h-47q0 45 -6.5 88t-13 77.5t-6.5 53.5q0 25 11 40.5t39 15.5t38.5 -15t10.5 -41q0 -19 -6.5 -53.5t-13 -77.5t-6.5 -88z" />
    <glyph glyph-name="numbersign" unicode="#" horiz-adv-x="736" 
d="M398 -10l42 212h-203l-42 -212h-57l42 212h-145v53h155l41 206h-147v53h157l43 216h57l-43 -216h203l43 216h57l-43 -216h143v-53h-153l-41 -206h145v-53h-155l-42 -212h-57zM288 461l-41 -206h203l41 206h-203z" />
    <glyph glyph-name="dollar" unicode="$" horiz-adv-x="568" 
d="M263 -130v120q-69 5 -119 30.5t-76.5 63t-26.5 78.5q0 32 16.5 51.5t47.5 19.5q27 0 42.5 -15.5t15.5 -38.5q0 -22 -13 -39t-29 -25q21 -28 55.5 -48t86.5 -23v267l-8 4t-8 3q-48 20 -92.5 45t-73 65t-28.5 104q0 89 57.5 142t152.5 57v120h47v-122q60 -6 103.5 -31
t67.5 -60.5t24 -73.5q0 -32 -16 -51.5t-44 -19.5q-25 0 -41 15t-16 40q0 20 10 35.5t26 22.5q-37 62 -114 69v-265q74 -33 123 -61t73.5 -63.5t24.5 -92.5q0 -93 -60 -145.5t-161 -57.5v-120h-47zM423 155q0 51 -32.5 82t-80.5 53v-245q54 7 83.5 35.5t29.5 74.5zM154 557
q0 -49 26.5 -74.5t82.5 -51.5v244q-55 -5 -82 -35.5t-27 -82.5z" />
    <glyph glyph-name="percent" unicode="%" horiz-adv-x="679" 
d="M120 -10l386 740h54l-386 -740h-54zM36 564q0 85 37 130q16 19 36.5 27t52.5 8q60 0 89 -35q37 -45 37 -130q0 -43 -9.5 -77.5t-27.5 -55.5q-29 -35 -89 -35q-31 0 -52.5 8.5t-36.5 26.5q-37 43 -37 133zM230 563q0 71 -21 107q-10 15 -20 21t-27 6t-28 -6t-19 -21
q-10 -18 -15.5 -44.5t-5.5 -62.5t5.5 -62.5t15.5 -44.5q8 -15 19 -21t28 -6t27 6t20 21q11 18 16 44.5t5 62.5zM390 158q0 85 37 130q16 19 36.5 27t52.5 8q60 0 89 -35q37 -45 37 -130q0 -43 -9.5 -77.5t-27.5 -55.5q-29 -35 -89 -35q-31 0 -52.5 8.5t-36.5 26.5
q-37 43 -37 133zM584 157q0 71 -21 107q-10 15 -20 21t-27 6t-28 -6t-19 -21q-10 -18 -15.5 -44.5t-5.5 -62.5t5.5 -62.5t15.5 -44.5q8 -15 19 -21t28 -6t27 6t20 21q11 18 16 44.5t5 62.5z" />
    <glyph glyph-name="ampersand" unicode="&#x26;" horiz-adv-x="767" 
d="M705 344l-76 -19q0 -61 -18 -123t-50 -109q10 -21 34 -35t51 -14q24 0 48.5 12.5t39.5 31.5l26 -37q-43 -61 -125 -61q-35 0 -68 12.5t-62 37.5q-37 -25 -80 -37.5t-99 -12.5q-121 0 -190.5 53t-69.5 145q0 62 35 107t118 91q-55 88 -55 167q0 52 22 91.5t61.5 61.5
t90.5 22q47 0 84 -18t58 -50t21 -73q0 -56 -42.5 -107.5t-126.5 -95.5l187 -243q26 38 40 85t14 99l-77 19v41h209v-41zM338 48q38 0 67 8t55 26l-204 261q-42 -22 -66 -63t-24 -91q0 -67 45 -104t127 -37zM249 576q0 -35 12 -70.5t37 -75.5q71 39 102.5 75t31.5 77t-27 67
t-71 26q-41 0 -63 -25t-22 -74z" />
    <glyph glyph-name="quotesingle" unicode="'" horiz-adv-x="209" 
d="M128 485h-47q0 45 -6.5 88t-13 77.5t-6.5 53.5q0 25 11 40.5t39 15.5t38.5 -15t10.5 -41q0 -19 -6.5 -53.5t-13 -77.5t-6.5 -88z" />
    <glyph glyph-name="parenleft" unicode="(" horiz-adv-x="371" 
d="M44 353q0 -104 21 -192t59 -155.5t90 -109.5t115 -55l26 55q-63 13 -110.5 73t-73.5 158t-26 224q0 125 27 224.5t75.5 162.5t112.5 78l-21 49q-66 -16 -120.5 -61t-93.5 -113t-60 -153.5t-21 -184.5z" />
    <glyph glyph-name="parenright" unicode=")" horiz-adv-x="371" 
d="M327 353q0 99 -21 184.5t-60 153.5t-93.5 113t-120.5 61l-21 -49q65 -15 113 -78t75 -162.5t27 -224.5q0 -126 -26.5 -224t-73.5 -158t-110 -73l26 -55q63 13 115 55t90 109.5t59 155.5t21 192z" />
    <glyph glyph-name="asterisk" unicode="*" horiz-adv-x="470" 
d="M274 743q0 -24 -8.5 -57t-13.5 -62q23 12 46.5 26.5t44.5 24.5t37 10q13 0 26 -9t13 -32q0 -16 -9.5 -25t-26 -13t-36.5 -6q-20 -1 -42.5 -2t-42.5 -4q22 -21 45.5 -42t40.5 -41t17 -38q0 -13 -12 -25t-28 -12q-22 0 -36.5 22.5t-26.5 55t-27 60.5q-15 -30 -26.5 -62
t-25.5 -54.5t-37 -22.5q-15 0 -27.5 12t-12.5 25q0 17 16 36.5t39.5 41.5t45.5 44q-16 2 -33 3l-34 2q-23 1 -43.5 4t-33 12t-12.5 27q0 23 12.5 32.5t25.5 9.5q14 0 35.5 -10t45.5 -24t46 -25q-4 31 -13 62.5t-9 55.5q0 21 10 34t30 13t30 -12.5t10 -34.5z" />
    <glyph glyph-name="plus" unicode="+" horiz-adv-x="488" 
d="M45 328v68h165v165h68v-165h165v-68h-165v-165h-68v165h-165z" />
    <glyph glyph-name="comma" unicode="," horiz-adv-x="247" 
d="M121 118q32 0 50.5 -22.5t18.5 -60.5q0 -54 -30 -98.5t-94 -85.5l-22 25q43 35 67 66t26 55l-4 3q-5 -9 -25 -9q-22 0 -37 17.5t-15 44.5q0 29 18 47t47 18z" />
    <glyph glyph-name="hyphen" unicode="-" horiz-adv-x="389" 
d="M69 244v67h251v-67h-251z" />
    <glyph glyph-name="hyphen" unicode="&#xad;" horiz-adv-x="389" 
d="M69 244v67h251v-67h-251z" />
    <glyph glyph-name="period" unicode="." horiz-adv-x="240" 
d="M57 53q0 30 17 47.5t46 17.5t46.5 -18t17.5 -47t-17.5 -46t-46.5 -17q-30 0 -46.5 16.5t-16.5 46.5z" />
    <glyph glyph-name="slash" unicode="/" horiz-adv-x="310" 
d="M54 -10l146 740h57l-146 -740h-57z" />
    <glyph glyph-name="zero" unicode="0" horiz-adv-x="674" 
d="M57 360q0 192 83 292q36 44 83 61t114 17q45 0 80.5 -7.5t64 -24.5t52.5 -46q83 -100 83 -292q0 -96 -21 -169.5t-62 -122.5q-24 -29 -52.5 -46t-64 -24.5t-80.5 -7.5q-67 0 -114 17.5t-83 60.5q-83 100 -83 292zM505 360q0 87 -11 150.5t-34 102.5q-19 32 -47.5 47.5
t-75.5 15.5t-75.5 -15.5t-47.5 -47.5q-23 -39 -34 -102.5t-11 -150.5t11 -150.5t34 -102.5q19 -31 47.5 -47t75.5 -16t75.5 16t47.5 47q23 39 34 102.5t11 150.5z" />
    <glyph glyph-name="one" unicode="1" horiz-adv-x="400" 
d="M172 60v573h-127v51q24 0 56 5.5t60.5 15.5t39.5 25h68v-670l107 -19v-41h-331v41z" />
    <glyph glyph-name="two" unicode="2" horiz-adv-x="589" 
d="M132 95h315l24 128h55v-223h-475v66q0 53 26.5 96t68 81.5t88 74.5t88 73t68 79t26.5 92q0 56 -37 85.5t-107 29.5q-61 0 -96 -24t-46 -73q32 0 49 -16t17 -45q0 -28 -17 -44.5t-48 -16.5q-34 0 -50.5 20.5t-16.5 62.5q0 57 28.5 99.5t80 66.5t119.5 24t118.5 -24
t78.5 -67.5t28 -102.5q0 -61 -28 -108t-71.5 -83.5t-93 -67t-93 -59t-71.5 -58.5t-28 -66z" />
    <glyph glyph-name="three" unicode="3" horiz-adv-x="580" 
d="M511 543q0 -66 -38 -111t-104 -56v-4q77 -16 115 -60t38 -117q0 -61 -30.5 -107t-85.5 -72t-128 -26q-66 0 -117 24t-79.5 66.5t-28.5 97.5q0 43 17.5 64t52.5 21q29 0 45.5 -16.5t16.5 -45.5q0 -27 -18 -43.5t-48 -16.5q9 -48 46 -72.5t101 -24.5q74 0 111 35.5
t37 102.5q0 77 -48.5 122t-133.5 45v48q80 0 129.5 44t49.5 116q0 58 -34.5 89t-99.5 31q-127 0 -144 -87q31 0 48.5 -15.5t17.5 -44.5q0 -28 -17.5 -45t-46.5 -17q-34 0 -54 24t-20 65q0 52 29 91t80 61t118 22q66 0 116 -23.5t78.5 -66t28.5 -98.5z" />
    <glyph glyph-name="four" unicode="4" horiz-adv-x="559" 
d="M321 60v153h-292l-11 44l321 473h79v-460h109l-10 -57h-99v-153l77 -19v-41h-271v41zM321 618l-234 -348h234v348z" />
    <glyph glyph-name="five" unicode="5" horiz-adv-x="550" 
d="M441 625l40 127h-42l-18 -32h-288l-57 -354l48 -20q20 25 58 37.5t78 12.5q79 0 108 -47t29 -127q0 -81 -29.5 -130.5t-109.5 -49.5q-58 0 -98 24t-48 61q32 0 49.5 19t17.5 43t-15 42t-45 18t-52 -25.5t-22 -70.5q0 -43 26.5 -80.5t74.5 -60t112 -22.5q74 0 129.5 29.5
t86.5 83t31 124.5q0 69 -29 119t-80.5 77.5t-121.5 27.5q-43 0 -77.5 -11t-63.5 -33l33 218h275z" />
    <glyph glyph-name="six" unicode="6" horiz-adv-x="603" 
d="M154 351h4q28 37 75 58t102 21q64 0 111.5 -27.5t74.5 -77t27 -115.5q0 -102 -64.5 -161t-174.5 -59q-127 0 -188.5 86t-61.5 264q0 191 66 291t191 100q61 0 107.5 -21t72.5 -59t26 -88q0 -41 -17.5 -62.5t-50.5 -21.5q-29 0 -46.5 16.5t-17.5 44.5t17.5 44.5t48.5 16.5
q-7 37 -41 56t-90 19q-91 0 -132 -66t-41 -212q0 -14 0.5 -24t1.5 -23zM441 210q0 163 -133 163q-66 0 -99.5 -41t-33.5 -122q0 -82 33.5 -123.5t99.5 -41.5q133 0 133 165z" />
    <glyph glyph-name="seven" unicode="7" horiz-adv-x="513" 
d="M262 54q0 -29 -12 -46.5t-39 -17.5q-28 0 -40 17t-12 48q0 42 13 98t36 119t54.5 126.5t68 122t75.5 104.5h-295l-19 -117h-52v212h459v-61q-50 -59 -93 -132.5t-75.5 -154.5t-50.5 -162.5t-18 -155.5z" />
    <glyph glyph-name="eight" unicode="8" horiz-adv-x="572" 
d="M486 571q0 -56 -28.5 -103.5t-80.5 -78.5q74 -40 108 -85.5t34 -105.5q0 -62 -31.5 -109t-87.5 -73t-131 -26q-102 0 -159 50t-57 138q0 64 32.5 112t102.5 88q-55 40 -78.5 78t-23.5 90q0 86 55.5 135.5t152.5 49.5q90 0 141 -42.5t51 -117.5zM229 352
q-55 -32 -80.5 -74t-25.5 -99q0 -68 36.5 -101.5t110.5 -33.5t112.5 31t38.5 92q0 32 -17 59t-59 57t-116 69zM334 415q43 21 67.5 62t24.5 90q0 55 -32.5 82.5t-97.5 27.5q-62 0 -93.5 -25.5t-31.5 -77.5q0 -47 36.5 -82.5t126.5 -76.5z" />
    <glyph glyph-name="nine" unicode="9" horiz-adv-x="603" 
d="M449 370h-4q-28 -37 -75 -58t-102 -21q-63 0 -111 27.5t-75 77t-27 115.5q0 68 29 117.5t83 76t127 26.5q128 0 189 -86t61 -265q0 -192 -68 -291t-200 -99q-60 0 -104.5 20t-68.5 57t-24 87q0 41 17.5 63t50.5 22q29 0 46.5 -16t17.5 -45q0 -28 -17.5 -44.5t-48.5 -16.5
q5 -35 35 -53.5t84 -18.5q101 0 144 64.5t43 213.5v27.5t-2 19.5zM162 511q0 -163 133 -163q66 0 99.5 41t33.5 122q0 82 -33.5 123.5t-99.5 41.5q-133 0 -133 -165z" />
    <glyph glyph-name="colon" unicode=":" horiz-adv-x="265" 
d="M69 53q0 30 17 47.5t46 17.5t46.5 -18t17.5 -47t-17.5 -46t-46.5 -17q-30 0 -46.5 16.5t-16.5 46.5zM69 404q0 30 17 47.5t46 17.5t46.5 -18t17.5 -47t-17.5 -46t-46.5 -17q-30 0 -46.5 16.5t-16.5 46.5z" />
    <glyph glyph-name="semicolon" unicode=";" horiz-adv-x="287" 
d="M81 404q0 30 17 47.5t46 17.5t46.5 -18t17.5 -47t-17.5 -46t-46.5 -17q-30 0 -46.5 16.5t-16.5 46.5zM144 118q32 0 50.5 -22.5t18.5 -60.5q0 -54 -30 -98.5t-94 -85.5l-22 25q43 35 67 66t26 55l-4 3q-5 -9 -25 -9q-22 0 -37 17.5t-15 44.5q0 29 18 47t47 18z" />
    <glyph glyph-name="less" unicode="&#x3c;" horiz-adv-x="471" 
d="M404 135l-369 196v58l369 195v-75l-298 -149l298 -149v-76z" />
    <glyph glyph-name="equal" unicode="=" horiz-adv-x="576" 
d="M74 423v58h428v-58h-428zM74 235v59h428v-59h-428z" />
    <glyph glyph-name="greater" unicode="&#x3e;" horiz-adv-x="471" 
d="M436 331l-369 -196v76l298 149l-298 149v75l369 -195v-58z" />
    <glyph glyph-name="question" unicode="?" horiz-adv-x="481" 
d="M238 205h-56q0 41 9 72.5t31.5 63t62.5 71.5q35 35 50 67t15 72q0 60 -30.5 92.5t-86.5 32.5q-40 0 -71.5 -14.5t-31.5 -34.5q20 -11 31.5 -30.5t11.5 -41.5q0 -28 -18.5 -46t-47.5 -18q-32 0 -52.5 24.5t-20.5 62.5q0 43 27.5 77.5t75 55t105.5 20.5q62 0 109 -22
t73.5 -61.5t26.5 -90.5q0 -45 -21.5 -84t-73.5 -86q-47 -43 -72.5 -72.5t-35.5 -54.5t-10 -55zM148 52q0 29 17 46t45 17q29 0 45.5 -17t16.5 -46t-16 -45.5t-45 -16.5t-46 16.5t-17 45.5z" />
    <glyph glyph-name="at" unicode="@" horiz-adv-x="808" 
d="M409 449q77 0 101 -55l32 37h40l-37 -246q-2 -13 -3 -24t-1 -21q0 -33 12.5 -48.5t37.5 -15.5q34 0 61 27.5t43 74t16 103.5q0 84 -35.5 146t-100 96.5t-152.5 34.5q-71 0 -132 -27.5t-106.5 -76t-71 -114t-25.5 -141.5q0 -141 81.5 -219.5t227.5 -78.5q139 0 246 69
l19 -31q-55 -37 -124 -56t-143 -19q-108 0 -186 40.5t-120.5 115.5t-42.5 178q0 84 29 156t81 126t121 84t149 30q99 0 173 -39t115 -108.5t41 -162.5q0 -70 -23 -125.5t-63 -87.5t-91 -32q-41 0 -67 18.5t-32 49.5q-23 -34 -60.5 -53.5t-82.5 -19.5q-68 0 -105 42t-37 120
q0 72 28.5 129.5t77 90.5t109.5 33zM408 410q-61 0 -98.5 -61t-37.5 -163q0 -59 19 -86t60 -27q64 0 100 59t36 164q0 61 -18.5 87.5t-60.5 26.5z" />
    <glyph glyph-name="A" unicode="A" horiz-adv-x="721" 
d="M532 64l-59 178h-268l-61 -178l83 -21v-43h-234v43l82 21l240 666h93l237 -666l80 -21v-43h-275v43zM342 641l-117 -341h229l-108 341h-4z" />
    <glyph glyph-name="B" unicode="B" horiz-adv-x="684" 
d="M601 547q0 -38 -17.5 -71t-47.5 -55t-69 -27v-4q78 -16 123 -66t45 -123q0 -56 -29.5 -103.5t-74.5 -70.5q-28 -14 -69 -20.5t-115 -6.5h-299v43l84 21v592l-84 21v43h336q105 0 162 -51q26 -24 40.5 -56t14.5 -66zM360 347h-128v-287h110q46 0 74 5t47 16q27 16 44 48
t17 77q0 38 -13 66.5t-33 45.5q-18 15 -46 22t-72 7zM232 662v-257h125q70 0 103 35q15 16 26 41t11 56t-11 55.5t-26 39.5q-30 30 -99 30h-129z" />
    <glyph glyph-name="C" unicode="C" horiz-adv-x="684" 
d="M371 676q-49 0 -83.5 -15t-58.5 -47q-30 -39 -47 -102.5t-17 -139.5q0 -71 15 -133t42 -104t65.5 -61.5t96.5 -19.5q180 0 209 169h55q-45 -233 -274 -233q-138 0 -220 80q-49 48 -75 121t-26 162q0 101 33 183t93 131q76 63 201 63q62 0 101 -16t77 -57l20 63h55v-221
h-61q-14 88 -64.5 132.5t-136.5 44.5z" />
    <glyph glyph-name="D" unicode="D" horiz-adv-x="766" 
d="M232 60h155q54 0 92.5 16t63.5 50q28 35 41.5 92t13.5 136q0 156 -55 232q-26 38 -67 56t-99 18h-145v-600zM48 720h336q149 0 232 -84q47 -48 72 -118t25 -150q0 -84 -26.5 -157.5t-73.5 -123.5q-83 -87 -238 -87h-327v43l84 21v592l-84 21v43z" />
    <glyph glyph-name="E" unicode="E" horiz-adv-x="685" 
d="M472 238h-51l-18 102h-166v-280h302l31 163h58v-223h-585v43l94 21v592l-94 21v43h563v-212h-52l-32 154h-285v-262h166l18 102h51v-264z" />
    <glyph glyph-name="F" unicode="F" horiz-adv-x="636" 
d="M472 227h-51l-17 102h-167v-262l117 -19v-48h-311v43l94 24v589l-94 21v43h563v-214h-54l-32 156h-283v-273h167l17 102h51v-264z" />
    <glyph glyph-name="G" unicode="G" horiz-adv-x="753" 
d="M375 55q85 0 127.5 42.5t42.5 125.5v70l-84 21v45h268v-45l-84 -21v-293h-52l-25 79q-43 -48 -89.5 -68.5t-109.5 -20.5q-137 0 -219 84q-46 47 -71.5 119t-25.5 159q0 89 26.5 165.5t74.5 126.5q41 43 95.5 64.5t123.5 21.5q60 0 103 -18.5t80 -60.5l22 69h55v-221h-61
q-14 88 -65.5 132.5t-137.5 44.5q-50 0 -84.5 -16.5t-59.5 -51.5q-28 -42 -44.5 -106t-16.5 -136q0 -74 17.5 -137t49.5 -107q26 -35 60 -51t84 -16z" />
    <glyph glyph-name="H" unicode="H" horiz-adv-x="803" 
d="M671 656v-592l84 -21v-43h-268v43l84 21v277h-339v-277l84 -21v-43h-268v43l84 21v592l-84 21v43h268v-43l-84 -21v-257h339v257l-84 21v43h268v-43z" />
    <glyph glyph-name="I" unicode="I" horiz-adv-x="374" 
d="M237 656v-592l94 -21v-43h-288v43l94 21v592l-94 21v43h288v-43z" />
    <glyph glyph-name="J" unicode="J" horiz-adv-x="583" 
d="M365 207v449l-99 21v43h278v-43l-79 -21v-438q0 -69 -29.5 -120.5t-82.5 -80t-124 -28.5q-62 0 -110 23.5t-74.5 65.5t-26.5 97q0 41 16.5 62.5t49.5 21.5q29 0 46 -16t17 -42q0 -23 -13 -46.5t-30 -31.5q0 -32 34.5 -54t89.5 -22q71 0 104 40t33 120z" />
    <glyph glyph-name="K" unicode="K" horiz-adv-x="741" 
d="M237 656v-290l280 290l-91 21v43h263v-43l-88 -21l-234 -232l299 -362l84 -19v-43h-279v43l66 20l-237 293l-63 -60v-232l84 -21v-43h-278v43l94 21v592l-94 21v43h278v-43z" />
    <glyph glyph-name="L" unicode="L" horiz-adv-x="629" 
d="M237 656v-596h272l34 173h55v-233h-555v43l94 21v592l-94 21v43h298v-43z" />
    <glyph glyph-name="M" unicode="M" horiz-adv-x="961" 
d="M486 91l193 629h234v-43l-84 -21v-592l84 -21v-43h-257v43l73 21v591l-206 -655h-118l-208 655v-591l73 -21v-43h-222v43l84 21v592l-84 21v43h238l196 -629h4z" />
    <glyph glyph-name="N" unicode="N" horiz-adv-x="801" 
d="M132 64v592l-84 21v43h191l374 -553v489l-84 21v43h233v-43l-84 -21v-656h-71l-410 599v-535l84 -21v-43h-233v43z" />
    <glyph glyph-name="O" unicode="O" horiz-adv-x="764" 
d="M711 368q0 -87 -26.5 -163.5t-73.5 -127.5q-41 -44 -98.5 -65.5t-132.5 -21.5q-76 0 -134 21t-97 63q-46 48 -71 120.5t-25 157.5q0 87 26.5 163.5t73.5 127.5q42 45 97.5 66t131.5 21t133.5 -20.5t98.5 -63.5q47 -48 72 -121t25 -157zM168 372q0 -83 14 -147.5
t40 -105.5q26 -37 65.5 -55.5t97.5 -18.5q106 0 156 66q27 37 41 98.5t14 144.5t-14 146t-41 102q-26 38 -66.5 56t-95.5 18q-53 0 -91.5 -16.5t-64.5 -49.5q-55 -73 -55 -238z" />
    <glyph glyph-name="P" unicode="P" horiz-adv-x="631" 
d="M232 341h124q28 0 52.5 8.5t38.5 22.5q20 21 34 55t14 73q0 38 -13.5 69.5t-34.5 56.5q-16 17 -41 26.5t-54 9.5h-120v-321zM378 283h-146v-219l95 -21v-43h-279v43l84 21v592l-84 21v43h331q47 0 86 -12.5t64 -35.5q35 -31 55.5 -74.5t20.5 -91.5q0 -49 -21.5 -96
t-56.5 -78q-26 -23 -65 -36t-84 -13z" />
    <glyph glyph-name="Q" unicode="Q" horiz-adv-x="764" 
d="M711 368q0 -87 -26.5 -163.5t-73.5 -127.5q-37 -40 -86.5 -60.5t-111.5 -25.5v-4l127 -81q38 -24 81 -24q16 0 27.5 4.5t26.5 14.5l16 -27q-19 -32 -50.5 -45.5t-76.5 -13.5q-55 0 -97.5 19t-65.5 57l-60 101q-122 9 -192 82q-46 48 -71 120.5t-25 157.5q0 87 26.5 163.5
t73.5 127.5q42 45 97.5 66t131.5 21t133.5 -20.5t98.5 -63.5q47 -48 72 -121t25 -157zM168 374q0 -85 14 -150.5t40 -104.5q49 -74 162 -74q108 0 157 66q55 75 55 243q0 169 -55 248q-52 74 -162 74q-105 0 -156 -66q-55 -71 -55 -236z" />
    <glyph glyph-name="R" unicode="R" horiz-adv-x="706" 
d="M543 382q-18 -14 -42 -24t-59 -17q9 -9 19.5 -23t20.5 -31l133 -225l89 -19v-43h-206v43l-144 280h-122v-259l95 -21v-43h-279v43l84 21v592l-84 21v43h344q48 0 84 -9t65 -29q37 -24 57.5 -66t20.5 -84t-20.5 -82.5t-55.5 -67.5zM232 381h143q55 0 91 31
q20 18 31.5 48.5t11.5 65.5t-11.5 63.5t-32.5 46.5q-17 14 -39.5 20t-54.5 6h-139v-281z" />
    <glyph glyph-name="S" unicode="S" horiz-adv-x="599" 
d="M321 -11q-59 0 -107.5 18t-80.5 51l-11 -58h-56v227h61q6 -95 48 -139t127 -44q71 0 107 27.5t36 81.5q0 43 -21.5 72t-62 52t-96.5 45q-63 26 -107 51.5t-66.5 62t-22.5 94.5q0 95 59.5 148t159.5 53q99 0 161 -56l8 45h56v-227h-57q0 96 -36 140t-113 44
q-137 0 -137 -125q0 -33 12 -54.5t43.5 -39.5t89.5 -43q83 -35 134 -68t74 -71.5t23 -91.5q0 -61 -28.5 -105t-79 -67t-117.5 -23z" />
    <glyph glyph-name="T" unicode="T" horiz-adv-x="658" 
d="M31 720h596v-210h-52l-32 150h-164v-593l106 -24v-43h-312v43l106 24v593h-165l-31 -150h-52v210z" />
    <glyph glyph-name="U" unicode="U" horiz-adv-x="772" 
d="M592 259v397l-84 21v43h231v-43l-84 -21v-413q0 -124 -67 -189t-196 -65q-133 0 -204.5 66.5t-71.5 188.5v412l-84 21v43h268v-43l-84 -21v-395q0 -217 198 -217q94 0 136 51t42 164z" />
    <glyph glyph-name="V" unicode="V" horiz-adv-x="716" 
d="M179 656l198 -573h4l186 573l-83 21v43h234v-43l-82 -21l-224 -656h-98l-243 656l-80 21v43h270v-43z" />
    <glyph glyph-name="W" unicode="W" horiz-adv-x="1041" 
d="M737 94l155 563l-79 20v43h229v-43l-83 -21l-190 -656h-104l-147 481l-133 -481h-104l-208 656l-78 21v43h284v-43l-96 -21l165 -562h4l136 502l-13 60l-78 21v43h264v-43l-92 -21l164 -562h4z" />
    <glyph glyph-name="X" unicode="X" horiz-adv-x="740" 
d="M331 677l-94 -21l141 -224l168 224l-91 21v43h263v-43l-98 -21l-206 -270l214 -322l106 -21v-43h-327l-2 43l103 21l-157 251l-177 -251l109 -21v-43h-272v43l93 21l211 294l-195 298l-106 21v43h317v-43z" />
    <glyph glyph-name="Y" unicode="Y" horiz-adv-x="678" 
d="M359 336l174 320l-81 21v43h227v-43l-82 -21l-204 -374v-218l94 -21v-43h-288v43l94 21v202l-215 390l-83 21v43h276v-43l-84 -21z" />
    <glyph glyph-name="Z" unicode="Z" horiz-adv-x="647" 
d="M511 60l32 163h57v-223h-563v61l426 599h-311l-32 -152h-52v212h509v-61l-426 -599h360z" />
    <glyph glyph-name="bracketleft" unicode="[" horiz-adv-x="368" 
d="M93 -149v1004h251v-60h-162v-884h162v-60h-251z" />
    <glyph glyph-name="backslash" unicode="\" horiz-adv-x="310" 
d="M110 730l146 -740h-57l-146 740h57z" />
    <glyph glyph-name="bracketright" unicode="]" horiz-adv-x="368" 
d="M275 855v-1004h-251v60h162v884h-162v60h251z" />
    <glyph glyph-name="asciicircum" unicode="^" horiz-adv-x="382" 
d="M327 639l-89 151h-95l-88 -151h53l83 91l83 -91h53z" />
    <glyph glyph-name="underscore" unicode="_" horiz-adv-x="632" 
d="M69 -58v58h494v-58h-494z" />
    <glyph glyph-name="grave" unicode="`" horiz-adv-x="259" 
d="M170 715l49 -76h-53l-38 28q-47 35 -67.5 56.5t-20.5 36.5q0 18 12 26.5t33 8.5t39 -17.5t46 -62.5z" />
    <glyph glyph-name="a" unicode="a" horiz-adv-x="537" 
d="M38 117q0 78 73 123t242 70q-4 59 -11 92t-18 53q-14 26 -39 38.5t-54 12.5q-28 0 -50.5 -10t-30.5 -27q14 -10 20.5 -26t6.5 -30q0 -25 -16.5 -39.5t-40.5 -14.5t-39.5 16t-15.5 45q0 42 29 71t73.5 44t89.5 15q41 0 75.5 -12.5t58.5 -36.5q62 -62 62 -220v-145
q0 -49 6.5 -68t28.5 -19h45v-30q-72 -29 -112 -29q-31 0 -41.5 22.5t-10.5 86.5h-4q-31 -51 -82 -80t-110 -29q-63 0 -99 34t-36 93zM215 48q28 0 58.5 14.5t51.5 40.5q16 20 23.5 47.5t7.5 64.5q0 17 -1 33.5t-3 31.5q-81 -16 -127 -34.5t-65 -44t-19 -63.5
q0 -43 19.5 -66.5t54.5 -23.5z" />
    <glyph glyph-name="b" unicode="b" horiz-adv-x="601" 
d="M555 275q0 -65 -19 -123t-53 -97q-56 -65 -161 -65q-51 0 -91 23.5t-71 87.5l-30 -101h-47v720l-77 19v41h174v-298q30 38 67 53t83 15q51 0 92.5 -15t67.5 -48q31 -38 48 -93t17 -119zM180 274q0 -61 9 -106t26 -73q16 -25 39.5 -39t60.5 -14q34 0 59.5 12.5t41.5 34.5
q18 26 26 72t8 106t-9 105t-26 73q-16 26 -39.5 39.5t-61.5 13.5q-34 0 -59.5 -11.5t-39.5 -34.5q-16 -28 -25.5 -72.5t-9.5 -105.5z" />
    <glyph glyph-name="c" unicode="c" horiz-adv-x="536" 
d="M302 550q58 0 100.5 -19.5t66 -54.5t23.5 -82q0 -37 -15.5 -57t-46.5 -20q-28 0 -44.5 16t-16.5 43q0 25 13.5 43t36.5 25q-15 29 -42.5 42t-68.5 13q-82 0 -119.5 -53.5t-37.5 -166.5q0 -49 6.5 -84.5t19.5 -60.5q20 -37 53 -57t78 -20q46 0 88 20t72 57l30 -24
q-40 -61 -92 -90.5t-122 -29.5t-121.5 28.5t-80.5 83.5q-36 67 -36 162q0 87 31.5 151t89.5 99.5t135 35.5z" />
    <glyph glyph-name="d" unicode="d" horiz-adv-x="620" 
d="M46 265q0 65 17 124t51 96q29 32 69 48.5t92 16.5q44 0 80.5 -17t65.5 -61v248l-77 19v41h174v-720l77 -19v-41l-155 -10l-8 82q-31 -46 -70 -64t-87 -18q-51 0 -92 15t-68 48q-32 39 -50.5 93.5t-18.5 118.5zM421 266q0 61 -9 106t-26 73q-16 26 -39 39.5t-61 13.5
q-34 0 -59.5 -12t-41.5 -35q-18 -25 -26 -71.5t-8 -106.5t9 -104.5t26 -73.5q17 -25 40.5 -39t60.5 -14q35 0 60.5 11.5t38.5 34.5q17 28 26 72.5t9 105.5z" />
    <glyph glyph-name="e" unicode="e" horiz-adv-x="544" 
d="M497 264h-349q0 -73 20 -121q20 -46 57 -66t80 -20q47 0 86 19.5t70 53.5l32 -24q-35 -48 -85 -82t-129 -34q-69 0 -122 29.5t-81 86.5q-15 31 -22 69t-7 81q0 140 64.5 217t175.5 77q102 0 157.5 -63.5t55.5 -175.5q0 -10 -0.5 -18.5t-2.5 -28.5zM281 496
q-120 0 -132 -183h250v33q0 72 -30.5 111t-87.5 39z" />
    <glyph glyph-name="f" unicode="f" horiz-adv-x="363" 
d="M18 490v36l97 14v10q0 115 50 177.5t135 62.5q59 0 94.5 -28.5t35.5 -72.5q0 -28 -14 -42.5t-38 -14.5q-23 0 -37 13t-14 37q0 26 16 52q-17 18 -46 18q-23 0 -40 -10q-22 -13 -31.5 -37t-11.5 -53.5t-2 -61.5v-50h128v-50h-128v-430l108 -19v-41h-282v41l77 19v430h-97z
" />
    <glyph glyph-name="g" unicode="g" horiz-adv-x="560" 
d="M507 -10q0 -76 -64.5 -125t-179.5 -49q-76 0 -128 15t-78.5 43t-26.5 67q0 47 28 72.5t77 32.5v4q-66 19 -66 78q0 21 10 39.5t30.5 34.5t52.5 27q-49 18 -76 56t-27 93q0 80 55.5 126t148.5 46q47 0 84 -11.5t63 -34.5l34 12l92 44h17v-88h-17l-70 8h-34q29 -40 29 -96
q0 -79 -54.5 -124.5t-150.5 -45.5q-10 0 -20 0.5t-20 1.5q-40 -6 -59.5 -21t-19.5 -38t18 -31.5t70 -8.5h116q82 0 124 -30.5t42 -96.5zM297 40h-65q-67 0 -97 -23t-30 -60q0 -91 156 -91q85 0 129.5 26t44.5 76q0 40 -30.5 56t-107.5 16zM147 382q0 -60 27.5 -91t85.5 -31
q59 0 86 31t27 91t-27 91t-86 31q-58 0 -85.5 -31t-27.5 -91z" />
    <glyph glyph-name="h" unicode="h" horiz-adv-x="644" 
d="M448 60v223q0 65 -3.5 97t-12.5 50q-24 49 -88 49q-28 0 -54 -10t-46 -27q-22 -19 -32.5 -45.5t-12.5 -65.5v-271l67 -19v-41h-241v41l77 19v660l-77 19v41h174v-334q30 48 79.5 76t106.5 28q40 0 72 -14t51 -40q20 -28 28.5 -78.5t8.5 -136.5v-221l77 -19v-41h-241v41z
" />
    <glyph glyph-name="i" unicode="i" horiz-adv-x="312" 
d="M113 480l-77 19v41h174v-480l77 -19v-41h-251v41l77 19v420zM99 701q0 29 17 46t45 17q29 0 46 -17t17 -46q0 -28 -17 -45t-46 -17t-45.5 16.5t-16.5 45.5z" />
    <glyph glyph-name="j" unicode="j" horiz-adv-x="284" 
d="M201 540v-455q0 -74 -5 -116.5t-17 -69.5q-19 -43 -55.5 -66t-83.5 -23q-53 0 -88 27t-35 68q0 26 14.5 41.5t38.5 15.5q23 0 36 -14.5t13 -40.5q0 -14 -4 -25.5t-12 -19.5q2 -7 12.5 -11t26.5 -4q35 0 48.5 28t13.5 101v504l-77 19v41h174zM90 701q0 29 17 46t45 17
q29 0 46 -17t17 -46q0 -28 -17 -45t-46 -17t-45.5 16.5t-16.5 45.5z" />
    <glyph glyph-name="k" unicode="k" horiz-adv-x="596" 
d="M370 41l59 19l-154 208l-76 -64v-144l77 -19v-41h-251v41l77 19v660l-77 19v41h174v-529l213 229l-66 19v41h215v-41l-73 -19l-151 -155l199 -267l53 -17v-41h-219v41z" />
    <glyph glyph-name="l" unicode="l" horiz-adv-x="308" 
d="M105 60v660l-77 19v41h174v-720l77 -19v-41h-251v41z" />
    <glyph glyph-name="m" unicode="m" horiz-adv-x="975" 
d="M113 60v420l-77 19v41h144l22 -100h4q29 50 77.5 80t103.5 30q41 0 73 -15.5t47 -38.5q16 -25 26 -66q32 56 83 88t109 32q40 0 72 -15.5t49 -42.5q12 -19 19 -49t10 -77.5t3 -120.5v-185l77 -19v-41h-241v41l67 19v223q0 65 -3.5 97t-12.5 50q-12 24 -33.5 36.5
t-50.5 12.5q-25 0 -49 -10t-43 -27q-22 -20 -32.5 -47t-12.5 -68v-267l67 -19v-41h-231v41l67 19v223q0 65 -3.5 97t-12.5 50q-12 24 -33.5 36.5t-50.5 12.5q-25 0 -49 -10t-43 -27q-22 -20 -32.5 -47t-12.5 -68v-267l67 -19v-41h-241v41z" />
    <glyph glyph-name="n" unicode="n" horiz-adv-x="655" 
d="M113 60v420l-77 19v41h144l22 -100h4q30 51 81 80.5t109 29.5q83 0 123 -54q20 -28 28.5 -78.5t8.5 -136.5v-221l77 -19v-41h-241v41l67 19v223q0 65 -3.5 97t-12.5 50q-12 24 -34.5 36.5t-53.5 12.5q-58 0 -100 -37q-41 -37 -45 -115v-267l67 -19v-41h-241v41z" />
    <glyph glyph-name="o" unicode="o" horiz-adv-x="582" 
d="M536 275q0 -65 -19.5 -123.5t-54.5 -96.5q-30 -33 -74 -49t-100 -16q-55 0 -98 15.5t-73 47.5q-34 37 -52.5 91.5t-18.5 118.5q0 65 19 124.5t55 97.5q32 34 74.5 49.5t97.5 15.5t99 -15.5t74 -47.5q35 -37 53 -92.5t18 -119.5zM153 274q0 -61 9.5 -105.5t26.5 -73.5
q17 -25 40.5 -39t61.5 -14q69 0 103 47q18 26 26.5 72t8.5 106t-9.5 105t-26.5 73q-16 26 -40.5 39.5t-62.5 13.5q-70 0 -101 -46q-36 -56 -36 -178z" />
    <glyph glyph-name="p" unicode="p" horiz-adv-x="619" 
d="M199 -120l97 -19v-41h-271v41l77 19v600l-77 19v41h144l15 -77q32 50 72.5 68.5t91.5 18.5t92.5 -15t67.5 -48q30 -38 47.5 -91.5t17.5 -115.5q0 -64 -19.5 -120.5t-52.5 -94.5q-56 -65 -161 -65q-43 0 -77.5 16.5t-63.5 57.5v-194zM198 279q0 -59 9 -103t26 -71
q16 -25 39.5 -39t60.5 -14q34 0 59.5 12.5t41.5 34.5q18 25 26 70t8 103q0 59 -9 102t-26 71q-16 26 -39.5 39.5t-61.5 13.5q-34 0 -59.5 -11.5t-39.5 -34.5q-16 -27 -25.5 -70.5t-9.5 -102.5z" />
    <glyph glyph-name="q" unicode="q" horiz-adv-x="601" 
d="M421 -120v187q-29 -38 -65.5 -52.5t-80.5 -14.5q-51 0 -92 15t-68 48q-31 38 -50 91.5t-19 115.5q0 64 18.5 120.5t49.5 94.5q53 65 161 65q53 0 94 -24.5t72 -88.5l30 103h47v-660l77 -19v-41h-271v41zM421 271q0 119 -35 174q-16 26 -39 39.5t-61 13.5q-34 0 -59.5 -12
t-41.5 -35q-18 -25 -26 -69.5t-8 -103.5q0 -117 35 -173q17 -25 40.5 -39t60.5 -14q35 0 60.5 11.5t38.5 34.5q17 27 26 70.5t9 102.5z" />
    <glyph glyph-name="r" unicode="r" horiz-adv-x="458" 
d="M337 482q-4 3 -9.5 4.5t-10.5 1.5q-12 0 -26 -11t-27 -29.5t-24 -42.5q-14 -34 -22 -74.5t-8 -83.5v-187l108 -19v-41h-282v41l77 19v420l-77 19v41h144l22 -132h4q23 68 62 105t86 37q39 0 65 -24.5t26 -65.5q0 -30 -15.5 -47.5t-41.5 -17.5t-41 16.5t-15 43.5
q0 6 1 11.5t4 15.5z" />
    <glyph glyph-name="s" unicode="s" horiz-adv-x="503" 
d="M244 36q56 0 91.5 23t35.5 64q0 33 -22 53t-54.5 32.5t-65.5 21.5q-41 13 -79 30.5t-62 48.5t-24 82q0 72 52.5 115.5t146.5 43.5q80 0 126.5 -33.5t46.5 -91.5q0 -31 -14 -49.5t-40 -18.5q-23 0 -38 14t-15 36q0 19 10 34.5t26 22.5q-15 21 -38.5 30.5t-60.5 9.5
q-60 0 -90 -21.5t-30 -63.5q0 -30 14.5 -47.5t42.5 -29.5t69 -25q34 -10 67 -22.5t60 -30.5t43 -45t16 -67q0 -51 -28 -87.5t-77 -55.5t-113 -19q-88 0 -142 36t-54 97q0 32 14.5 50.5t41.5 18.5q24 0 40.5 -14t16.5 -37q0 -19 -10.5 -36t-25.5 -25q13 -19 46.5 -31.5
t76.5 -12.5z" />
    <glyph glyph-name="t" unicode="t" horiz-adv-x="341" 
d="M9 490v36l97 14l13 126l84 12v-138h128v-50h-128v-357q0 -34 1 -46.5t4 -20.5q3 -7 11 -9.5t26 -2.5h70v-29q-48 -18 -84.5 -26.5t-58.5 -8.5q-45 0 -58 37q-4 12 -6 31t-2 56v376h-97z" />
    <glyph glyph-name="u" unicode="u" horiz-adv-x="633" 
d="M193 540v-283q0 -64 3.5 -96.5t12.5 -50.5q11 -24 33 -36.5t51 -12.5q27 0 52 10t44 27q41 37 45 115v267l-87 19v41h184v-480l77 -19v-41l-155 -10l-11 110h-4q-29 -51 -79 -80.5t-107 -29.5q-38 0 -69.5 14.5t-49.5 39.5q-19 28 -28 79t-9 136v221l-67 19v41h164z" />
    <glyph glyph-name="v" unicode="v" horiz-adv-x="593" 
d="M348 -10h-103l-178 490l-56 19v41h224v-41l-66 -19l141 -419h4l141 419l-62 19v41h190v-41l-58 -19z" />
    <glyph glyph-name="w" unicode="w" horiz-adv-x="877" 
d="M168 480l103 -360l12 -59h5l12 59l117 430h72l121 -430l12 -59h4l12 59l100 360l-65 19v41h190v-41l-54 -19l-149 -490h-103l-119 390l-116 -390h-103l-153 490l-53 19v41h224v-41z" />
    <glyph glyph-name="x" unicode="x" horiz-adv-x="573" 
d="M181 480l122 -159l117 159l-60 19v41h188v-41l-57 -19l-162 -193l177 -228l55 -18v-41h-219v41l57 19l-129 166l-124 -166l60 -19v-41h-188v41l56 19l170 200l-170 220l-56 19v41h207v-41z" />
    <glyph glyph-name="y" unicode="y" horiz-adv-x="590" 
d="M514 480l-166 -456q-28 -77 -51 -124.5t-51 -68.5t-72 -21q-47 0 -80.5 25t-33.5 63q0 28 16 46.5t42 18.5q23 0 36.5 -12.5t13.5 -34.5q0 -14 -5.5 -27t-14.5 -23q2 -10 12 -13.5t17 -3.5q14 0 26 7t25.5 29.5t29.5 70.5l12 37l-207 487l-60 19v41h224l8 -41l-71 -19
l149 -392h4l126 392l-58 19v41h190v-41z" />
    <glyph glyph-name="z" unicode="z" horiz-adv-x="538" 
d="M410 56l20 136h57v-192h-443v56l328 428h-234l-24 -131h-57v187h426v-56l-328 -428h255z" />
    <glyph glyph-name="braceleft" unicode="{" horiz-adv-x="404" 
d="M6 327v59h34q55 0 80 27t25 85q0 19 -1.5 51.5t-3.5 66t-2 51.5q0 91 58.5 136.5t183.5 51.5v-60q-81 -5 -114.5 -31t-33.5 -85q0 -9 0.5 -28.5t1.5 -43t1.5 -45t0.5 -33.5q0 -69 -25.5 -108t-83.5 -59v-5q59 -13 84 -52.5t25 -119.5q0 -14 -0.5 -37t-1.5 -47.5t-1.5 -45
t-0.5 -29.5q0 -59 34 -85.5t114 -30.5v-60q-125 6 -183.5 51.5t-58.5 137.5q0 14 1 37.5t2.5 50t2.5 50t1 37.5q0 59 -24.5 86t-80.5 27h-34z" />
    <glyph glyph-name="bar" unicode="|" horiz-adv-x="245" 
d="M94 -170v940h57v-940h-57z" />
    <glyph glyph-name="braceright" unicode="}" horiz-adv-x="404" 
d="M398 386v-59h-34q-55 0 -80 -27t-25 -86q0 -14 1 -37.5t2.5 -50t2.5 -50t1 -37.5q0 -92 -58.5 -137.5t-183.5 -51.5v60q80 4 114 30.5t34 85.5q0 9 -0.5 29.5t-1.5 45t-1.5 47.5t-0.5 37q0 80 25.5 119.5t83.5 52.5v5q-58 20 -83.5 59t-25.5 108q0 12 0.5 33.5t1.5 45
t1.5 43t0.5 28.5q0 59 -33.5 85t-114.5 31v60q125 -6 183.5 -51.5t58.5 -136.5q0 -18 -1.5 -51.5t-3.5 -66t-2 -51.5q0 -58 25 -85t80 -27h34z" />
    <glyph glyph-name="asciitilde" unicode="~" horiz-adv-x="485" 
d="M76 304q15 115 97 115q34 0 56.5 -13.5t42 -27.5t43.5 -14q45 0 54 50h45q-16 -121 -97 -121q-33 0 -56 14t-42.5 28t-43.5 14q-44 0 -54 -45h-45z" />
    <glyph glyph-name="uni00A0" unicode="&#xa0;" horiz-adv-x="254" 
 />
    <glyph glyph-name="exclamdown" unicode="&#xa1;" horiz-adv-x="265" 
d="M104 335h56q0 -39 2 -82.5t4.5 -85.5t5.5 -75.5t4 -51.5q3 -37 8 -73t5 -78q0 -32 -12 -55.5t-43 -23.5q-30 0 -44.5 22.5t-14.5 57.5q0 41 5 77t8 73q2 18 4.5 51.5t5 75.5t4.5 85.5t2 82.5zM194 488q0 -29 -16.5 -46t-45.5 -17t-45.5 17.5t-16.5 45.5q0 29 17 45.5
t46 16.5t45 -16t16 -46z" />
    <glyph glyph-name="cent" unicode="&#xa2;" horiz-adv-x="551" 
d="M266 -108v99q-126 9 -179 111q-36 67 -36 162q0 117 57.5 193t157.5 90v105h47v-102q86 -1 140 -43.5t54 -113.5q0 -37 -15.5 -56.5t-46.5 -19.5q-28 0 -44.5 16t-16.5 43q0 25 13.5 43t36.5 25q-16 29 -46.5 42t-74.5 13v-442q46 0 88 20t72 57l30 -24q-37 -56 -83 -85
t-107 -34v-99h-47zM182 134q14 -28 35 -45.5t49 -25.5v430q-58 -14 -84 -66.5t-26 -147.5q0 -49 6.5 -84.5t19.5 -60.5z" />
    <glyph glyph-name="sterling" unicode="&#xa3;" horiz-adv-x="606" 
d="M75 326v63h124q-21 44 -30.5 78t-9.5 65q0 79 54 124t148 45q81 0 128 -33.5t47 -91.5q0 -31 -14 -49.5t-40 -18.5q-23 0 -38 14t-15 36q0 17 10 33t26 24q-16 21 -39.5 30.5t-61.5 9.5q-61 0 -89.5 -24t-28.5 -76q0 -31 10 -72t32 -94h173v-63h-154q5 -30 7 -48t2 -33
q0 -28 -5.5 -58t-16.5 -61q55 -29 85 -40t56 -11q35 0 54.5 16.5t27.5 53.5h45q-11 -82 -39.5 -118.5t-80.5 -36.5q-20 0 -41 7t-52 25.5t-82 53.5q-60 -86 -134 -86q-44 0 -71 24.5t-27 64.5q0 29 13.5 50.5t38 33.5t56.5 12q21 0 48 -4.5t49 -12.5q3 12 4.5 30t1.5 37
q0 29 -4 52.5t-15 48.5h-152zM138 41q51 0 77 66q-16 8 -37.5 13t-36.5 5q-22 0 -35 -12t-13 -32q0 -40 45 -40z" />
    <glyph glyph-name="currency" unicode="&#xa4;" horiz-adv-x="568" 
d="M286 178q-53 0 -93 22t-62.5 61t-22.5 90q0 50 23.5 89.5t64 62.5t90.5 23q53 0 93.5 -22t63 -61t22.5 -90q0 -49 -24 -89t-64.5 -63t-90.5 -23zM290 233q47 0 76 32.5t29 85.5t-31 85.5t-81 32.5q-46 0 -75.5 -33t-29.5 -85q0 -50 31.5 -84t80.5 -34zM174 429l-99 108
l34 33l107 -99zM397 429l-42 42l107 99l34 -33zM164 284l42 -42l-107 -99l-34 33zM407 284l99 -108l-34 -33l-107 99z" />
    <glyph glyph-name="yen" unicode="&#xa5;" horiz-adv-x="744" 
d="M157 283v58h129l-173 315l-83 21v43h276v-43l-84 -21l169 -315h5l172 315l-81 21v43h227v-43l-82 -21l-172 -315h125v-58h-157v-79h157v-59h-157v-81l94 -21v-43h-288v43l94 21v81h-171v59h171v62l-10 17h-161z" />
    <glyph glyph-name="brokenbar" unicode="&#xa6;" horiz-adv-x="249" 
d="M96 -170v418h57v-418h-57zM96 368v402h57v-402h-57z" />
    <glyph glyph-name="section" unicode="&#xa7;" horiz-adv-x="530" 
d="M482 250q0 -52 -25.5 -91.5t-69.5 -62.5q55 -49 55 -121q0 -78 -52 -121.5t-144 -43.5q-82 0 -129 33.5t-47 91.5q0 32 14.5 50t39.5 18q23 0 38 -14t15 -36q0 -19 -10 -34.5t-26 -22.5q15 -21 38.5 -30.5t62.5 -9.5q61 0 89.5 22.5t28.5 70.5q0 35 -14 56.5t-41.5 38.5
t-70.5 38q-46 23 -88.5 50t-70 65t-27.5 93q0 52 25.5 91.5t68.5 62.5q-28 25 -41 54t-13 66q0 79 52 122.5t144 43.5q82 0 129 -33.5t47 -91.5q0 -31 -14 -49.5t-40 -18.5q-23 0 -38 14t-15 36q0 18 10 34t26 23q-16 21 -39.5 30.5t-62.5 9.5q-60 0 -88.5 -22.5
t-28.5 -69.5q0 -35 15 -57.5t43.5 -39.5t67.5 -37q47 -23 89.5 -50t69.5 -64.5t27 -93.5zM253 377q-10 5 -29.5 15t-44.5 25q-20 -12 -32 -40.5t-12 -58.5q0 -32 15 -58.5t46.5 -49.5t80.5 -48l28 -14t50 -27q20 15 30 43t10 57q0 34 -14.5 59.5t-46 48.5t-81.5 48z" />
    <glyph glyph-name="dieresis" unicode="&#xa8;" horiz-adv-x="407" 
d="M30 705q0 28 15.5 43.5t42.5 15.5t43 -16t16 -43t-15.5 -42.5t-43.5 -15.5q-27 0 -42.5 15.5t-15.5 42.5zM260 705q0 28 15.5 43.5t42.5 15.5t43 -16t16 -43t-15.5 -42.5t-43.5 -15.5q-27 0 -42.5 15.5t-15.5 42.5z" />
    <glyph glyph-name="copyright" unicode="&#xa9;" horiz-adv-x="842" 
d="M422 -10q-78 0 -145.5 28.5t-117.5 79t-78.5 118t-28.5 145.5t28 145t78.5 117.5t118 78.5t145.5 28t145 -28t117 -78.5t78 -117.5t28 -145t-28 -145.5t-78.5 -118t-117 -79t-144.5 -28.5zM422 30q69 0 128 25t102.5 70t68 105.5t24.5 130.5t-24.5 130t-68 104.5
t-102.5 69.5t-128 25t-128 -24.5t-102.5 -69.5t-68 -104.5t-24.5 -130.5t24.5 -131.5t68 -105t102.5 -69.5t128 -25zM419 525q-52 0 -75 -32q-16 -21 -25 -53.5t-9 -70.5q0 -35 8 -66t22 -53t35 -32.5t51 -10.5q47 0 74.5 23t35.5 67h29q-12 -65 -47.5 -96.5t-97.5 -31.5
q-71 0 -115 42q-28 27 -43.5 66t-15.5 83q0 50 19 94.5t53 71.5q20 17 46 25t60 8q32 0 52.5 -8.5t41.5 -30.5l10 33h29v-121h-32q-7 47 -34 70t-72 23z" />
    <glyph glyph-name="ordfeminine" unicode="&#xaa;" horiz-adv-x="371" 
d="M54 492q0 43 39.5 67.5t129.5 38.5q-6 57 -16 75q-7 14 -19.5 21t-26.5 7q-16 0 -28.5 -5.5t-16.5 -15.5q8 -4 11.5 -11.5t3.5 -13.5q0 -14 -10.5 -22t-26.5 -8q-13 0 -21.5 8.5t-8.5 24.5q0 23 17 39t42.5 24.5t51.5 8.5q23 0 42 -6.5t32 -20.5q17 -17 25.5 -47t8.5 -74
v-80q0 -27 3.5 -37.5t15.5 -10.5h25v-16q-19 -8 -35 -12t-27 -4q-20 0 -26 12.5t-6 47.5h-4q-16 -28 -42.5 -44t-57.5 -16q-35 0 -55 18.5t-20 51.5zM157 459q12 0 26 6.5t24 18.5q8 10 12.5 24t4.5 33q0 9 -0.5 18t-1.5 17q-61 -13 -83.5 -28.5t-22.5 -44.5q0 -44 41 -44z
" />
    <glyph glyph-name="guillemotleft" unicode="&#xab;" horiz-adv-x="535" 
d="M141 255l133 -201l-34 -33l-199 215v34l199 215l33 -27zM352 255l133 -201l-34 -33l-199 215v34l199 215l33 -27z" />
    <glyph glyph-name="logicalnot" unicode="&#xac;" horiz-adv-x="576" 
d="M74 328v70h424v-209h-60v139h-364z" />
    <glyph glyph-name="registered" unicode="&#xae;" horiz-adv-x="628" 
d="M314 230q-71 0 -127.5 33t-89.5 90t-33 128q0 72 33 128.5t89.5 88.5t127.5 32t127.5 -32t89.5 -88.5t33 -128.5q0 -71 -33 -128t-89.5 -90t-127.5 -33zM314 267q98 0 153 58.5t55 155.5t-55 154.5t-153 57.5q-96 0 -152 -57.5t-56 -154.5t56 -155.5t152 -58.5zM386 492
q-7 -5 -15.5 -8.5t-20.5 -5.5q4 -5 7.5 -10t6.5 -10l47 -80l32 -7v-15h-79v15l-51 100h-38v-92l43 -8v-15h-114v15l30 8v211l-30 8v15h128q41 0 63 -22q9 -9 13.5 -20.5t4.5 -24.5q0 -15 -7 -29.5t-20 -24.5zM275 497h46q11 0 20 3.5t15 10.5q5 6 8.5 14.5t3.5 18.5
q0 11 -3 19.5t-11 13.5q-6 5 -14.5 7.5t-20.5 2.5h-44v-90z" />
    <glyph glyph-name="macron" unicode="&#xaf;" horiz-adv-x="329" 
d="M25 665v65h279v-65h-279z" />
    <glyph glyph-name="degree" unicode="&#xb0;" horiz-adv-x="361" 
d="M181 458q-60 0 -97 37.5t-37 97.5q0 39 17.5 70t48 49t68.5 18q59 0 96.5 -37.5t37.5 -97.5q0 -39 -17.5 -70t-48 -49t-68.5 -18zM183 494q37 0 59.5 27.5t22.5 71.5t-24 72t-62 28q-36 0 -59 -27.5t-23 -71.5q0 -43 24.5 -71.5t61.5 -28.5z" />
    <glyph glyph-name="plusminus" unicode="&#xb1;" horiz-adv-x="522" 
d="M72 367v58h160v155h58v-155h160v-58h-160v-155h-58v155h-160zM72 67v58h378v-58h-378z" />
    <glyph glyph-name="uni00B2" unicode="&#xb2;" horiz-adv-x="318" 
d="M97 449h129l11 52h28v-100h-217v30q0 28 16 50.5t40 42.5t48 39.5t40 41.5t16 49q0 21 -16 32.5t-45 11.5q-18 0 -31 -4t-21.5 -12t-11.5 -20q14 0 22 -7t8 -20t-7.5 -20.5t-21.5 -7.5q-16 0 -23.5 9t-7.5 28q0 39 28.5 62.5t74.5 23.5q47 0 76 -23.5t29 -63.5
q0 -32 -16.5 -55.5t-41 -41.5t-49 -33t-41 -30t-16.5 -34z" />
    <glyph glyph-name="uni00B3" unicode="&#xb3;" horiz-adv-x="316" 
d="M258 646q0 -30 -18 -49.5t-50 -24.5v-4q73 -14 73 -77q0 -42 -31 -68t-81 -26q-46 0 -74.5 23t-28.5 61q0 20 7.5 29.5t23.5 9.5q13 0 20.5 -7.5t7.5 -20.5t-7 -20t-18 -7q4 -17 19.5 -26.5t41.5 -9.5q32 0 47.5 13.5t15.5 41.5q0 32 -20.5 51t-56.5 19v30q34 0 55 18.5
t21 48.5q0 24 -15 36.5t-44 12.5q-25 0 -42 -9t-20 -24q14 0 22 -7t8 -20t-8 -20.5t-21 -7.5q-16 0 -24.5 10.5t-8.5 29.5q0 35 28 56.5t74 21.5q47 0 75.5 -23t28.5 -61z" />
    <glyph glyph-name="acute" unicode="&#xb4;" horiz-adv-x="259" 
d="M40 639l49 76q29 45 46.5 62.5t38.5 17.5t33 -8.5t12 -26.5q0 -15 -20.5 -36.5t-67.5 -56.5l-38 -28h-53z" />
    <glyph glyph-name="uni03BC" unicode="&#xb5;" horiz-adv-x="668" 
d="M113 -179v659l-67 19v41h164v-283q0 -64 3.5 -96.5t12.5 -50.5q11 -24 32.5 -36.5t51.5 -12.5q54 0 96 37q21 20 31.5 46.5t13.5 68.5v267l-87 19v41h184v-480l77 -19v-41l-155 -10l-11 110h-4q-32 -52 -74.5 -81t-88.5 -29q-35 0 -57.5 17.5t-30.5 51.5h-4l10 -238h-97z
" />
    <glyph glyph-name="paragraph" unicode="&#xb6;" horiz-adv-x="678" 
d="M484 -96v702h-70v-702h-70v299h-66q-121 0 -184 58.5t-63 170.5q0 115 64 176.5t182 61.5h361v-43l-84 -21v-702h-70z" />
    <glyph glyph-name="periodcentered" unicode="&#xb7;" horiz-adv-x="260" 
d="M67 298q0 30 17 47.5t46 17.5t46.5 -18t17.5 -47t-17.5 -46t-46.5 -17q-30 0 -46.5 16.5t-16.5 46.5z" />
    <glyph glyph-name="cedilla" unicode="&#xb8;" horiz-adv-x="254" 
d="M116 -210q-53 0 -91 28l27 37q29 -20 59 -20q21 0 34 10t13 26q0 15 -14 22.5t-40 7.5q-11 0 -21 -1.5t-21 -4.5l-13 22l77 100h44l-46 -76l1 -3q56 0 80 -16t24 -48q0 -40 -33 -62t-80 -22z" />
    <glyph glyph-name="uni00B9" unicode="&#xb9;" horiz-adv-x="297" 
d="M128 427v242h-60v31q16 0 41 5t32 15h39v-293l48 -9v-26h-160v26z" />
    <glyph glyph-name="ordmasculine" unicode="&#xba;" horiz-adv-x="369" 
d="M320 579q0 -35 -10.5 -67.5t-30.5 -53.5q-16 -18 -40 -27t-56 -9q-31 0 -54.5 9t-39.5 26q-19 20 -29 50.5t-10 64.5q0 36 11 68.5t30 53.5q33 36 95 36q30 0 54.5 -9t40.5 -26q19 -20 29 -50.5t10 -65.5zM114 578q0 -59 20 -93q8 -15 20 -22t31 -7q33 0 52 25t19 93
q0 29 -5 53t-15 40q-9 15 -21.5 22t-30.5 7q-17 0 -29.5 -6t-20.5 -19q-10 -16 -15 -39.5t-5 -53.5z" />
    <glyph glyph-name="guillemotright" unicode="&#xbb;" horiz-adv-x="535" 
d="M50 54l133 201l-132 203l33 27l199 -215v-34l-199 -215zM261 54l133 201l-132 203l33 27l199 -215v-34l-199 -215z" />
    <glyph glyph-name="onequarter" unicode="&#xbc;" horiz-adv-x="611" 
d="M92 -10l386 740h54l-386 -740h-54zM108 427v242h-60v31q16 0 41 5t32 15h39v-293l48 -9v-26h-160v26zM475 34v58h-131l-5 31l136 205h52v-203h49l-4 -33h-45v-58l35 -9v-25h-137v25zM475 272l-96 -147h96v147z" />
    <glyph glyph-name="onehalf" unicode="&#xbd;" horiz-adv-x="641" 
d="M92 -10l386 740h54l-386 -740h-54zM108 427v242h-60v31q16 0 41 5t32 15h39v-293l48 -9v-26h-160v26zM428 48h129l11 52h28v-100h-217v30q0 28 16 50.5t40 42.5t48 39.5t40 41.5t16 49q0 21 -16 32.5t-45 11.5q-18 0 -31 -4t-21.5 -12t-11.5 -20q14 0 22 -7t8 -20
t-7.5 -20.5t-21.5 -7.5q-16 0 -23.5 9t-7.5 28q0 39 28.5 62.5t74.5 23.5q47 0 76 -23.5t29 -63.5q0 -32 -16.5 -55.5t-41 -41.5t-49 -33t-41 -30t-16.5 -34z" />
    <glyph glyph-name="threequarters" unicode="&#xbe;" horiz-adv-x="623" 
d="M104 -10l386 740h54l-386 -740h-54zM487 34v58h-131l-5 31l136 205h52v-203h49l-4 -33h-45v-58l35 -9v-25h-137v25zM487 272l-96 -147h96v147zM252 646q0 -30 -18 -49.5t-50 -24.5v-4q73 -14 73 -77q0 -42 -31 -68t-81 -26q-46 0 -74.5 23t-28.5 61q0 20 7.5 29.5
t23.5 9.5q13 0 20.5 -7.5t7.5 -20.5t-7 -20t-18 -7q4 -17 19.5 -26.5t41.5 -9.5q32 0 47.5 13.5t15.5 41.5q0 32 -20.5 51t-56.5 19v30q34 0 55 18.5t21 48.5q0 24 -15 36.5t-44 12.5q-25 0 -42 -9t-20 -24q14 0 22 -7t8 -20t-8 -20.5t-21 -7.5q-16 0 -24.5 10.5t-8.5 29.5
q0 35 28 56.5t74 21.5q47 0 75.5 -23t28.5 -61z" />
    <glyph glyph-name="questiondown" unicode="&#xbf;" horiz-adv-x="476" 
d="M241 336h56q0 -41 -9 -72.5t-31.5 -63t-62.5 -71.5q-35 -35 -50 -67t-15 -72q0 -60 30.5 -92.5t86.5 -32.5q40 0 71.5 14.5t31.5 34.5q-20 11 -31.5 30.5t-11.5 41.5q0 28 18.5 46t47.5 18q32 0 52.5 -24.5t20.5 -62.5q0 -43 -27.5 -77.5t-75 -55t-105.5 -20.5
q-62 0 -109 22t-73.5 61.5t-26.5 90.5q0 45 21.5 84t73.5 86q47 43 72.5 72.5t35.5 54.5t10 55zM331 489q0 -29 -17 -46t-45 -17q-29 0 -45.5 17t-16.5 46t16 45.5t45 16.5t46 -16.5t17 -45.5z" />
    <glyph glyph-name="Agrave" unicode="&#xc0;" horiz-adv-x="721" 
d="M532 64l-59 178h-268l-61 -178l83 -21v-43h-234v43l82 21l240 666h93l237 -666l80 -21v-43h-275v43zM342 641l-117 -341h229l-108 341h-4zM347 847l61 -77h-53l-47 29q-25 16 -41.5 26.5t-24 20t-7.5 19.5q0 14 10 22t27 8q13 0 24.5 -4.5t24 -15t26.5 -28.5z" />
    <glyph glyph-name="Aacute" unicode="&#xc1;" horiz-adv-x="721" 
d="M532 64l-59 178h-268l-61 -178l83 -21v-43h-234v43l82 21l240 666h93l237 -666l80 -21v-43h-275v43zM342 641l-117 -341h229l-108 341h-4zM335 770l61 77q14 18 26.5 28.5t24.5 15t24 4.5q17 0 27 -8t10 -22q0 -10 -7.5 -19.5t-23.5 -20t-42 -26.5l-47 -29h-53z" />
    <glyph glyph-name="Acircumflex" unicode="&#xc2;" horiz-adv-x="721" 
d="M532 64l-59 178h-268l-61 -178l83 -21v-43h-234v43l82 21l240 666h93l237 -666l80 -21v-43h-275v43zM342 641l-117 -341h229l-108 341h-4zM528 769l-119 121h-95l-118 -121h53l113 61l113 -61h53z" />
    <glyph glyph-name="Atilde" unicode="&#xc3;" horiz-adv-x="721" 
d="M532 64l-59 178h-268l-61 -178l83 -21v-43h-234v43l82 21l240 666h93l237 -666l80 -21v-43h-275v43zM342 641l-117 -341h229l-108 341h-4zM178 770q8 58 36 86.5t76 28.5q26 0 44.5 -8.5t34.5 -19t32 -19t35 -8.5q30 0 45 13t20 37h45q-18 -121 -112 -121q-25 0 -44 8.5
t-35 19.5t-31.5 19.5t-35.5 8.5q-30 0 -45 -12t-20 -33h-45z" />
    <glyph glyph-name="Adieresis" unicode="&#xc4;" horiz-adv-x="721" 
d="M532 64l-59 178h-268l-61 -178l83 -21v-43h-234v43l82 21l240 666h93l237 -666l80 -21v-43h-275v43zM342 641l-117 -341h229l-108 341h-4zM189 828q0 28 15.5 43.5t42.5 15.5t43 -16t16 -43t-15.5 -42.5t-43.5 -15.5q-27 0 -42.5 15.5t-15.5 42.5zM419 828
q0 28 15.5 43.5t42.5 15.5t43 -16t16 -43t-15.5 -42.5t-43.5 -15.5q-27 0 -42.5 15.5t-15.5 42.5z" />
    <glyph glyph-name="Aring" unicode="&#xc5;" horiz-adv-x="721" 
d="M532 64l-59 178h-268l-61 -178l83 -21v-43h-234v43l82 21l240 666h93l237 -666l80 -21v-43h-275v43zM342 641l-117 -341h229l-108 341h-4zM287 824q0 32 22 54t53 22q32 0 54 -22t22 -54q0 -31 -22 -52.5t-54 -21.5q-31 0 -53 21.5t-22 52.5zM341 824q0 -9 6 -15t15 -6
q10 0 16.5 6t6.5 15q0 10 -6.5 16.5t-16.5 6.5q-9 0 -15 -6.5t-6 -16.5z" />
    <glyph glyph-name="AE" unicode="&#xc6;" horiz-adv-x="1057" 
d="M844 238h-51l-18 102h-166v-280h302l31 163h58v-223h-585v43l94 21v178h-252l-98 -178l79 -21v-43h-247v43l94 21l337 602l-84 11v43h640v-212h-52l-32 154h-285v-262h166l18 102h51v-264zM509 656l-23 3l-197 -359h220v356z" />
    <glyph glyph-name="Ccedilla" unicode="&#xc7;" horiz-adv-x="684" 
d="M371 676q-49 0 -83.5 -15t-58.5 -47q-30 -39 -47 -102.5t-17 -139.5q0 -71 15 -133t42 -104t65.5 -61.5t96.5 -19.5q180 0 209 169h55q-45 -233 -274 -233q-138 0 -220 80q-49 48 -75 121t-26 162q0 101 33 183t93 131q76 63 201 63q62 0 101 -16t77 -57l20 63h55v-221
h-61q-14 88 -64.5 132.5t-136.5 44.5zM354 -210q-53 0 -91 28l27 37q29 -20 59 -20q21 0 34 10t13 26q0 15 -14 22.5t-40 7.5q-11 0 -21 -1.5t-21 -4.5l-13 22l77 100h44l-46 -76l1 -3q56 0 80 -16t24 -48q0 -40 -33 -62t-80 -22z" />
    <glyph glyph-name="Egrave" unicode="&#xc8;" horiz-adv-x="685" 
d="M472 238h-51l-18 102h-166v-280h302l31 163h58v-223h-585v43l94 21v592l-94 21v43h563v-212h-52l-32 154h-285v-262h166l18 102h51v-264zM354 847l61 -77h-53l-47 29q-25 16 -41.5 26.5t-24 20t-7.5 19.5q0 14 10 22t27 8q13 0 24.5 -4.5t24 -15t26.5 -28.5z" />
    <glyph glyph-name="Eacute" unicode="&#xc9;" horiz-adv-x="685" 
d="M472 238h-51l-18 102h-166v-280h302l31 163h58v-223h-585v43l94 21v592l-94 21v43h563v-212h-52l-32 154h-285v-262h166l18 102h51v-264zM319 770l61 77q14 18 26.5 28.5t24.5 15t24 4.5q17 0 27 -8t10 -22q0 -10 -7.5 -19.5t-23.5 -20t-42 -26.5l-47 -29h-53z" />
    <glyph glyph-name="Ecircumflex" unicode="&#xca;" horiz-adv-x="685" 
d="M472 238h-51l-18 102h-166v-280h302l31 163h58v-223h-585v43l94 21v592l-94 21v43h563v-212h-52l-32 154h-285v-262h166l18 102h51v-264zM512 769l-119 121h-95l-118 -121h53l113 61l113 -61h53z" />
    <glyph glyph-name="Edieresis" unicode="&#xcb;" horiz-adv-x="685" 
d="M472 238h-51l-18 102h-166v-280h302l31 163h58v-223h-585v43l94 21v592l-94 21v43h563v-212h-52l-32 154h-285v-262h166l18 102h51v-264zM173 828q0 28 15.5 43.5t42.5 15.5t43 -16t16 -43t-15.5 -42.5t-43.5 -15.5q-27 0 -42.5 15.5t-15.5 42.5zM403 828q0 28 15.5 43.5
t42.5 15.5t43 -16t16 -43t-15.5 -42.5t-43.5 -15.5q-27 0 -42.5 15.5t-15.5 42.5z" />
    <glyph glyph-name="Igrave" unicode="&#xcc;" horiz-adv-x="374" 
d="M237 656v-592l94 -21v-43h-288v43l94 21v592l-94 21v43h288v-43zM194 847l61 -77h-53l-47 29q-25 16 -41.5 26.5t-24 20t-7.5 19.5q0 14 10 22t27 8q13 0 24.5 -4.5t24 -15t26.5 -28.5z" />
    <glyph glyph-name="Iacute" unicode="&#xcd;" horiz-adv-x="374" 
d="M237 656v-592l94 -21v-43h-288v43l94 21v592l-94 21v43h288v-43zM160 770l61 77q14 18 26.5 28.5t24.5 15t24 4.5q17 0 27 -8t10 -22q0 -10 -7.5 -19.5t-23.5 -20t-42 -26.5l-47 -29h-53z" />
    <glyph glyph-name="Icircumflex" unicode="&#xce;" horiz-adv-x="374" 
d="M237 656v-592l94 -21v-43h-288v43l94 21v592l-94 21v43h288v-43zM353 769l-119 121h-95l-118 -121h53l113 61l113 -61h53z" />
    <glyph glyph-name="Idieresis" unicode="&#xcf;" horiz-adv-x="374" 
d="M237 656v-592l94 -21v-43h-288v43l94 21v592l-94 21v43h288v-43zM14 828q0 28 15.5 43.5t42.5 15.5t43 -16t16 -43t-15.5 -42.5t-43.5 -15.5q-27 0 -42.5 15.5t-15.5 42.5zM244 828q0 28 15.5 43.5t42.5 15.5t43 -16t16 -43t-15.5 -42.5t-43.5 -15.5q-27 0 -42.5 15.5
t-15.5 42.5z" />
    <glyph glyph-name="Eth" unicode="&#xd0;" horiz-adv-x="771" 
d="M53 330v67h84v259l-84 21v43h336q149 0 232 -84q47 -48 72 -118t25 -150q0 -84 -26.5 -157.5t-73.5 -123.5q-83 -87 -238 -87h-327v43l84 21v266h-84zM237 60h155q106 0 156 66q28 35 41.5 92t13.5 136q0 156 -55 232q-52 74 -166 74h-145v-263h127v-67h-127v-270z" />
    <glyph glyph-name="Ntilde" unicode="&#xd1;" horiz-adv-x="801" 
d="M132 64v592l-84 21v43h191l374 -553v489l-84 21v43h233v-43l-84 -21v-656h-71l-410 599v-535l84 -21v-43h-233v43zM216 770q8 58 36 86.5t76 28.5q26 0 44.5 -8.5t34.5 -19t32 -19t35 -8.5q30 0 45 13t20 37h45q-18 -121 -112 -121q-25 0 -44 8.5t-35 19.5t-31.5 19.5
t-35.5 8.5q-30 0 -45 -12t-20 -33h-45z" />
    <glyph glyph-name="Ograve" unicode="&#xd2;" horiz-adv-x="764" 
d="M711 368q0 -87 -26.5 -163.5t-73.5 -127.5q-41 -44 -98.5 -65.5t-132.5 -21.5q-76 0 -134 21t-97 63q-46 48 -71 120.5t-25 157.5q0 87 26.5 163.5t73.5 127.5q42 45 97.5 66t131.5 21t133.5 -20.5t98.5 -63.5q47 -48 72 -121t25 -157zM168 372q0 -83 14 -147.5
t40 -105.5q26 -37 65.5 -55.5t97.5 -18.5q106 0 156 66q27 37 41 98.5t14 144.5t-14 146t-41 102q-26 38 -66.5 56t-95.5 18q-53 0 -91.5 -16.5t-64.5 -49.5q-55 -73 -55 -238zM392 847l61 -77h-53l-47 29q-25 16 -41.5 26.5t-24 20t-7.5 19.5q0 14 10 22t27 8
q13 0 24.5 -4.5t24 -15t26.5 -28.5z" />
    <glyph glyph-name="Oacute" unicode="&#xd3;" horiz-adv-x="764" 
d="M711 368q0 -87 -26.5 -163.5t-73.5 -127.5q-41 -44 -98.5 -65.5t-132.5 -21.5q-76 0 -134 21t-97 63q-46 48 -71 120.5t-25 157.5q0 87 26.5 163.5t73.5 127.5q42 45 97.5 66t131.5 21t133.5 -20.5t98.5 -63.5q47 -48 72 -121t25 -157zM168 372q0 -83 14 -147.5
t40 -105.5q26 -37 65.5 -55.5t97.5 -18.5q106 0 156 66q27 37 41 98.5t14 144.5t-14 146t-41 102q-26 38 -66.5 56t-95.5 18q-53 0 -91.5 -16.5t-64.5 -49.5q-55 -73 -55 -238zM355 770l61 77q14 18 26.5 28.5t24.5 15t24 4.5q17 0 27 -8t10 -22q0 -10 -7.5 -19.5t-23.5 -20
t-42 -26.5l-47 -29h-53z" />
    <glyph glyph-name="Ocircumflex" unicode="&#xd4;" horiz-adv-x="764" 
d="M711 368q0 -87 -26.5 -163.5t-73.5 -127.5q-41 -44 -98.5 -65.5t-132.5 -21.5q-76 0 -134 21t-97 63q-46 48 -71 120.5t-25 157.5q0 87 26.5 163.5t73.5 127.5q42 45 97.5 66t131.5 21t133.5 -20.5t98.5 -63.5q47 -48 72 -121t25 -157zM168 372q0 -83 14 -147.5
t40 -105.5q26 -37 65.5 -55.5t97.5 -18.5q106 0 156 66q27 37 41 98.5t14 144.5t-14 146t-41 102q-26 38 -66.5 56t-95.5 18q-53 0 -91.5 -16.5t-64.5 -49.5q-55 -73 -55 -238zM548 769l-119 121h-95l-118 -121h53l113 61l113 -61h53z" />
    <glyph glyph-name="Otilde" unicode="&#xd5;" horiz-adv-x="764" 
d="M711 368q0 -87 -26.5 -163.5t-73.5 -127.5q-41 -44 -98.5 -65.5t-132.5 -21.5q-76 0 -134 21t-97 63q-46 48 -71 120.5t-25 157.5q0 87 26.5 163.5t73.5 127.5q42 45 97.5 66t131.5 21t133.5 -20.5t98.5 -63.5q47 -48 72 -121t25 -157zM168 372q0 -83 14 -147.5
t40 -105.5q26 -37 65.5 -55.5t97.5 -18.5q106 0 156 66q27 37 41 98.5t14 144.5t-14 146t-41 102q-26 38 -66.5 56t-95.5 18q-53 0 -91.5 -16.5t-64.5 -49.5q-55 -73 -55 -238zM198 770q8 58 36 86.5t76 28.5q26 0 44.5 -8.5t34.5 -19t32 -19t35 -8.5q30 0 45 13t20 37h45
q-18 -121 -112 -121q-25 0 -44 8.5t-35 19.5t-31.5 19.5t-35.5 8.5q-30 0 -45 -12t-20 -33h-45z" />
    <glyph glyph-name="Odieresis" unicode="&#xd6;" horiz-adv-x="764" 
d="M711 368q0 -87 -26.5 -163.5t-73.5 -127.5q-41 -44 -98.5 -65.5t-132.5 -21.5q-76 0 -134 21t-97 63q-46 48 -71 120.5t-25 157.5q0 87 26.5 163.5t73.5 127.5q42 45 97.5 66t131.5 21t133.5 -20.5t98.5 -63.5q47 -48 72 -121t25 -157zM168 372q0 -83 14 -147.5
t40 -105.5q26 -37 65.5 -55.5t97.5 -18.5q106 0 156 66q27 37 41 98.5t14 144.5t-14 146t-41 102q-26 38 -66.5 56t-95.5 18q-53 0 -91.5 -16.5t-64.5 -49.5q-55 -73 -55 -238zM209 828q0 28 15.5 43.5t42.5 15.5t43 -16t16 -43t-15.5 -42.5t-43.5 -15.5q-27 0 -42.5 15.5
t-15.5 42.5zM439 828q0 28 15.5 43.5t42.5 15.5t43 -16t16 -43t-15.5 -42.5t-43.5 -15.5q-27 0 -42.5 15.5t-15.5 42.5z" />
    <glyph glyph-name="multiply" unicode="&#xd7;" horiz-adv-x="506" 
d="M108 159l-48 48l145 145l-145 145l48 48l145 -145l145 145l48 -48l-145 -145l145 -145l-48 -48l-145 145z" />
    <glyph glyph-name="Oslash" unicode="&#xd8;" horiz-adv-x="761" 
d="M71 -10l526 740h71l-526 -740h-71zM709 368q0 -87 -26.5 -163.5t-73.5 -127.5q-41 -44 -98.5 -65.5t-132.5 -21.5q-76 0 -134 21t-97 63q-46 48 -71 120.5t-25 157.5q0 87 26.5 163.5t73.5 127.5q42 45 97.5 66t131.5 21t133.5 -20.5t98.5 -63.5q47 -48 72 -121t25 -157z
M166 372q0 -83 14 -147.5t40 -105.5q26 -37 65.5 -55.5t97.5 -18.5q106 0 156 66q27 37 41 98.5t14 144.5t-14 146t-41 102q-26 38 -66.5 56t-95.5 18q-53 0 -91.5 -16.5t-64.5 -49.5q-55 -73 -55 -238z" />
    <glyph glyph-name="Ugrave" unicode="&#xd9;" horiz-adv-x="772" 
d="M592 259v397l-84 21v43h231v-43l-84 -21v-413q0 -124 -67 -189t-196 -65q-133 0 -204.5 66.5t-71.5 188.5v412l-84 21v43h268v-43l-84 -21v-395q0 -217 198 -217q94 0 136 51t42 164zM414 847l61 -77h-53l-47 29q-25 16 -41.5 26.5t-24 20t-7.5 19.5q0 14 10 22t27 8
q13 0 24.5 -4.5t24 -15t26.5 -28.5z" />
    <glyph glyph-name="Uacute" unicode="&#xda;" horiz-adv-x="772" 
d="M592 259v397l-84 21v43h231v-43l-84 -21v-413q0 -124 -67 -189t-196 -65q-133 0 -204.5 66.5t-71.5 188.5v412l-84 21v43h268v-43l-84 -21v-395q0 -217 198 -217q94 0 136 51t42 164zM378 770l61 77q14 18 26.5 28.5t24.5 15t24 4.5q17 0 27 -8t10 -22q0 -10 -7.5 -19.5
t-23.5 -20t-42 -26.5l-47 -29h-53z" />
    <glyph glyph-name="Ucircumflex" unicode="&#xdb;" horiz-adv-x="772" 
d="M592 259v397l-84 21v43h231v-43l-84 -21v-413q0 -124 -67 -189t-196 -65q-133 0 -204.5 66.5t-71.5 188.5v412l-84 21v43h268v-43l-84 -21v-395q0 -217 198 -217q94 0 136 51t42 164zM571 769l-119 121h-95l-118 -121h53l113 61l113 -61h53z" />
    <glyph glyph-name="Udieresis" unicode="&#xdc;" horiz-adv-x="772" 
d="M592 259v397l-84 21v43h231v-43l-84 -21v-413q0 -124 -67 -189t-196 -65q-133 0 -204.5 66.5t-71.5 188.5v412l-84 21v43h268v-43l-84 -21v-395q0 -217 198 -217q94 0 136 51t42 164zM232 828q0 28 15.5 43.5t42.5 15.5t43 -16t16 -43t-15.5 -42.5t-43.5 -15.5
q-27 0 -42.5 15.5t-15.5 42.5zM462 828q0 28 15.5 43.5t42.5 15.5t43 -16t16 -43t-15.5 -42.5t-43.5 -15.5q-27 0 -42.5 15.5t-15.5 42.5z" />
    <glyph glyph-name="Yacute" unicode="&#xdd;" horiz-adv-x="678" 
d="M359 336l174 320l-81 21v43h227v-43l-82 -21l-204 -374v-218l94 -21v-43h-288v43l94 21v202l-215 390l-83 21v43h276v-43l-84 -21zM332 771l61 77q14 18 26.5 28.5t24.5 15t24 4.5q17 0 27 -8t10 -22q0 -10 -7.5 -19.5t-23.5 -20t-42 -26.5l-47 -29h-53z" />
    <glyph glyph-name="Thorn" unicode="&#xde;" horiz-adv-x="643" 
d="M386 148h-151v-84l95 -21v-43h-279v43l84 21v592l-95 21v43h279v-43l-84 -21v-81h152q56 0 98.5 -18t70.5 -49q26 -28 39 -65t13 -77q0 -42 -13 -80t-39 -67q-28 -32 -71 -51.5t-99 -19.5zM235 206h129q36 0 62.5 12.5t42.5 34.5q15 20 22 47.5t7 59.5q0 66 -34 109
q-17 22 -43 35t-61 13h-125v-311z" />
    <glyph glyph-name="germandbls" unicode="&#xdf;" horiz-adv-x="630" 
d="M353 424q0 23 17.5 44t61.5 49q42 26 59.5 53.5t17.5 67.5q0 70 -49 111t-133 41q-105 0 -165 -64t-60 -176v-490l-77 -19v-41h174v590q0 80 29.5 120t88.5 40q51 0 79 -29t28 -82q0 -36 -14 -61.5t-47 -50.5q-38 -28 -58 -47t-27 -37t-7 -42q0 -29 11 -51t40 -44.5
t84 -55.5q48 -29 72 -47t32 -34.5t8 -39.5q0 -44 -25.5 -68.5t-70.5 -24.5q-28 0 -51.5 9.5t-32.5 24.5q15 8 25.5 25.5t10.5 35.5q0 22 -16 36.5t-41 14.5q-26 0 -41 -17.5t-15 -48.5q0 -55 45 -90.5t114 -35.5q55 0 96.5 22.5t65 62.5t23.5 92q0 35 -12.5 61.5t-46.5 51.5
t-97 57q-39 20 -60 33.5t-28.5 26t-7.5 27.5z" />
    <glyph glyph-name="agrave" unicode="&#xe0;" horiz-adv-x="537" 
d="M38 117q0 78 73 123t242 70q-4 59 -11 92t-18 53q-14 26 -39 38.5t-54 12.5q-28 0 -50.5 -10t-30.5 -27q14 -10 20.5 -26t6.5 -30q0 -25 -16.5 -39.5t-40.5 -14.5t-39.5 16t-15.5 45q0 42 29 71t73.5 44t89.5 15q41 0 75.5 -12.5t58.5 -36.5q62 -62 62 -220v-145
q0 -49 6.5 -68t28.5 -19h45v-30q-72 -29 -112 -29q-31 0 -41.5 22.5t-10.5 86.5h-4q-31 -51 -82 -80t-110 -29q-63 0 -99 34t-36 93zM215 48q28 0 58.5 14.5t51.5 40.5q16 20 23.5 47.5t7.5 64.5q0 17 -1 33.5t-3 31.5q-81 -16 -127 -34.5t-65 -44t-19 -63.5
q0 -43 19.5 -66.5t54.5 -23.5zM255 715l49 -76h-53l-38 28q-47 35 -67.5 56.5t-20.5 36.5q0 18 12 26.5t33 8.5t39 -17.5t46 -62.5z" />
    <glyph glyph-name="aacute" unicode="&#xe1;" horiz-adv-x="537" 
d="M38 117q0 78 73 123t242 70q-4 59 -11 92t-18 53q-14 26 -39 38.5t-54 12.5q-28 0 -50.5 -10t-30.5 -27q14 -10 20.5 -26t6.5 -30q0 -25 -16.5 -39.5t-40.5 -14.5t-39.5 16t-15.5 45q0 42 29 71t73.5 44t89.5 15q41 0 75.5 -12.5t58.5 -36.5q62 -62 62 -220v-145
q0 -49 6.5 -68t28.5 -19h45v-30q-72 -29 -112 -29q-31 0 -41.5 22.5t-10.5 86.5h-4q-31 -51 -82 -80t-110 -29q-63 0 -99 34t-36 93zM215 48q28 0 58.5 14.5t51.5 40.5q16 20 23.5 47.5t7.5 64.5q0 17 -1 33.5t-3 31.5q-81 -16 -127 -34.5t-65 -44t-19 -63.5
q0 -43 19.5 -66.5t54.5 -23.5zM217 639l49 76q29 45 46.5 62.5t38.5 17.5t33 -8.5t12 -26.5q0 -15 -20.5 -36.5t-67.5 -56.5l-38 -28h-53z" />
    <glyph glyph-name="acircumflex" unicode="&#xe2;" horiz-adv-x="537" 
d="M38 117q0 78 73 123t242 70q-4 59 -11 92t-18 53q-14 26 -39 38.5t-54 12.5q-28 0 -50.5 -10t-30.5 -27q14 -10 20.5 -26t6.5 -30q0 -25 -16.5 -39.5t-40.5 -14.5t-39.5 16t-15.5 45q0 42 29 71t73.5 44t89.5 15q41 0 75.5 -12.5t58.5 -36.5q62 -62 62 -220v-145
q0 -49 6.5 -68t28.5 -19h45v-30q-72 -29 -112 -29q-31 0 -41.5 22.5t-10.5 86.5h-4q-31 -51 -82 -80t-110 -29q-63 0 -99 34t-36 93zM215 48q28 0 58.5 14.5t51.5 40.5q16 20 23.5 47.5t7.5 64.5q0 17 -1 33.5t-3 31.5q-81 -16 -127 -34.5t-65 -44t-19 -63.5
q0 -43 19.5 -66.5t54.5 -23.5zM390 639l-89 151h-95l-88 -151h53l83 91l83 -91h53z" />
    <glyph glyph-name="atilde" unicode="&#xe3;" horiz-adv-x="537" 
d="M38 117q0 78 73 123t242 70q-4 59 -11 92t-18 53q-14 26 -39 38.5t-54 12.5q-28 0 -50.5 -10t-30.5 -27q14 -10 20.5 -26t6.5 -30q0 -25 -16.5 -39.5t-40.5 -14.5t-39.5 16t-15.5 45q0 42 29 71t73.5 44t89.5 15q41 0 75.5 -12.5t58.5 -36.5q62 -62 62 -220v-145
q0 -49 6.5 -68t28.5 -19h45v-30q-72 -29 -112 -29q-31 0 -41.5 22.5t-10.5 86.5h-4q-31 -51 -82 -80t-110 -29q-63 0 -99 34t-36 93zM215 48q28 0 58.5 14.5t51.5 40.5q16 20 23.5 47.5t7.5 64.5q0 17 -1 33.5t-3 31.5q-81 -16 -127 -34.5t-65 -44t-19 -63.5
q0 -43 19.5 -66.5t54.5 -23.5zM60 639q8 58 36 86.5t76 28.5q26 0 44.5 -8.5t34.5 -19t32 -19t35 -8.5q30 0 45 13t20 37h45q-18 -121 -112 -121q-25 0 -44 8.5t-35 19.5t-31.5 19.5t-35.5 8.5q-30 0 -45 -12t-20 -33h-45z" />
    <glyph glyph-name="adieresis" unicode="&#xe4;" horiz-adv-x="537" 
d="M38 117q0 78 73 123t242 70q-4 59 -11 92t-18 53q-14 26 -39 38.5t-54 12.5q-28 0 -50.5 -10t-30.5 -27q14 -10 20.5 -26t6.5 -30q0 -25 -16.5 -39.5t-40.5 -14.5t-39.5 16t-15.5 45q0 42 29 71t73.5 44t89.5 15q41 0 75.5 -12.5t58.5 -36.5q62 -62 62 -220v-145
q0 -49 6.5 -68t28.5 -19h45v-30q-72 -29 -112 -29q-31 0 -41.5 22.5t-10.5 86.5h-4q-31 -51 -82 -80t-110 -29q-63 0 -99 34t-36 93zM215 48q28 0 58.5 14.5t51.5 40.5q16 20 23.5 47.5t7.5 64.5q0 17 -1 33.5t-3 31.5q-81 -16 -127 -34.5t-65 -44t-19 -63.5
q0 -43 19.5 -66.5t54.5 -23.5zM91 705q0 28 15.5 43.5t42.5 15.5t43 -16t16 -43t-15.5 -42.5t-43.5 -15.5q-27 0 -42.5 15.5t-15.5 42.5zM321 705q0 28 15.5 43.5t42.5 15.5t43 -16t16 -43t-15.5 -42.5t-43.5 -15.5q-27 0 -42.5 15.5t-15.5 42.5z" />
    <glyph glyph-name="aring" unicode="&#xe5;" horiz-adv-x="537" 
d="M38 117q0 78 73 123t242 70q-4 59 -11 92t-18 53q-14 26 -39 38.5t-54 12.5q-28 0 -50.5 -10t-30.5 -27q14 -10 20.5 -26t6.5 -30q0 -25 -16.5 -39.5t-40.5 -14.5t-39.5 16t-15.5 45q0 42 29 71t73.5 44t89.5 15q41 0 75.5 -12.5t58.5 -36.5q62 -62 62 -220v-145
q0 -49 6.5 -68t28.5 -19h45v-30q-72 -29 -112 -29q-31 0 -41.5 22.5t-10.5 86.5h-4q-31 -51 -82 -80t-110 -29q-63 0 -99 34t-36 93zM215 48q28 0 58.5 14.5t51.5 40.5q16 20 23.5 47.5t7.5 64.5q0 17 -1 33.5t-3 31.5q-81 -16 -127 -34.5t-65 -44t-19 -63.5
q0 -43 19.5 -66.5t54.5 -23.5zM181 713q0 36 24.5 61t59.5 25q36 0 61 -25t25 -61q0 -35 -25 -59.5t-61 -24.5q-35 0 -59.5 24.5t-24.5 59.5zM223 713q0 -18 12 -30t30 -12q19 0 31.5 12t12.5 30q0 19 -12.5 31.5t-31.5 12.5q-18 0 -30 -12.5t-12 -31.5z" />
    <glyph glyph-name="ae" unicode="&#xe6;" horiz-adv-x="836" 
d="M38 117q0 78 73 123t242 70q-4 59 -11 92t-18 53q-14 26 -39 38.5t-54 12.5q-28 0 -50.5 -10t-30.5 -27q14 -10 20.5 -26t6.5 -30q0 -25 -16.5 -39.5t-40.5 -14.5t-39.5 16t-15.5 45q0 42 29 71t73.5 44t89.5 15q50 0 92 -25.5t56 -77.5h5q20 51 66 77t103 26
q102 0 157.5 -63.5t55.5 -175.5q0 -10 -0.5 -18.5t-2.5 -28.5h-349q0 -37 5 -67.5t15 -53.5q20 -46 57 -66t80 -20q47 0 86 19.5t70 53.5l32 -24q-23 -32 -53 -58.5t-69 -42t-92 -15.5q-67 0 -118.5 27.5t-80.5 81.5h-7q-31 -51 -82 -80t-110 -29q-63 0 -99 34t-36 93z
M573 496q-60 0 -93 -46t-39 -137h250v33q0 72 -30.5 111t-87.5 39zM215 48q28 0 58.5 14.5t51.5 40.5q16 20 23.5 47.5t7.5 64.5q0 17 -1 33.5t-3 31.5q-81 -16 -127 -34.5t-65 -44t-19 -63.5q0 -43 19.5 -66.5t54.5 -23.5z" />
    <glyph glyph-name="ccedilla" unicode="&#xe7;" horiz-adv-x="536" 
d="M302 550q58 0 100.5 -19.5t66 -54.5t23.5 -82q0 -37 -15.5 -57t-46.5 -20q-28 0 -44.5 16t-16.5 43q0 25 13.5 43t36.5 25q-15 29 -42.5 42t-68.5 13q-82 0 -119.5 -53.5t-37.5 -166.5q0 -49 6.5 -84.5t19.5 -60.5q20 -37 53 -57t78 -20q46 0 88 20t72 57l30 -24
q-40 -61 -92 -90.5t-122 -29.5t-121.5 28.5t-80.5 83.5q-36 67 -36 162q0 87 31.5 151t89.5 99.5t135 35.5zM261 -210q-53 0 -91 28l27 37q29 -20 59 -20q21 0 34 10t13 26q0 15 -14 22.5t-40 7.5q-11 0 -21 -1.5t-21 -4.5l-13 22l77 100h44l-46 -76l1 -3q56 0 80 -16
t24 -48q0 -40 -33 -62t-80 -22z" />
    <glyph glyph-name="egrave" unicode="&#xe8;" horiz-adv-x="544" 
d="M497 264h-349q0 -73 20 -121q20 -46 57 -66t80 -20q47 0 86 19.5t70 53.5l32 -24q-35 -48 -85 -82t-129 -34q-69 0 -122 29.5t-81 86.5q-15 31 -22 69t-7 81q0 140 64.5 217t175.5 77q102 0 157.5 -63.5t55.5 -175.5q0 -10 -0.5 -18.5t-2.5 -28.5zM281 496
q-120 0 -132 -183h250v33q0 72 -30.5 111t-87.5 39zM291 715l49 -76h-53l-38 28q-47 35 -67.5 56.5t-20.5 36.5q0 18 12 26.5t33 8.5t39 -17.5t46 -62.5z" />
    <glyph glyph-name="eacute" unicode="&#xe9;" horiz-adv-x="544" 
d="M497 264h-349q0 -73 20 -121q20 -46 57 -66t80 -20q47 0 86 19.5t70 53.5l32 -24q-35 -48 -85 -82t-129 -34q-69 0 -122 29.5t-81 86.5q-15 31 -22 69t-7 81q0 140 64.5 217t175.5 77q102 0 157.5 -63.5t55.5 -175.5q0 -10 -0.5 -18.5t-2.5 -28.5zM281 496
q-120 0 -132 -183h250v33q0 72 -30.5 111t-87.5 39zM258 639l49 76q29 45 46.5 62.5t38.5 17.5t33 -8.5t12 -26.5q0 -15 -20.5 -36.5t-67.5 -56.5l-38 -28h-53z" />
    <glyph glyph-name="ecircumflex" unicode="&#xea;" horiz-adv-x="544" 
d="M497 264h-349q0 -73 20 -121q20 -46 57 -66t80 -20q47 0 86 19.5t70 53.5l32 -24q-35 -48 -85 -82t-129 -34q-69 0 -122 29.5t-81 86.5q-15 31 -22 69t-7 81q0 140 64.5 217t175.5 77q102 0 157.5 -63.5t55.5 -175.5q0 -10 -0.5 -18.5t-2.5 -28.5zM281 496
q-120 0 -132 -183h250v33q0 72 -30.5 111t-87.5 39zM430 639l-89 151h-95l-88 -151h53l83 91l83 -91h53z" />
    <glyph glyph-name="edieresis" unicode="&#xeb;" horiz-adv-x="544" 
d="M497 264h-349q0 -73 20 -121q20 -46 57 -66t80 -20q47 0 86 19.5t70 53.5l32 -24q-35 -48 -85 -82t-129 -34q-69 0 -122 29.5t-81 86.5q-15 31 -22 69t-7 81q0 140 64.5 217t175.5 77q102 0 157.5 -63.5t55.5 -175.5q0 -10 -0.5 -18.5t-2.5 -28.5zM281 496
q-120 0 -132 -183h250v33q0 72 -30.5 111t-87.5 39zM114 705q0 28 15.5 43.5t42.5 15.5t43 -16t16 -43t-15.5 -42.5t-43.5 -15.5q-27 0 -42.5 15.5t-15.5 42.5zM344 705q0 28 15.5 43.5t42.5 15.5t43 -16t16 -43t-15.5 -42.5t-43.5 -15.5q-27 0 -42.5 15.5t-15.5 42.5z" />
    <glyph glyph-name="igrave" unicode="&#xec;" horiz-adv-x="312" 
d="M113 480l-77 19v41h174v-480l77 -19v-41h-251v41l77 19v420zM140 715l49 -76h-53l-38 28q-47 35 -67.5 56.5t-20.5 36.5q0 18 12 26.5t33 8.5t39 -17.5t46 -62.5z" />
    <glyph glyph-name="iacute" unicode="&#xed;" horiz-adv-x="312" 
d="M113 480l-77 19v41h174v-480l77 -19v-41h-251v41l77 19v420zM134 639l49 76q29 45 46.5 62.5t38.5 17.5t33 -8.5t12 -26.5q0 -15 -20.5 -36.5t-67.5 -56.5l-38 -28h-53z" />
    <glyph glyph-name="icircumflex" unicode="&#xee;" horiz-adv-x="312" 
d="M113 480l-77 19v41h174v-480l77 -19v-41h-251v41l77 19v420zM297 639l-89 151h-95l-88 -151h53l83 91l83 -91h53z" />
    <glyph glyph-name="idieresis" unicode="&#xef;" horiz-adv-x="312" 
d="M113 480l-77 19v41h174v-480l77 -19v-41h-251v41l77 19v420zM-12 705q0 28 15.5 43.5t42.5 15.5t43 -16t16 -43t-15.5 -42.5t-43.5 -15.5q-27 0 -42.5 15.5t-15.5 42.5zM218 705q0 28 15.5 43.5t42.5 15.5t43 -16t16 -43t-15.5 -42.5t-43.5 -15.5q-27 0 -42.5 15.5
t-15.5 42.5z" />
    <glyph glyph-name="eth" unicode="&#xf0;" horiz-adv-x="569" 
d="M139 210q0 81 33.5 122t99.5 41t99.5 -41t33.5 -122q0 -82 -33.5 -123.5t-99.5 -41.5t-99.5 41.5t-33.5 123.5zM426 351h-4q-28 37 -75 58t-102 21q-63 0 -111 -27.5t-75 -76.5t-27 -115q0 -101 63.5 -161t172.5 -60q122 0 187.5 79t65.5 225q0 60 -13 113t-41 105
t-75 109l75 33l-25 48l-89 -39q-17 18 -30 31t-22.5 21.5t-18.5 14.5l-52 -19q18 -16 36 -35.5t31 -36.5l-121 -53l23 -51l133 58q40 -47 65 -110.5t29 -131.5z" />
    <glyph glyph-name="ntilde" unicode="&#xf1;" horiz-adv-x="655" 
d="M113 60v420l-77 19v41h144l22 -100h4q30 51 81 80.5t109 29.5q83 0 123 -54q20 -28 28.5 -78.5t8.5 -136.5v-221l77 -19v-41h-241v41l67 19v223q0 65 -3.5 97t-12.5 50q-12 24 -34.5 36.5t-53.5 12.5q-58 0 -100 -37q-41 -37 -45 -115v-267l67 -19v-41h-241v41zM163 639
q8 58 36 86.5t76 28.5q26 0 44.5 -8.5t34.5 -19t32 -19t35 -8.5q30 0 45 13t20 37h45q-18 -121 -112 -121q-25 0 -44 8.5t-35 19.5t-31.5 19.5t-35.5 8.5q-30 0 -45 -12t-20 -33h-45z" />
    <glyph glyph-name="ograve" unicode="&#xf2;" horiz-adv-x="582" 
d="M536 275q0 -65 -19.5 -123.5t-54.5 -96.5q-30 -33 -74 -49t-100 -16q-55 0 -98 15.5t-73 47.5q-34 37 -52.5 91.5t-18.5 118.5q0 65 19 124.5t55 97.5q32 34 74.5 49.5t97.5 15.5t99 -15.5t74 -47.5q35 -37 53 -92.5t18 -119.5zM153 274q0 -61 9.5 -105.5t26.5 -73.5
q17 -25 40.5 -39t61.5 -14q69 0 103 47q18 26 26.5 72t8.5 106t-9.5 105t-26.5 73q-16 26 -40.5 39.5t-62.5 13.5q-70 0 -101 -46q-36 -56 -36 -178zM270 715l49 -76h-53l-38 28q-47 35 -67.5 56.5t-20.5 36.5q0 18 12 26.5t33 8.5t39 -17.5t46 -62.5z" />
    <glyph glyph-name="oacute" unicode="&#xf3;" horiz-adv-x="582" 
d="M536 275q0 -65 -19.5 -123.5t-54.5 -96.5q-30 -33 -74 -49t-100 -16q-55 0 -98 15.5t-73 47.5q-34 37 -52.5 91.5t-18.5 118.5q0 65 19 124.5t55 97.5q32 34 74.5 49.5t97.5 15.5t99 -15.5t74 -47.5q35 -37 53 -92.5t18 -119.5zM153 274q0 -61 9.5 -105.5t26.5 -73.5
q17 -25 40.5 -39t61.5 -14q69 0 103 47q18 26 26.5 72t8.5 106t-9.5 105t-26.5 73q-16 26 -40.5 39.5t-62.5 13.5q-70 0 -101 -46q-36 -56 -36 -178zM264 639l49 76q29 45 46.5 62.5t38.5 17.5t33 -8.5t12 -26.5q0 -15 -20.5 -36.5t-67.5 -56.5l-38 -28h-53z" />
    <glyph glyph-name="ocircumflex" unicode="&#xf4;" horiz-adv-x="582" 
d="M536 275q0 -65 -19.5 -123.5t-54.5 -96.5q-30 -33 -74 -49t-100 -16q-55 0 -98 15.5t-73 47.5q-34 37 -52.5 91.5t-18.5 118.5q0 65 19 124.5t55 97.5q32 34 74.5 49.5t97.5 15.5t99 -15.5t74 -47.5q35 -37 53 -92.5t18 -119.5zM153 274q0 -61 9.5 -105.5t26.5 -73.5
q17 -25 40.5 -39t61.5 -14q69 0 103 47q18 26 26.5 72t8.5 106t-9.5 105t-26.5 73q-16 26 -40.5 39.5t-62.5 13.5q-70 0 -101 -46q-36 -56 -36 -178zM427 639l-89 151h-95l-88 -151h53l83 91l83 -91h53z" />
    <glyph glyph-name="otilde" unicode="&#xf5;" horiz-adv-x="582" 
d="M536 275q0 -65 -19.5 -123.5t-54.5 -96.5q-30 -33 -74 -49t-100 -16q-55 0 -98 15.5t-73 47.5q-34 37 -52.5 91.5t-18.5 118.5q0 65 19 124.5t55 97.5q32 34 74.5 49.5t97.5 15.5t99 -15.5t74 -47.5q35 -37 53 -92.5t18 -119.5zM153 274q0 -61 9.5 -105.5t26.5 -73.5
q17 -25 40.5 -39t61.5 -14q69 0 103 47q18 26 26.5 72t8.5 106t-9.5 105t-26.5 73q-16 26 -40.5 39.5t-62.5 13.5q-70 0 -101 -46q-36 -56 -36 -178zM107 639q8 58 36 86.5t76 28.5q26 0 44.5 -8.5t34.5 -19t32 -19t35 -8.5q30 0 45 13t20 37h45q-18 -121 -112 -121
q-25 0 -44 8.5t-35 19.5t-31.5 19.5t-35.5 8.5q-30 0 -45 -12t-20 -33h-45z" />
    <glyph glyph-name="odieresis" unicode="&#xf6;" horiz-adv-x="582" 
d="M536 275q0 -65 -19.5 -123.5t-54.5 -96.5q-30 -33 -74 -49t-100 -16q-55 0 -98 15.5t-73 47.5q-34 37 -52.5 91.5t-18.5 118.5q0 65 19 124.5t55 97.5q32 34 74.5 49.5t97.5 15.5t99 -15.5t74 -47.5q35 -37 53 -92.5t18 -119.5zM153 274q0 -61 9.5 -105.5t26.5 -73.5
q17 -25 40.5 -39t61.5 -14q69 0 103 47q18 26 26.5 72t8.5 106t-9.5 105t-26.5 73q-16 26 -40.5 39.5t-62.5 13.5q-70 0 -101 -46q-36 -56 -36 -178zM118 705q0 28 15.5 43.5t42.5 15.5t43 -16t16 -43t-15.5 -42.5t-43.5 -15.5q-27 0 -42.5 15.5t-15.5 42.5zM348 705
q0 28 15.5 43.5t42.5 15.5t43 -16t16 -43t-15.5 -42.5t-43.5 -15.5q-27 0 -42.5 15.5t-15.5 42.5z" />
    <glyph glyph-name="divide" unicode="&#xf7;" horiz-adv-x="555" 
d="M59 325v54h438v-54h-438zM222 174q0 29 15.5 45t43.5 16t44 -16.5t16 -44.5t-16 -43.5t-44 -15.5q-59 0 -59 59zM222 528q0 29 15.5 45t43.5 16t44 -16.5t16 -44.5t-16 -43.5t-44 -15.5q-59 0 -59 59z" />
    <glyph glyph-name="oslash" unicode="&#xf8;" horiz-adv-x="582" 
d="M96 -60l334 642h64l-334 -642h-64zM536 275q0 -65 -19.5 -123.5t-54.5 -96.5q-30 -33 -74 -49t-100 -16q-55 0 -98 15.5t-73 47.5q-34 37 -52.5 91.5t-18.5 118.5q0 65 19 124.5t55 97.5q32 34 74.5 49.5t97.5 15.5t99 -15.5t74 -47.5q35 -37 53 -92.5t18 -119.5z
M153 274q0 -61 9.5 -105.5t26.5 -73.5q17 -25 40.5 -39t61.5 -14q69 0 103 47q18 26 26.5 72t8.5 106t-9.5 105t-26.5 73q-16 26 -40.5 39.5t-62.5 13.5q-70 0 -101 -46q-36 -56 -36 -178z" />
    <glyph glyph-name="ugrave" unicode="&#xf9;" horiz-adv-x="633" 
d="M193 540v-283q0 -64 3.5 -96.5t12.5 -50.5q11 -24 33 -36.5t51 -12.5q27 0 52 10t44 27q41 37 45 115v267l-87 19v41h184v-480l77 -19v-41l-155 -10l-11 110h-4q-29 -51 -79 -80.5t-107 -29.5q-38 0 -69.5 14.5t-49.5 39.5q-19 28 -28 79t-9 136v221l-67 19v41h164z
M290 715l49 -76h-53l-38 28q-47 35 -67.5 56.5t-20.5 36.5q0 18 12 26.5t33 8.5t39 -17.5t46 -62.5z" />
    <glyph glyph-name="uacute" unicode="&#xfa;" horiz-adv-x="633" 
d="M193 540v-283q0 -64 3.5 -96.5t12.5 -50.5q11 -24 33 -36.5t51 -12.5q27 0 52 10t44 27q41 37 45 115v267l-87 19v41h184v-480l77 -19v-41l-155 -10l-11 110h-4q-29 -51 -79 -80.5t-107 -29.5q-38 0 -69.5 14.5t-49.5 39.5q-19 28 -28 79t-9 136v221l-67 19v41h164z
M284 639l49 76q29 45 46.5 62.5t38.5 17.5t33 -8.5t12 -26.5q0 -15 -20.5 -36.5t-67.5 -56.5l-38 -28h-53z" />
    <glyph glyph-name="ucircumflex" unicode="&#xfb;" horiz-adv-x="633" 
d="M193 540v-283q0 -64 3.5 -96.5t12.5 -50.5q11 -24 33 -36.5t51 -12.5q27 0 52 10t44 27q41 37 45 115v267l-87 19v41h184v-480l77 -19v-41l-155 -10l-11 110h-4q-29 -51 -79 -80.5t-107 -29.5q-38 0 -69.5 14.5t-49.5 39.5q-19 28 -28 79t-9 136v221l-67 19v41h164z
M447 639l-89 151h-95l-88 -151h53l83 91l83 -91h53z" />
    <glyph glyph-name="udieresis" unicode="&#xfc;" horiz-adv-x="633" 
d="M193 540v-283q0 -64 3.5 -96.5t12.5 -50.5q11 -24 33 -36.5t51 -12.5q27 0 52 10t44 27q41 37 45 115v267l-87 19v41h184v-480l77 -19v-41l-155 -10l-11 110h-4q-29 -51 -79 -80.5t-107 -29.5q-38 0 -69.5 14.5t-49.5 39.5q-19 28 -28 79t-9 136v221l-67 19v41h164z
M138 705q0 28 15.5 43.5t42.5 15.5t43 -16t16 -43t-15.5 -42.5t-43.5 -15.5q-27 0 -42.5 15.5t-15.5 42.5zM368 705q0 28 15.5 43.5t42.5 15.5t43 -16t16 -43t-15.5 -42.5t-43.5 -15.5q-27 0 -42.5 15.5t-15.5 42.5z" />
    <glyph glyph-name="yacute" unicode="&#xfd;" horiz-adv-x="590" 
d="M514 480l-166 -456q-28 -77 -51 -124.5t-51 -68.5t-72 -21q-47 0 -80.5 25t-33.5 63q0 28 16 46.5t42 18.5q23 0 36.5 -12.5t13.5 -34.5q0 -14 -5.5 -27t-14.5 -23q2 -10 12 -13.5t17 -3.5q14 0 26 7t25.5 29.5t29.5 70.5l12 37l-207 487l-60 19v41h224l8 -41l-71 -19
l149 -392h4l126 392l-58 19v41h190v-41zM258 639l49 76q29 45 46.5 62.5t38.5 17.5t33 -8.5t12 -26.5q0 -15 -20.5 -36.5t-67.5 -56.5l-38 -28h-53z" />
    <glyph glyph-name="thorn" unicode="&#xfe;" horiz-adv-x="600" 
d="M554 275q0 -59 -19 -115.5t-52 -94.5q-56 -65 -161 -65q-93 0 -142 75v-195l97 -19v-41h-271v41l77 19v840l-77 19v41h174v-298q54 68 150 68q109 0 160 -63q31 -38 47.5 -93t16.5 -119zM180 274q0 -58 8.5 -99t26.5 -70q17 -28 41 -40.5t59 -12.5q33 0 59 12t42 35
t24.5 66.5t8.5 101.5q0 60 -8 105t-26 73q-17 28 -41.5 40.5t-59.5 12.5q-73 0 -99 -46q-35 -59 -35 -178z" />
    <glyph glyph-name="ydieresis" unicode="&#xff;" horiz-adv-x="590" 
d="M514 480l-166 -456q-28 -77 -51 -124.5t-51 -68.5t-72 -21q-47 0 -80.5 25t-33.5 63q0 28 16 46.5t42 18.5q23 0 36.5 -12.5t13.5 -34.5q0 -14 -5.5 -27t-14.5 -23q2 -10 12 -13.5t17 -3.5q14 0 26 7t25.5 29.5t29.5 70.5l12 37l-207 487l-60 19v41h224l8 -41l-71 -19
l149 -392h4l126 392l-58 19v41h190v-41zM140 705q0 28 15.5 43.5t42.5 15.5t43 -16t16 -43t-15.5 -42.5t-43.5 -15.5q-27 0 -42.5 15.5t-15.5 42.5zM370 705q0 28 15.5 43.5t42.5 15.5t43 -16t16 -43t-15.5 -42.5t-43.5 -15.5q-27 0 -42.5 15.5t-15.5 42.5z" />
    <glyph glyph-name="Amacron" unicode="&#x100;" horiz-adv-x="721" 
d="M532 64l-59 178h-268l-61 -178l83 -21v-43h-234v43l82 21l240 666h93l237 -666l80 -21v-43h-275v43zM342 641l-117 -341h229l-108 341h-4zM222 796v65h279v-65h-279z" />
    <glyph glyph-name="amacron" unicode="&#x101;" horiz-adv-x="537" 
d="M38 117q0 78 73 123t242 70q-4 59 -11 92t-18 53q-14 26 -39 38.5t-54 12.5q-28 0 -50.5 -10t-30.5 -27q14 -10 20.5 -26t6.5 -30q0 -25 -16.5 -39.5t-40.5 -14.5t-39.5 16t-15.5 45q0 42 29 71t73.5 44t89.5 15q41 0 75.5 -12.5t58.5 -36.5q62 -62 62 -220v-145
q0 -49 6.5 -68t28.5 -19h45v-30q-72 -29 -112 -29q-31 0 -41.5 22.5t-10.5 86.5h-4q-31 -51 -82 -80t-110 -29q-63 0 -99 34t-36 93zM215 48q28 0 58.5 14.5t51.5 40.5q16 20 23.5 47.5t7.5 64.5q0 17 -1 33.5t-3 31.5q-81 -16 -127 -34.5t-65 -44t-19 -63.5
q0 -43 19.5 -66.5t54.5 -23.5zM123 665v65h279v-65h-279z" />
    <glyph glyph-name="Abreve" unicode="&#x102;" horiz-adv-x="721" 
d="M532 64l-59 178h-268l-61 -178l83 -21v-43h-234v43l82 21l240 666h93l237 -666l80 -21v-43h-275v43zM342 641l-117 -341h229l-108 341h-4zM509 908h-48q-1 -38 -30.5 -55t-68.5 -17t-67.5 17t-30.5 55h-48q0 -63 39.5 -102t106.5 -39q68 0 107.5 39t39.5 102z" />
    <glyph glyph-name="abreve" unicode="&#x103;" horiz-adv-x="537" 
d="M38 117q0 78 73 123t242 70q-4 59 -11 92t-18 53q-14 26 -39 38.5t-54 12.5q-28 0 -50.5 -10t-30.5 -27q14 -10 20.5 -26t6.5 -30q0 -25 -16.5 -39.5t-40.5 -14.5t-39.5 16t-15.5 45q0 42 29 71t73.5 44t89.5 15q41 0 75.5 -12.5t58.5 -36.5q62 -62 62 -220v-145
q0 -49 6.5 -68t28.5 -19h45v-30q-72 -29 -112 -29q-31 0 -41.5 22.5t-10.5 86.5h-4q-31 -51 -82 -80t-110 -29q-63 0 -99 34t-36 93zM215 48q28 0 58.5 14.5t51.5 40.5q16 20 23.5 47.5t7.5 64.5q0 17 -1 33.5t-3 31.5q-81 -16 -127 -34.5t-65 -44t-19 -63.5
q0 -43 19.5 -66.5t54.5 -23.5zM397 780h-48q0 -43 -27.5 -62.5t-77.5 -19.5q-39 0 -65 19.5t-28 62.5h-48q0 -67 37 -109t104 -42q65 0 108 40t45 111z" />
    <glyph glyph-name="Aogonek" unicode="&#x104;" horiz-adv-x="721" 
d="M532 64l-59 178h-268l-61 -178l83 -21v-43h-234v43l82 21l240 666h93l237 -666l80 -21v-43h-275v43zM342 641l-117 -341h229l-108 341h-4zM578 -210q-45 0 -72.5 23.5t-27.5 61.5q0 75 114 139h41q-27 -18 -45.5 -38t-28 -40.5t-9.5 -40.5q0 -23 13 -35t37 -12q18 0 37 5
t31 15l15 -22q-17 -27 -44 -41.5t-61 -14.5z" />
    <glyph glyph-name="aogonek" unicode="&#x105;" horiz-adv-x="537" 
d="M38 117q0 78 73 123t242 70q-4 59 -11 92t-18 53q-14 26 -39 38.5t-54 12.5q-28 0 -50.5 -10t-30.5 -27q14 -10 20.5 -26t6.5 -30q0 -25 -16.5 -39.5t-40.5 -14.5t-39.5 16t-15.5 45q0 42 29 71t73.5 44t89.5 15q41 0 75.5 -12.5t58.5 -36.5q62 -62 62 -220v-145
q0 -49 6.5 -68t28.5 -19h45v-30q-72 -29 -112 -29q-31 0 -41.5 22.5t-10.5 86.5h-4q-31 -51 -82 -80t-110 -29q-63 0 -99 34t-36 93zM215 48q28 0 58.5 14.5t51.5 40.5q16 20 23.5 47.5t7.5 64.5q0 17 -1 33.5t-3 31.5q-81 -16 -127 -34.5t-65 -44t-19 -63.5
q0 -43 19.5 -66.5t54.5 -23.5zM404 -210q-45 0 -72.5 23.5t-27.5 61.5q0 75 114 139h41q-27 -18 -45.5 -38t-28 -40.5t-9.5 -40.5q0 -23 13 -35t37 -12q18 0 37 5t31 15l15 -22q-17 -27 -44 -41.5t-61 -14.5z" />
    <glyph glyph-name="Cacute" unicode="&#x106;" horiz-adv-x="684" 
d="M371 676q-49 0 -83.5 -15t-58.5 -47q-30 -39 -47 -102.5t-17 -139.5q0 -71 15 -133t42 -104t65.5 -61.5t96.5 -19.5q180 0 209 169h55q-45 -233 -274 -233q-138 0 -220 80q-49 48 -75 121t-26 162q0 101 33 183t93 131q76 63 201 63q62 0 101 -16t77 -57l20 63h55v-221
h-61q-14 88 -64.5 132.5t-136.5 44.5zM355 770l61 77q14 18 26.5 28.5t24.5 15t24 4.5q17 0 27 -8t10 -22q0 -10 -7.5 -19.5t-23.5 -20t-42 -26.5l-47 -29h-53z" />
    <glyph glyph-name="cacute" unicode="&#x107;" horiz-adv-x="536" 
d="M302 550q58 0 100.5 -19.5t66 -54.5t23.5 -82q0 -37 -15.5 -57t-46.5 -20q-28 0 -44.5 16t-16.5 43q0 25 13.5 43t36.5 25q-15 29 -42.5 42t-68.5 13q-82 0 -119.5 -53.5t-37.5 -166.5q0 -49 6.5 -84.5t19.5 -60.5q20 -37 53 -57t78 -20q46 0 88 20t72 57l30 -24
q-40 -61 -92 -90.5t-122 -29.5t-121.5 28.5t-80.5 83.5q-36 67 -36 162q0 87 31.5 151t89.5 99.5t135 35.5zM275 639l49 76q29 45 46.5 62.5t38.5 17.5t33 -8.5t12 -26.5q0 -15 -20.5 -36.5t-67.5 -56.5l-38 -28h-53z" />
    <glyph glyph-name="Ccircumflex" unicode="&#x108;" horiz-adv-x="684" 
d="M371 676q-49 0 -83.5 -15t-58.5 -47q-30 -39 -47 -102.5t-17 -139.5q0 -71 15 -133t42 -104t65.5 -61.5t96.5 -19.5q180 0 209 169h55q-45 -233 -274 -233q-138 0 -220 80q-49 48 -75 121t-26 162q0 101 33 183t93 131q76 63 201 63q62 0 101 -16t77 -57l20 63h55v-221
h-61q-14 88 -64.5 132.5t-136.5 44.5zM548 769l-119 121h-95l-118 -121h53l113 61l113 -61h53z" />
    <glyph glyph-name="ccircumflex" unicode="&#x109;" horiz-adv-x="536" 
d="M302 550q58 0 100.5 -19.5t66 -54.5t23.5 -82q0 -37 -15.5 -57t-46.5 -20q-28 0 -44.5 16t-16.5 43q0 25 13.5 43t36.5 25q-15 29 -42.5 42t-68.5 13q-82 0 -119.5 -53.5t-37.5 -166.5q0 -49 6.5 -84.5t19.5 -60.5q20 -37 53 -57t78 -20q46 0 88 20t72 57l30 -24
q-40 -61 -92 -90.5t-122 -29.5t-121.5 28.5t-80.5 83.5q-36 67 -36 162q0 87 31.5 151t89.5 99.5t135 35.5zM438 639l-89 151h-95l-88 -151h53l83 91l83 -91h53z" />
    <glyph glyph-name="Cdotaccent" unicode="&#x10a;" horiz-adv-x="684" 
d="M371 676q-49 0 -83.5 -15t-58.5 -47q-30 -39 -47 -102.5t-17 -139.5q0 -71 15 -133t42 -104t65.5 -61.5t96.5 -19.5q180 0 209 169h55q-45 -233 -274 -233q-138 0 -220 80q-49 48 -75 121t-26 162q0 101 33 183t93 131q76 63 201 63q62 0 101 -16t77 -57l20 63h55v-221
h-61q-14 88 -64.5 132.5t-136.5 44.5zM320 832q0 29 17 46t45 17q29 0 46 -17t17 -46q0 -28 -17 -45t-46 -17t-45.5 16.5t-16.5 45.5z" />
    <glyph glyph-name="cdotaccent" unicode="&#x10b;" horiz-adv-x="536" 
d="M302 550q58 0 100.5 -19.5t66 -54.5t23.5 -82q0 -37 -15.5 -57t-46.5 -20q-28 0 -44.5 16t-16.5 43q0 25 13.5 43t36.5 25q-15 29 -42.5 42t-68.5 13q-82 0 -119.5 -53.5t-37.5 -166.5q0 -49 6.5 -84.5t19.5 -60.5q20 -37 53 -57t78 -20q46 0 88 20t72 57l30 -24
q-40 -61 -92 -90.5t-122 -29.5t-121.5 28.5t-80.5 83.5q-36 67 -36 162q0 87 31.5 151t89.5 99.5t135 35.5zM240 701q0 29 17 46t45 17q29 0 46 -17t17 -46q0 -28 -17 -45t-46 -17t-45.5 16.5t-16.5 45.5z" />
    <glyph glyph-name="Ccaron" unicode="&#x10c;" horiz-adv-x="684" 
d="M371 676q-49 0 -83.5 -15t-58.5 -47q-30 -39 -47 -102.5t-17 -139.5q0 -71 15 -133t42 -104t65.5 -61.5t96.5 -19.5q180 0 209 169h55q-45 -233 -274 -233q-138 0 -220 80q-49 48 -75 121t-26 162q0 101 33 183t93 131q76 63 201 63q62 0 101 -16t77 -57l20 63h55v-221
h-61q-14 88 -64.5 132.5t-136.5 44.5zM429 769l119 121h-53l-113 -61l-113 61h-53l118 -121h95z" />
    <glyph glyph-name="ccaron" unicode="&#x10d;" horiz-adv-x="536" 
d="M302 550q58 0 100.5 -19.5t66 -54.5t23.5 -82q0 -37 -15.5 -57t-46.5 -20q-28 0 -44.5 16t-16.5 43q0 25 13.5 43t36.5 25q-15 29 -42.5 42t-68.5 13q-82 0 -119.5 -53.5t-37.5 -166.5q0 -49 6.5 -84.5t19.5 -60.5q20 -37 53 -57t78 -20q46 0 88 20t72 57l30 -24
q-40 -61 -92 -90.5t-122 -29.5t-121.5 28.5t-80.5 83.5q-36 67 -36 162q0 87 31.5 151t89.5 99.5t135 35.5zM355 639l83 141h-53l-83 -91l-80 91h-56l83 -141h106z" />
    <glyph glyph-name="Dcaron" unicode="&#x10e;" horiz-adv-x="766" 
d="M232 60h155q54 0 92.5 16t63.5 50q28 35 41.5 92t13.5 136q0 156 -55 232q-26 38 -67 56t-99 18h-145v-600zM48 720h336q149 0 232 -84q47 -48 72 -118t25 -150q0 -84 -26.5 -157.5t-73.5 -123.5q-83 -87 -238 -87h-327v43l84 21v592l-84 21v43zM409 769l119 121h-53
l-113 -61l-113 61h-53l118 -121h95z" />
    <glyph glyph-name="dcaron" unicode="&#x10f;" horiz-adv-x="620" 
d="M46 265q0 65 17 124t51 96q29 32 69 48.5t92 16.5q44 0 80.5 -17t65.5 -61v248l-77 19v41h174v-720l77 -19v-41l-155 -10l-8 82q-31 -46 -70 -64t-87 -18q-51 0 -92 15t-68 48q-32 39 -50.5 93.5t-18.5 118.5zM421 266q0 61 -9 106t-26 73q-16 26 -39 39.5t-61 13.5
q-34 0 -59.5 -12t-41.5 -35q-18 -25 -26 -71.5t-8 -106.5t9 -104.5t26 -73.5q17 -25 40.5 -39t60.5 -14q35 0 60.5 11.5t38.5 34.5q17 28 26 72.5t9 105.5zM653 605h-40q0 33 -5 57t-9.5 44t-4.5 41q0 14 7.5 28.5t32.5 14.5q23 0 31 -14.5t8 -28.5q0 -21 -5 -41t-10 -44
t-5 -57z" />
    <glyph glyph-name="Dcroat" unicode="&#x110;" horiz-adv-x="771" 
d="M53 332v65h329v-65h-329zM237 60h155q54 0 92.5 16t63.5 50q28 35 41.5 92t13.5 136q0 156 -55 232q-26 38 -67 56t-99 18h-145v-600zM53 720h336q149 0 232 -84q47 -48 72 -118t25 -150q0 -84 -26.5 -157.5t-73.5 -123.5q-83 -87 -238 -87h-327v43l84 21v592l-84 21v43z
" />
    <glyph glyph-name="dcroat" unicode="&#x111;" horiz-adv-x="620" 
d="M314 610v62h281v-62h-281zM46 265q0 65 17 124t51 96q29 32 69 48.5t92 16.5q44 0 80.5 -17t65.5 -61v248l-77 19v41h174v-720l77 -19v-41l-155 -10l-8 82q-31 -46 -70 -64t-87 -18q-51 0 -92 15t-68 48q-32 39 -50.5 93.5t-18.5 118.5zM421 266q0 61 -9 106t-26 73
q-16 26 -39 39.5t-61 13.5q-34 0 -59.5 -12t-41.5 -35q-18 -25 -26 -71.5t-8 -106.5t9 -104.5t26 -73.5q17 -25 40.5 -39t60.5 -14q35 0 60.5 11.5t38.5 34.5q17 28 26 72.5t9 105.5z" />
    <glyph glyph-name="Emacron" unicode="&#x112;" horiz-adv-x="685" 
d="M472 238h-51l-18 102h-166v-280h302l31 163h58v-223h-585v43l94 21v592l-94 21v43h563v-212h-52l-32 154h-285v-262h166l18 102h51v-264zM206 796v65h279v-65h-279z" />
    <glyph glyph-name="emacron" unicode="&#x113;" horiz-adv-x="544" 
d="M497 264h-349q0 -73 20 -121q20 -46 57 -66t80 -20q47 0 86 19.5t70 53.5l32 -24q-35 -48 -85 -82t-129 -34q-69 0 -122 29.5t-81 86.5q-15 31 -22 69t-7 81q0 140 64.5 217t175.5 77q102 0 157.5 -63.5t55.5 -175.5q0 -10 -0.5 -18.5t-2.5 -28.5zM281 496
q-120 0 -132 -183h250v33q0 72 -30.5 111t-87.5 39zM145 665v65h279v-65h-279z" />
    <glyph glyph-name="Ebreve" unicode="&#x114;" horiz-adv-x="685" 
d="M472 238h-51l-18 102h-166v-280h302l31 163h58v-223h-585v43l94 21v592l-94 21v43h563v-212h-52l-32 154h-285v-262h166l18 102h51v-264zM498 908h-48q-1 -38 -30.5 -55t-68.5 -17t-67.5 17t-30.5 55h-48q0 -63 39.5 -102t106.5 -39q68 0 107.5 39t39.5 102z" />
    <glyph glyph-name="ebreve" unicode="&#x115;" horiz-adv-x="544" 
d="M497 264h-349q0 -73 20 -121q20 -46 57 -66t80 -20q47 0 86 19.5t70 53.5l32 -24q-35 -48 -85 -82t-129 -34q-69 0 -122 29.5t-81 86.5q-15 31 -22 69t-7 81q0 140 64.5 217t175.5 77q102 0 157.5 -63.5t55.5 -175.5q0 -10 -0.5 -18.5t-2.5 -28.5zM281 496
q-120 0 -132 -183h250v33q0 72 -30.5 111t-87.5 39zM438 780h-48q0 -43 -27.5 -62.5t-77.5 -19.5q-39 0 -65 19.5t-28 62.5h-48q0 -67 37 -109t104 -42q65 0 108 40t45 111z" />
    <glyph glyph-name="Edotaccent" unicode="&#x116;" horiz-adv-x="685" 
d="M472 238h-51l-18 102h-166v-280h302l31 163h58v-223h-585v43l94 21v592l-94 21v43h563v-212h-52l-32 154h-285v-262h166l18 102h51v-264zM286 832q0 29 17 46t45 17q29 0 46 -17t17 -46q0 -28 -17 -45t-46 -17t-45.5 16.5t-16.5 45.5z" />
    <glyph glyph-name="edotaccent" unicode="&#x117;" horiz-adv-x="544" 
d="M497 264h-349q0 -73 20 -121q20 -46 57 -66t80 -20q47 0 86 19.5t70 53.5l32 -24q-35 -48 -85 -82t-129 -34q-69 0 -122 29.5t-81 86.5q-15 31 -22 69t-7 81q0 140 64.5 217t175.5 77q102 0 157.5 -63.5t55.5 -175.5q0 -10 -0.5 -18.5t-2.5 -28.5zM281 496
q-120 0 -132 -183h250v33q0 72 -30.5 111t-87.5 39zM223 701q0 29 17 46t45 17q29 0 46 -17t17 -46q0 -28 -17 -45t-46 -17t-45.5 16.5t-16.5 45.5z" />
    <glyph glyph-name="Eogonek" unicode="&#x118;" horiz-adv-x="685" 
d="M472 238h-51l-18 102h-166v-280h302l31 163h58v-223h-585v43l94 21v592l-94 21v43h563v-212h-52l-32 154h-285v-262h166l18 102h51v-264zM335 -210q-45 0 -72.5 23.5t-27.5 61.5q0 75 114 139h41q-27 -18 -45.5 -38t-28 -40.5t-9.5 -40.5q0 -23 13 -35t37 -12q18 0 37 5
t31 15l15 -22q-17 -27 -44 -41.5t-61 -14.5z" />
    <glyph glyph-name="eogonek" unicode="&#x119;" horiz-adv-x="544" 
d="M497 264h-349q0 -73 20 -121q20 -46 57 -66t80 -20q47 0 86 19.5t70 53.5l32 -24q-35 -48 -85 -82t-129 -34q-69 0 -122 29.5t-81 86.5q-15 31 -22 69t-7 81q0 140 64.5 217t175.5 77q102 0 157.5 -63.5t55.5 -175.5q0 -10 -0.5 -18.5t-2.5 -28.5zM281 496
q-120 0 -132 -183h250v33q0 72 -30.5 111t-87.5 39zM264 -210q-45 0 -72.5 23.5t-27.5 61.5q0 75 114 139h41q-27 -18 -45.5 -38t-28 -40.5t-9.5 -40.5q0 -23 13 -35t37 -12q18 0 37 5t31 15l15 -22q-17 -27 -44 -41.5t-61 -14.5z" />
    <glyph glyph-name="Ecaron" unicode="&#x11a;" horiz-adv-x="685" 
d="M472 238h-51l-18 102h-166v-280h302l31 163h58v-223h-585v43l94 21v592l-94 21v43h563v-212h-52l-32 154h-285v-262h166l18 102h51v-264zM412 769l119 121h-53l-113 -61l-113 61h-53l118 -121h95z" />
    <glyph glyph-name="ecaron" unicode="&#x11b;" horiz-adv-x="544" 
d="M497 264h-349q0 -73 20 -121q20 -46 57 -66t80 -20q47 0 86 19.5t70 53.5l32 -24q-35 -48 -85 -82t-129 -34q-69 0 -122 29.5t-81 86.5q-15 31 -22 69t-7 81q0 140 64.5 217t175.5 77q102 0 157.5 -63.5t55.5 -175.5q0 -10 -0.5 -18.5t-2.5 -28.5zM281 496
q-120 0 -132 -183h250v33q0 72 -30.5 111t-87.5 39zM338 639l83 141h-53l-83 -91l-80 91h-56l83 -141h106z" />
    <glyph glyph-name="Gcircumflex" unicode="&#x11c;" horiz-adv-x="753" 
d="M375 55q85 0 127.5 42.5t42.5 125.5v70l-84 21v45h268v-45l-84 -21v-293h-52l-25 79q-43 -48 -89.5 -68.5t-109.5 -20.5q-137 0 -219 84q-46 47 -71.5 119t-25.5 159q0 89 26.5 165.5t74.5 126.5q41 43 95.5 64.5t123.5 21.5q60 0 103 -18.5t80 -60.5l22 69h55v-221h-61
q-14 88 -65.5 132.5t-137.5 44.5q-50 0 -84.5 -16.5t-59.5 -51.5q-28 -42 -44.5 -106t-16.5 -136q0 -74 17.5 -137t49.5 -107q26 -35 60 -51t84 -16zM540 769l-119 121h-95l-118 -121h53l113 61l113 -61h53z" />
    <glyph glyph-name="gcircumflex" unicode="&#x11d;" horiz-adv-x="560" 
d="M507 -10q0 -76 -64.5 -125t-179.5 -49q-76 0 -128 15t-78.5 43t-26.5 67q0 47 28 72.5t77 32.5v4q-66 19 -66 78q0 21 10 39.5t30.5 34.5t52.5 27q-49 18 -76 56t-27 93q0 80 55.5 126t148.5 46q47 0 84 -11.5t63 -34.5l34 12l92 44h17v-88h-17l-70 8h-34q29 -40 29 -96
q0 -79 -54.5 -124.5t-150.5 -45.5q-10 0 -20 0.5t-20 1.5q-40 -6 -59.5 -21t-19.5 -38t18 -31.5t70 -8.5h116q82 0 124 -30.5t42 -96.5zM297 40h-65q-67 0 -97 -23t-30 -60q0 -91 156 -91q85 0 129.5 26t44.5 76q0 40 -30.5 56t-107.5 16zM147 382q0 -60 27.5 -91t85.5 -31
q59 0 86 31t27 91t-27 91t-86 31q-58 0 -85.5 -31t-27.5 -91zM397 639l-89 151h-95l-88 -151h53l83 91l83 -91h53z" />
    <glyph glyph-name="Gbreve" unicode="&#x11e;" horiz-adv-x="753" 
d="M375 55q85 0 127.5 42.5t42.5 125.5v70l-84 21v45h268v-45l-84 -21v-293h-52l-25 79q-43 -48 -89.5 -68.5t-109.5 -20.5q-137 0 -219 84q-46 47 -71.5 119t-25.5 159q0 89 26.5 165.5t74.5 126.5q41 43 95.5 64.5t123.5 21.5q60 0 103 -18.5t80 -60.5l22 69h55v-221h-61
q-14 88 -65.5 132.5t-137.5 44.5q-50 0 -84.5 -16.5t-59.5 -51.5q-28 -42 -44.5 -106t-16.5 -136q0 -74 17.5 -137t49.5 -107q26 -35 60 -51t84 -16zM521 908h-48q-1 -38 -30.5 -55t-68.5 -17t-67.5 17t-30.5 55h-48q0 -63 39.5 -102t106.5 -39q68 0 107.5 39t39.5 102z" />
    <glyph glyph-name="gbreve" unicode="&#x11f;" horiz-adv-x="560" 
d="M507 -10q0 -76 -64.5 -125t-179.5 -49q-76 0 -128 15t-78.5 43t-26.5 67q0 47 28 72.5t77 32.5v4q-66 19 -66 78q0 21 10 39.5t30.5 34.5t52.5 27q-49 18 -76 56t-27 93q0 80 55.5 126t148.5 46q47 0 84 -11.5t63 -34.5l34 12l92 44h17v-88h-17l-70 8h-34q29 -40 29 -96
q0 -79 -54.5 -124.5t-150.5 -45.5q-10 0 -20 0.5t-20 1.5q-40 -6 -59.5 -21t-19.5 -38t18 -31.5t70 -8.5h116q82 0 124 -30.5t42 -96.5zM297 40h-65q-67 0 -97 -23t-30 -60q0 -91 156 -91q85 0 129.5 26t44.5 76q0 40 -30.5 56t-107.5 16zM147 382q0 -60 27.5 -91t85.5 -31
q59 0 86 31t27 91t-27 91t-86 31q-58 0 -85.5 -31t-27.5 -91zM414 780h-48q0 -43 -27.5 -62.5t-77.5 -19.5q-39 0 -65 19.5t-28 62.5h-48q0 -67 37 -109t104 -42q65 0 108 40t45 111z" />
    <glyph glyph-name="Gdotaccent" unicode="&#x120;" horiz-adv-x="753" 
d="M375 55q85 0 127.5 42.5t42.5 125.5v70l-84 21v45h268v-45l-84 -21v-293h-52l-25 79q-43 -48 -89.5 -68.5t-109.5 -20.5q-137 0 -219 84q-46 47 -71.5 119t-25.5 159q0 89 26.5 165.5t74.5 126.5q41 43 95.5 64.5t123.5 21.5q60 0 103 -18.5t80 -60.5l22 69h55v-221h-61
q-14 88 -65.5 132.5t-137.5 44.5q-50 0 -84.5 -16.5t-59.5 -51.5q-28 -42 -44.5 -106t-16.5 -136q0 -74 17.5 -137t49.5 -107q26 -35 60 -51t84 -16zM312 832q0 29 17 46t45 17q29 0 46 -17t17 -46q0 -28 -17 -45t-46 -17t-45.5 16.5t-16.5 45.5z" />
    <glyph glyph-name="gdotaccent" unicode="&#x121;" horiz-adv-x="560" 
d="M507 -10q0 -76 -64.5 -125t-179.5 -49q-76 0 -128 15t-78.5 43t-26.5 67q0 47 28 72.5t77 32.5v4q-66 19 -66 78q0 21 10 39.5t30.5 34.5t52.5 27q-49 18 -76 56t-27 93q0 80 55.5 126t148.5 46q47 0 84 -11.5t63 -34.5l34 12l92 44h17v-88h-17l-70 8h-34q29 -40 29 -96
q0 -79 -54.5 -124.5t-150.5 -45.5q-10 0 -20 0.5t-20 1.5q-40 -6 -59.5 -21t-19.5 -38t18 -31.5t70 -8.5h116q82 0 124 -30.5t42 -96.5zM297 40h-65q-67 0 -97 -23t-30 -60q0 -91 156 -91q85 0 129.5 26t44.5 76q0 40 -30.5 56t-107.5 16zM147 382q0 -60 27.5 -91t85.5 -31
q59 0 86 31t27 91t-27 91t-86 31q-58 0 -85.5 -31t-27.5 -91zM199 701q0 29 17 46t45 17q29 0 46 -17t17 -46q0 -28 -17 -45t-46 -17t-45.5 16.5t-16.5 45.5z" />
    <glyph glyph-name="uni0122" unicode="&#x122;" horiz-adv-x="753" 
d="M375 55q85 0 127.5 42.5t42.5 125.5v70l-84 21v45h268v-45l-84 -21v-293h-52l-25 79q-43 -48 -89.5 -68.5t-109.5 -20.5q-137 0 -219 84q-46 47 -71.5 119t-25.5 159q0 89 26.5 165.5t74.5 126.5q41 43 95.5 64.5t123.5 21.5q60 0 103 -18.5t80 -60.5l22 69h55v-221h-61
q-14 88 -65.5 132.5t-137.5 44.5q-50 0 -84.5 -16.5t-59.5 -51.5q-28 -42 -44.5 -106t-16.5 -136q0 -74 17.5 -137t49.5 -107q26 -35 60 -51t84 -16zM374 -44q26 0 40 -17t14 -48q0 -39 -19.5 -69.5t-61.5 -56.5l-22 27q29 23 40.5 39.5t12.5 33.5l-3 2q-4 -6 -18 -6
q-16 0 -27.5 13t-11.5 32q0 21 16 35.5t40 14.5z" />
    <glyph glyph-name="uni0123" unicode="&#x123;" horiz-adv-x="560" 
d="M507 -10q0 -76 -64.5 -125t-179.5 -49q-76 0 -128 15t-78.5 43t-26.5 67q0 47 28 72.5t77 32.5v4q-66 19 -66 78q0 21 10 39.5t30.5 34.5t52.5 27q-49 18 -76 56t-27 93q0 80 55.5 126t148.5 46q47 0 84 -11.5t63 -34.5l34 12l92 44h17v-88h-17l-70 8h-34q29 -40 29 -96
q0 -79 -54.5 -124.5t-150.5 -45.5q-10 0 -20 0.5t-20 1.5q-40 -6 -59.5 -21t-19.5 -38t18 -31.5t70 -8.5h116q82 0 124 -30.5t42 -96.5zM297 40h-65q-67 0 -97 -23t-30 -60q0 -91 156 -91q85 0 129.5 26t44.5 76q0 40 -30.5 56t-107.5 16zM147 382q0 -60 27.5 -91t85.5 -31
q59 0 86 31t27 91t-27 91t-86 31q-58 0 -85.5 -31t-27.5 -91zM261 638q-26 0 -40 17t-14 48q0 39 19.5 69.5t61.5 56.5l22 -27q-29 -23 -40.5 -39.5t-12.5 -33.5l3 -2q4 6 18 6q16 0 27.5 -13t11.5 -32q0 -21 -16 -35.5t-40 -14.5z" />
    <glyph glyph-name="Hcircumflex" unicode="&#x124;" horiz-adv-x="803" 
d="M671 656v-592l84 -21v-43h-268v43l84 21v277h-339v-277l84 -21v-43h-268v43l84 21v592l-84 21v43h268v-43l-84 -21v-257h339v257l-84 21v43h268v-43zM571 769l-119 121h-95l-118 -121h53l113 61l113 -61h53z" />
    <glyph glyph-name="hcircumflex" unicode="&#x125;" horiz-adv-x="644" 
d="M448 60v223q0 65 -3.5 97t-12.5 50q-24 49 -88 49q-28 0 -54 -10t-46 -27q-22 -19 -32.5 -45.5t-12.5 -65.5v-271l67 -19v-41h-241v41l77 19v660l-77 19v41h174v-334q30 48 79.5 76t106.5 28q40 0 72 -14t51 -40q20 -28 28.5 -78.5t8.5 -136.5v-221l77 -19v-41h-241v41z
M498 639l-89 151h-95l-88 -151h53l83 91l83 -91h53z" />
    <glyph glyph-name="Hbar" unicode="&#x126;" horiz-adv-x="813" 
d="M54 496v65h706v-65h-706zM676 656v-592l84 -21v-43h-268v43l84 21v277h-339v-277l84 -21v-43h-268v43l84 21v592l-84 21v43h268v-43l-84 -21v-257h339v257l-84 21v43h268v-43z" />
    <glyph glyph-name="hbar" unicode="&#x127;" horiz-adv-x="644" 
d="M24 610v62h281v-62h-281zM448 60v223q0 65 -3.5 97t-12.5 50q-24 49 -88 49q-28 0 -54 -10t-46 -27q-22 -19 -32.5 -45.5t-12.5 -65.5v-271l67 -19v-41h-241v41l77 19v660l-77 19v41h174v-334q30 48 79.5 76t106.5 28q40 0 72 -14t51 -40q20 -28 28.5 -78.5t8.5 -136.5
v-221l77 -19v-41h-241v41z" />
    <glyph glyph-name="Itilde" unicode="&#x128;" horiz-adv-x="374" 
d="M237 656v-592l94 -21v-43h-288v43l94 21v592l-94 21v43h288v-43zM3 770q8 58 36 86.5t76 28.5q26 0 44.5 -8.5t34.5 -19t32 -19t35 -8.5q30 0 45 13t20 37h45q-18 -121 -112 -121q-25 0 -44 8.5t-35 19.5t-31.5 19.5t-35.5 8.5q-30 0 -45 -12t-20 -33h-45z" />
    <glyph glyph-name="itilde" unicode="&#x129;" horiz-adv-x="312" 
d="M113 480l-77 19v41h174v-480l77 -19v-41h-251v41l77 19v420zM-23 639q8 58 36 86.5t76 28.5q26 0 44.5 -8.5t34.5 -19t32 -19t35 -8.5q30 0 45 13t20 37h45q-18 -121 -112 -121q-25 0 -44 8.5t-35 19.5t-31.5 19.5t-35.5 8.5q-30 0 -45 -12t-20 -33h-45z" />
    <glyph glyph-name="Imacron" unicode="&#x12a;" horiz-adv-x="374" 
d="M237 656v-592l94 -21v-43h-288v43l94 21v592l-94 21v43h288v-43zM47 796v65h279v-65h-279z" />
    <glyph glyph-name="imacron" unicode="&#x12b;" horiz-adv-x="312" 
d="M113 480l-77 19v41h174v-480l77 -19v-41h-251v41l77 19v420zM21 665v65h279v-65h-279z" />
    <glyph glyph-name="Ibreve" unicode="&#x12c;" horiz-adv-x="374" 
d="M237 656v-592l94 -21v-43h-288v43l94 21v592l-94 21v43h288v-43zM332 908h-48q-1 -38 -30.5 -55t-68.5 -17t-67.5 17t-30.5 55h-48q0 -63 39.5 -102t106.5 -39q68 0 107.5 39t39.5 102z" />
    <glyph glyph-name="ibreve" unicode="&#x12d;" horiz-adv-x="312" 
d="M113 480l-77 19v41h174v-480l77 -19v-41h-251v41l77 19v420zM314 780h-48q0 -43 -27.5 -62.5t-77.5 -19.5q-39 0 -65 19.5t-28 62.5h-48q0 -67 37 -109t104 -42q65 0 108 40t45 111z" />
    <glyph glyph-name="Iogonek" unicode="&#x12e;" horiz-adv-x="374" 
d="M237 656v-592l94 -21v-43h-288v43l94 21v592l-94 21v43h288v-43zM170 -210q-45 0 -72.5 23.5t-27.5 61.5q0 75 114 139h41q-27 -18 -45.5 -38t-28 -40.5t-9.5 -40.5q0 -23 13 -35t37 -12q18 0 37 5t31 15l15 -22q-17 -27 -44 -41.5t-61 -14.5z" />
    <glyph glyph-name="iogonek" unicode="&#x12f;" horiz-adv-x="312" 
d="M113 480l-77 19v41h174v-480l77 -19v-41h-251v41l77 19v420zM99 701q0 29 17 46t45 17q29 0 46 -17t17 -46q0 -28 -17 -45t-46 -17t-45.5 16.5t-16.5 45.5zM145 -210q-45 0 -72.5 23.5t-27.5 61.5q0 75 114 139h41q-27 -18 -45.5 -38t-28 -40.5t-9.5 -40.5q0 -23 13 -35
t37 -12q18 0 37 5t31 15l15 -22q-17 -27 -44 -41.5t-61 -14.5z" />
    <glyph glyph-name="Idotaccent" unicode="&#x130;" horiz-adv-x="374" 
d="M237 656v-592l94 -21v-43h-288v43l94 21v592l-94 21v43h288v-43zM125 832q0 29 17 46t45 17q29 0 46 -17t17 -46q0 -28 -17 -45t-46 -17t-45.5 16.5t-16.5 45.5z" />
    <glyph glyph-name="dotlessi" unicode="&#x131;" horiz-adv-x="312" 
d="M113 480l-77 19v41h174v-480l77 -19v-41h-251v41l77 19v420z" />
    <glyph glyph-name="IJ" unicode="&#x132;" horiz-adv-x="957" 
d="M237 656v-592l94 -21v-43h-288v43l94 21v592l-94 21v43h288v-43zM739 207v449l-99 21v43h278v-43l-79 -21v-438q0 -69 -29.5 -120.5t-82.5 -80t-124 -28.5q-62 0 -110 23.5t-74.5 65.5t-26.5 97q0 41 16.5 62.5t49.5 21.5q29 0 46 -16t17 -42q0 -23 -13 -46.5t-30 -31.5
q0 -32 34.5 -54t89.5 -22q71 0 104 40t33 120z" />
    <glyph glyph-name="ij" unicode="&#x133;" horiz-adv-x="596" 
d="M113 480l-77 19v41h174v-480l77 -19v-41h-251v41l77 19v420zM99 701q0 29 17 46t45 17q29 0 46 -17t17 -46q0 -28 -17 -45t-46 -17t-45.5 16.5t-16.5 45.5zM513 540v-455q0 -74 -5 -116.5t-17 -69.5q-19 -43 -55.5 -66t-83.5 -23q-53 0 -88 27t-35 68q0 26 14.5 41.5
t38.5 15.5q23 0 36 -14.5t13 -40.5q0 -14 -4 -25.5t-12 -19.5q2 -7 12.5 -11t26.5 -4q35 0 48.5 28t13.5 101v504l-77 19v41h174zM402 701q0 29 17 46t45 17q29 0 46 -17t17 -46q0 -28 -17 -45t-46 -17t-45.5 16.5t-16.5 45.5z" />
    <glyph glyph-name="Jcircumflex" unicode="&#x134;" horiz-adv-x="583" 
d="M365 207v449l-99 21v43h278v-43l-79 -21v-438q0 -69 -29.5 -120.5t-82.5 -80t-124 -28.5q-62 0 -110 23.5t-74.5 65.5t-26.5 97q0 41 16.5 62.5t49.5 21.5q29 0 46 -16t17 -42q0 -23 -13 -46.5t-30 -31.5q0 -32 34.5 -54t89.5 -22q71 0 104 40t33 120zM583 769l-119 121
h-95l-118 -121h53l113 61l113 -61h53z" />
    <glyph glyph-name="jcircumflex" unicode="&#x135;" horiz-adv-x="284" 
d="M201 540v-455q0 -74 -5 -116.5t-17 -69.5q-19 -43 -55.5 -66t-83.5 -23q-35 0 -63 12.5t-44 34t-16 48.5q0 26 14.5 41.5t38.5 15.5q23 0 36 -14.5t13 -40.5q0 -14 -4 -25.5t-12 -19.5q2 -7 12.5 -11t26.5 -4q24 0 37.5 12t19 40.5t5.5 76.5v504l-77 19v41h174zM288 639
l-89 151h-95l-88 -151h53l83 91l83 -91h53z" />
    <glyph glyph-name="uni0136" unicode="&#x136;" horiz-adv-x="741" 
d="M237 656v-290l280 290l-91 21v43h263v-43l-88 -21l-234 -232l299 -362l84 -19v-43h-279v43l66 20l-237 293l-63 -60v-232l84 -21v-43h-278v43l94 21v592l-94 21v43h278v-43zM386 -44q26 0 40 -17t14 -48q0 -39 -19.5 -69.5t-61.5 -56.5l-22 27q29 23 40.5 39.5t12.5 33.5
l-3 2q-4 -6 -18 -6q-16 0 -27.5 13t-11.5 32q0 21 16 35.5t40 14.5z" />
    <glyph glyph-name="uni0137" unicode="&#x137;" horiz-adv-x="596" 
d="M370 41l59 19l-154 208l-76 -64v-144l77 -19v-41h-251v41l77 19v660l-77 19v41h174v-529l213 229l-66 19v41h215v-41l-73 -19l-151 -155l199 -267l53 -17v-41h-219v41zM316 -44q26 0 40 -17t14 -48q0 -39 -19.5 -69.5t-61.5 -56.5l-22 27q29 23 40.5 39.5t12.5 33.5l-3 2
q-4 -6 -18 -6q-16 0 -27.5 13t-11.5 32q0 21 16 35.5t40 14.5z" />
    <glyph glyph-name="kgreenlandic" unicode="&#x138;" horiz-adv-x="607" 
d="M381 41l59 19l-154 208l-76 -64v-144l77 -19v-41h-251v41l77 19v420l-77 19v41h174v-289l213 229l-66 19v41h215v-41l-73 -19l-151 -155l199 -267l53 -17v-41h-219v41z" />
    <glyph glyph-name="Lacute" unicode="&#x139;" horiz-adv-x="629" 
d="M237 656v-596h272l34 173h55v-233h-555v43l94 21v592l-94 21v43h298v-43zM159 770l61 77q14 18 26.5 28.5t24.5 15t24 4.5q17 0 27 -8t10 -22q0 -10 -7.5 -19.5t-23.5 -20t-42 -26.5l-47 -29h-53z" />
    <glyph glyph-name="lacute" unicode="&#x13a;" horiz-adv-x="308" 
d="M117 770l61 77q21 27 38.5 37.5t36.5 10.5q37 0 37 -30q0 -16 -17.5 -29.5t-55.5 -36.5l-47 -29h-53zM105 60v600l-77 19v41h174v-660l77 -19v-41h-251v41z" />
    <glyph glyph-name="uni013B" unicode="&#x13b;" horiz-adv-x="629" 
d="M237 656v-596h272l34 173h55v-233h-555v43l94 21v592l-94 21v43h298v-43zM335 -44q26 0 40 -17t14 -48q0 -39 -19.5 -69.5t-61.5 -56.5l-22 27q29 23 40.5 39.5t12.5 33.5l-3 2q-4 -6 -18 -6q-16 0 -27.5 13t-11.5 32q0 21 16 35.5t40 14.5z" />
    <glyph glyph-name="uni013C" unicode="&#x13c;" horiz-adv-x="308" 
d="M105 60v660l-77 19v41h174v-720l77 -19v-41h-251v41zM153 -44q26 0 40 -17t14 -48q0 -39 -19.5 -69.5t-61.5 -56.5l-22 27q29 23 40.5 39.5t12.5 33.5l-3 2q-4 -6 -18 -6q-16 0 -27.5 13t-11.5 32q0 21 16 35.5t40 14.5z" />
    <glyph glyph-name="Lcaron" unicode="&#x13d;" horiz-adv-x="629" 
d="M237 656v-596h272l34 173h55v-233h-555v43l94 21v592l-94 21v43h298v-43zM233 769l119 121h-53l-113 -61l-113 61h-53l118 -121h95z" />
    <glyph glyph-name="lcaron" unicode="&#x13e;" horiz-adv-x="308" 
d="M105 60v660l-77 19v41h174v-720l77 -19v-41h-251v41zM320 605h-40q0 33 -5 57t-9.5 44t-4.5 41q0 14 7.5 28.5t32.5 14.5q23 0 31 -14.5t8 -28.5q0 -21 -5 -41t-10 -44t-5 -57z" />
    <glyph glyph-name="Ldot" unicode="&#x13f;" horiz-adv-x="629" 
d="M237 656v-596h272l34 173h55v-233h-555v43l94 21v592l-94 21v43h298v-43zM331 360q0 30 17 47.5t46 17.5t46.5 -18t17.5 -47t-17.5 -46t-46.5 -17q-30 0 -46.5 16.5t-16.5 46.5z" />
    <glyph glyph-name="ldot" unicode="&#x140;" horiz-adv-x="347" 
d="M105 60v660l-77 19v41h174v-720l77 -19v-41h-251v41zM273 358q0 30 17 47.5t46 17.5t46.5 -18t17.5 -47t-17.5 -46t-46.5 -17q-30 0 -46.5 16.5t-16.5 46.5z" />
    <glyph glyph-name="Lslash" unicode="&#x141;" horiz-adv-x="629" 
d="M57 259v68l288 170v-69zM237 656v-596h272l34 173h55v-233h-555v43l94 21v592l-94 21v43h298v-43z" />
    <glyph glyph-name="lslash" unicode="&#x142;" horiz-adv-x="314" 
d="M25 289v68l268 170v-69zM108 60v660l-77 19v41h174v-720l77 -19v-41h-251v41z" />
    <glyph glyph-name="Nacute" unicode="&#x143;" horiz-adv-x="801" 
d="M132 64v592l-84 21v43h191l374 -553v489l-84 21v43h233v-43l-84 -21v-656h-71l-410 599v-535l84 -21v-43h-233v43zM373 770l61 77q14 18 26.5 28.5t24.5 15t24 4.5q17 0 27 -8t10 -22q0 -10 -7.5 -19.5t-23.5 -20t-42 -26.5l-47 -29h-53z" />
    <glyph glyph-name="nacute" unicode="&#x144;" horiz-adv-x="655" 
d="M113 60v420l-77 19v41h144l22 -100h4q30 51 81 80.5t109 29.5q83 0 123 -54q20 -28 28.5 -78.5t8.5 -136.5v-221l77 -19v-41h-241v41l67 19v223q0 65 -3.5 97t-12.5 50q-12 24 -34.5 36.5t-53.5 12.5q-58 0 -100 -37q-41 -37 -45 -115v-267l67 -19v-41h-241v41zM295 639
l49 76q29 45 46.5 62.5t38.5 17.5t33 -8.5t12 -26.5q0 -15 -20.5 -36.5t-67.5 -56.5l-38 -28h-53z" />
    <glyph glyph-name="uni0145" unicode="&#x145;" horiz-adv-x="801" 
d="M132 64v592l-84 21v43h191l374 -553v489l-84 21v43h233v-43l-84 -21v-656h-71l-410 599v-535l84 -21v-43h-233v43zM401 -44q26 0 40 -17t14 -48q0 -39 -19.5 -69.5t-61.5 -56.5l-22 27q29 23 40.5 39.5t12.5 33.5l-3 2q-4 -6 -18 -6q-16 0 -27.5 13t-11.5 32
q0 21 16 35.5t40 14.5z" />
    <glyph glyph-name="uni0146" unicode="&#x146;" horiz-adv-x="655" 
d="M113 60v420l-77 19v41h144l22 -100h4q30 51 81 80.5t109 29.5q83 0 123 -54q20 -28 28.5 -78.5t8.5 -136.5v-221l77 -19v-41h-241v41l67 19v223q0 65 -3.5 97t-12.5 50q-12 24 -34.5 36.5t-53.5 12.5q-58 0 -100 -37q-41 -37 -45 -115v-267l67 -19v-41h-241v41zM335 -44
q26 0 40 -17t14 -48q0 -39 -19.5 -69.5t-61.5 -56.5l-22 27q29 23 40.5 39.5t12.5 33.5l-3 2q-4 -6 -18 -6q-16 0 -27.5 13t-11.5 32q0 21 16 35.5t40 14.5z" />
    <glyph glyph-name="Ncaron" unicode="&#x147;" horiz-adv-x="801" 
d="M132 64v592l-84 21v43h191l374 -553v489l-84 21v43h233v-43l-84 -21v-656h-71l-410 599v-535l84 -21v-43h-233v43zM447 769l119 121h-53l-113 -61l-113 61h-53l118 -121h95z" />
    <glyph glyph-name="ncaron" unicode="&#x148;" horiz-adv-x="655" 
d="M113 60v420l-77 19v41h144l22 -100h4q30 51 81 80.5t109 29.5q83 0 123 -54q20 -28 28.5 -78.5t8.5 -136.5v-221l77 -19v-41h-241v41l67 19v223q0 65 -3.5 97t-12.5 50q-12 24 -34.5 36.5t-53.5 12.5q-58 0 -100 -37q-41 -37 -45 -115v-267l67 -19v-41h-241v41zM400 639
l83 141h-53l-83 -91l-80 91h-56l83 -141h106z" />
    <glyph glyph-name="napostrophe" unicode="&#x149;" horiz-adv-x="751" 
d="M209 60v420l-77 19v41h144l22 -100h4q30 51 81 80.5t109 29.5q83 0 123 -54q20 -28 28.5 -78.5t8.5 -136.5v-221l77 -19v-41h-241v41l67 19v223q0 65 -3.5 97t-12.5 50q-12 24 -34.5 36.5t-53.5 12.5q-58 0 -100 -37q-41 -37 -45 -115v-267l67 -19v-41h-241v41zM80 790
q26 0 40 -17t14 -48q0 -39 -23.5 -73.5t-69.5 -62.5l-22 27q32 26 48 46t17 37l-3 2q-1 -2 -7 -4t-11 -2q-16 0 -27.5 13t-11.5 32q0 21 16 35.5t40 14.5z" />
    <glyph glyph-name="Eng" unicode="&#x14a;" horiz-adv-x="801" 
d="M132 64v592l-84 21v43h191l373 -553v489l-83 21v43h233v-43l-84 -21v-571q0 -74 -5 -116.5t-17 -69.5q-19 -43 -49 -66t-77 -23q-35 0 -66.5 12.5t-50.5 34t-19 48.5q0 26 14.5 41.5t38.5 15.5q23 0 36 -14.5t13 -40.5q0 -14 -4 -25.5t-12 -19.5q2 -7 15.5 -11t34.5 -4
q37 0 59.5 32t22.5 97v17l-415 606v-535l84 -21v-43h-233v43z" />
    <glyph glyph-name="eng" unicode="&#x14b;" horiz-adv-x="629" 
d="M459 -24v307q0 65 -3.5 97t-12.5 50q-12 24 -34.5 36.5t-53.5 12.5q-28 0 -54 -10t-46 -27q-22 -19 -32.5 -46.5t-12.5 -68.5v-267l67 -19v-41h-241v41l77 19v420l-77 19v41h144l22 -100h4q30 51 81 80.5t109 29.5q83 0 123 -54q20 -28 28.5 -78.5t8.5 -136.5v-196
q0 -74 -5 -116.5t-17 -69.5q-19 -43 -55.5 -66t-83.5 -23q-53 0 -88 27t-35 68q0 26 14.5 41.5t38.5 15.5q23 0 36 -14.5t13 -40.5q0 -29 -16 -45q2 -7 12.5 -11t26.5 -4q24 0 37.5 12t19 40.5t5.5 76.5z" />
    <glyph glyph-name="Omacron" unicode="&#x14c;" horiz-adv-x="764" 
d="M711 368q0 -87 -26.5 -163.5t-73.5 -127.5q-41 -44 -98.5 -65.5t-132.5 -21.5q-76 0 -134 21t-97 63q-46 48 -71 120.5t-25 157.5q0 87 26.5 163.5t73.5 127.5q42 45 97.5 66t131.5 21t133.5 -20.5t98.5 -63.5q47 -48 72 -121t25 -157zM168 372q0 -83 14 -147.5
t40 -105.5q26 -37 65.5 -55.5t97.5 -18.5q106 0 156 66q27 37 41 98.5t14 144.5t-14 146t-41 102q-26 38 -66.5 56t-95.5 18q-53 0 -91.5 -16.5t-64.5 -49.5q-55 -73 -55 -238zM242 796v65h279v-65h-279z" />
    <glyph glyph-name="omacron" unicode="&#x14d;" horiz-adv-x="582" 
d="M536 275q0 -65 -19.5 -123.5t-54.5 -96.5q-30 -33 -74 -49t-100 -16q-55 0 -98 15.5t-73 47.5q-34 37 -52.5 91.5t-18.5 118.5q0 65 19 124.5t55 97.5q32 34 74.5 49.5t97.5 15.5t99 -15.5t74 -47.5q35 -37 53 -92.5t18 -119.5zM153 274q0 -61 9.5 -105.5t26.5 -73.5
q17 -25 40.5 -39t61.5 -14q69 0 103 47q18 26 26.5 72t8.5 106t-9.5 105t-26.5 73q-16 26 -40.5 39.5t-62.5 13.5q-70 0 -101 -46q-36 -56 -36 -178zM151 665v65h279v-65h-279z" />
    <glyph glyph-name="Obreve" unicode="&#x14e;" horiz-adv-x="764" 
d="M711 368q0 -87 -26.5 -163.5t-73.5 -127.5q-41 -44 -98.5 -65.5t-132.5 -21.5q-76 0 -134 21t-97 63q-46 48 -71 120.5t-25 157.5q0 87 26.5 163.5t73.5 127.5q42 45 97.5 66t131.5 21t133.5 -20.5t98.5 -63.5q47 -48 72 -121t25 -157zM168 372q0 -83 14 -147.5
t40 -105.5q26 -37 65.5 -55.5t97.5 -18.5q106 0 156 66q27 37 41 98.5t14 144.5t-14 146t-41 102q-26 38 -66.5 56t-95.5 18q-53 0 -91.5 -16.5t-64.5 -49.5q-55 -73 -55 -238zM530 908h-48q-1 -38 -30.5 -55t-68.5 -17t-67.5 17t-30.5 55h-48q0 -63 39.5 -102t106.5 -39
q68 0 107.5 39t39.5 102z" />
    <glyph glyph-name="obreve" unicode="&#x14f;" horiz-adv-x="582" 
d="M536 275q0 -65 -19.5 -123.5t-54.5 -96.5q-30 -33 -74 -49t-100 -16q-55 0 -98 15.5t-73 47.5q-34 37 -52.5 91.5t-18.5 118.5q0 65 19 124.5t55 97.5q32 34 74.5 49.5t97.5 15.5t99 -15.5t74 -47.5q35 -37 53 -92.5t18 -119.5zM153 274q0 -61 9.5 -105.5t26.5 -73.5
q17 -25 40.5 -39t61.5 -14q69 0 103 47q18 26 26.5 72t8.5 106t-9.5 105t-26.5 73q-16 26 -40.5 39.5t-62.5 13.5q-70 0 -101 -46q-36 -56 -36 -178zM444 780h-48q0 -43 -27.5 -62.5t-77.5 -19.5q-39 0 -65 19.5t-28 62.5h-48q0 -67 37 -109t104 -42q65 0 108 40t45 111z
" />
    <glyph glyph-name="Ohungarumlaut" unicode="&#x150;" horiz-adv-x="764" 
d="M711 368q0 -87 -26.5 -163.5t-73.5 -127.5q-41 -44 -98.5 -65.5t-132.5 -21.5q-76 0 -134 21t-97 63q-46 48 -71 120.5t-25 157.5q0 87 26.5 163.5t73.5 127.5q42 45 97.5 66t131.5 21t133.5 -20.5t98.5 -63.5q47 -48 72 -121t25 -157zM168 372q0 -83 14 -147.5
t40 -105.5q26 -37 65.5 -55.5t97.5 -18.5q106 0 156 66q27 37 41 98.5t14 144.5t-14 146t-41 102q-26 38 -66.5 56t-95.5 18q-53 0 -91.5 -16.5t-64.5 -49.5q-55 -73 -55 -238zM268 770l61 77q14 18 26.5 28.5t24.5 15t24 4.5q17 0 27 -8t10 -22q0 -10 -7.5 -19.5t-23.5 -20
t-42 -26.5l-47 -29h-53zM448 770l61 77q14 18 26.5 28.5t24.5 15t24 4.5q17 0 27 -8t10 -22q0 -10 -7.5 -19.5t-23.5 -20t-42 -26.5l-47 -29h-53z" />
    <glyph glyph-name="ohungarumlaut" unicode="&#x151;" horiz-adv-x="582" 
d="M536 275q0 -65 -19.5 -123.5t-54.5 -96.5q-30 -33 -74 -49t-100 -16q-55 0 -98 15.5t-73 47.5q-34 37 -52.5 91.5t-18.5 118.5q0 65 19 124.5t55 97.5q32 34 74.5 49.5t97.5 15.5t99 -15.5t74 -47.5q35 -37 53 -92.5t18 -119.5zM153 274q0 -61 9.5 -105.5t26.5 -73.5
q17 -25 40.5 -39t61.5 -14q69 0 103 47q18 26 26.5 72t8.5 106t-9.5 105t-26.5 73q-16 26 -40.5 39.5t-62.5 13.5q-70 0 -101 -46q-36 -56 -36 -178zM177 639l49 76q29 45 46.5 62.5t38.5 17.5t33 -8.5t12 -26.5q0 -15 -20.5 -36.5t-67.5 -56.5l-38 -28h-53zM343 639l49 76
q29 45 46.5 62.5t38.5 17.5t33 -8.5t12 -26.5q0 -15 -20.5 -36.5t-67.5 -56.5l-38 -28h-53z" />
    <glyph glyph-name="OE" unicode="&#x152;" horiz-adv-x="1072" 
d="M859 238h-51l-18 102h-166v-280h302l31 163h58v-223h-624q-155 0 -238 87q-47 50 -73.5 123.5t-26.5 157.5q0 80 25.5 150t71.5 118q83 84 232 84h611v-212h-52l-32 154h-285v-262h166l18 102h51v-264zM524 60v600h-135q-58 0 -99 -18t-67 -56q-55 -76 -55 -232
q0 -79 13.5 -136t41.5 -92q26 -34 64 -50t92 -16h145z" />
    <glyph glyph-name="oe" unicode="&#x153;" horiz-adv-x="920" 
d="M292 550q39 0 76.5 -11t67 -33t41.5 -57h4q25 49 70.5 75t111.5 26q102 0 157.5 -63.5t55.5 -175.5q0 -10 -0.5 -18.5t-2.5 -28.5h-349q0 -37 5 -67.5t15 -53.5q20 -46 57 -66t80 -20q47 0 86 19.5t70 53.5l32 -24q-23 -32 -53 -58.5t-69 -42t-92 -15.5q-36 0 -72.5 10.5
t-64 32t-37.5 52.5h-4q-24 -46 -77 -70.5t-112 -24.5q-55 0 -98 15.5t-73 47.5q-34 37 -52.5 91.5t-18.5 118.5q0 65 19 124.5t55 97.5q32 34 74.5 49.5t97.5 15.5zM153 274q0 -61 9.5 -105.5t26.5 -73.5q17 -25 40.5 -39t61.5 -14q69 0 103 47q18 26 26.5 72t8.5 106
t-9.5 105t-26.5 73q-16 26 -40.5 39.5t-62.5 13.5q-35 0 -60.5 -11.5t-40.5 -34.5q-17 -27 -26.5 -72t-9.5 -106zM657 496q-60 0 -93 -46t-39 -137h250v33q0 72 -30.5 111t-87.5 39z" />
    <glyph glyph-name="Racute" unicode="&#x154;" horiz-adv-x="706" 
d="M543 382q-18 -14 -42 -24t-59 -17q9 -9 19.5 -23t20.5 -31l133 -225l89 -19v-43h-206v43l-144 280h-122v-259l95 -21v-43h-279v43l84 21v592l-84 21v43h344q48 0 84 -9t65 -29q37 -24 57.5 -66t20.5 -84t-20.5 -82.5t-55.5 -67.5zM232 381h143q55 0 91 31
q20 18 31.5 48.5t11.5 65.5t-11.5 63.5t-32.5 46.5q-17 14 -39.5 20t-54.5 6h-139v-281zM282 770l61 77q14 18 26.5 28.5t24.5 15t24 4.5q17 0 27 -8t10 -22q0 -10 -7.5 -19.5t-23.5 -20t-42 -26.5l-47 -29h-53z" />
    <glyph glyph-name="racute" unicode="&#x155;" horiz-adv-x="458" 
d="M337 482q-4 3 -9.5 4.5t-10.5 1.5q-12 0 -26 -11t-27 -29.5t-24 -42.5q-14 -34 -22 -74.5t-8 -83.5v-187l108 -19v-41h-282v41l77 19v420l-77 19v41h144l22 -132h4q23 68 62 105t86 37q39 0 65 -24.5t26 -65.5q0 -30 -15.5 -47.5t-41.5 -17.5t-41 16.5t-15 43.5
q0 6 1 11.5t4 15.5zM217 639l49 76q29 45 46.5 62.5t38.5 17.5t33 -8.5t12 -26.5q0 -15 -20.5 -36.5t-67.5 -56.5l-38 -28h-53z" />
    <glyph glyph-name="uni0156" unicode="&#x156;" horiz-adv-x="706" 
d="M543 382q-18 -14 -42 -24t-59 -17q9 -9 19.5 -23t20.5 -31l133 -225l89 -19v-43h-206v43l-144 280h-122v-259l95 -21v-43h-279v43l84 21v592l-84 21v43h344q48 0 84 -9t65 -29q37 -24 57.5 -66t20.5 -84t-20.5 -82.5t-55.5 -67.5zM232 381h143q55 0 91 31
q20 18 31.5 48.5t11.5 65.5t-11.5 63.5t-32.5 46.5q-17 14 -39.5 20t-54.5 6h-139v-281zM382 -44q26 0 40 -17t14 -48q0 -39 -19.5 -69.5t-61.5 -56.5l-22 27q29 23 40.5 39.5t12.5 33.5l-3 2q-4 -6 -18 -6q-16 0 -27.5 13t-11.5 32q0 21 16 35.5t40 14.5z" />
    <glyph glyph-name="uni0157" unicode="&#x157;" horiz-adv-x="458" 
d="M337 482q-4 3 -9.5 4.5t-10.5 1.5q-12 0 -26 -11t-27 -29.5t-24 -42.5q-14 -34 -22 -74.5t-8 -83.5v-187l108 -19v-41h-282v41l77 19v420l-77 19v41h144l22 -132h4q23 68 62 105t86 37q39 0 65 -24.5t26 -65.5q0 -30 -15.5 -47.5t-41.5 -17.5t-41 16.5t-15 43.5
q0 6 1 11.5t4 15.5zM162 -44q26 0 40 -17t14 -48q0 -39 -19.5 -69.5t-61.5 -56.5l-22 27q29 23 40.5 39.5t12.5 33.5l-3 2q-4 -6 -18 -6q-16 0 -27.5 13t-11.5 32q0 21 16 35.5t40 14.5z" />
    <glyph glyph-name="Rcaron" unicode="&#x158;" horiz-adv-x="706" 
d="M543 382q-18 -14 -42 -24t-59 -17q9 -9 19.5 -23t20.5 -31l133 -225l89 -19v-43h-206v43l-144 280h-122v-259l95 -21v-43h-279v43l84 21v592l-84 21v43h344q48 0 84 -9t65 -29q37 -24 57.5 -66t20.5 -84t-20.5 -82.5t-55.5 -67.5zM232 381h143q55 0 91 31
q20 18 31.5 48.5t11.5 65.5t-11.5 63.5t-32.5 46.5q-17 14 -39.5 20t-54.5 6h-139v-281zM392 769l119 121h-53l-113 -61l-113 61h-53l118 -121h95z" />
    <glyph glyph-name="rcaron" unicode="&#x159;" horiz-adv-x="458" 
d="M337 482q-4 3 -9.5 4.5t-10.5 1.5q-12 0 -26 -11t-27 -29.5t-24 -42.5q-14 -34 -22 -74.5t-8 -83.5v-187l108 -19v-41h-282v41l77 19v420l-77 19v41h144l22 -132h4q23 68 62 105t86 37q39 0 65 -24.5t26 -65.5q0 -30 -15.5 -47.5t-41.5 -17.5t-41 16.5t-15 43.5
q0 6 1 11.5t4 15.5zM297 639l83 141h-53l-83 -91l-80 91h-56l83 -141h106z" />
    <glyph glyph-name="Sacute" unicode="&#x15a;" horiz-adv-x="599" 
d="M321 -11q-59 0 -107.5 18t-80.5 51l-11 -58h-56v227h61q6 -95 48 -139t127 -44q71 0 107 27.5t36 81.5q0 43 -21.5 72t-62 52t-96.5 45q-63 26 -107 51.5t-66.5 62t-22.5 94.5q0 95 59.5 148t159.5 53q99 0 161 -56l8 45h56v-227h-57q0 96 -36 140t-113 44
q-137 0 -137 -125q0 -33 12 -54.5t43.5 -39.5t89.5 -43q83 -35 134 -68t74 -71.5t23 -91.5q0 -61 -28.5 -105t-79 -67t-117.5 -23zM261 770l61 77q14 18 26.5 28.5t24.5 15t24 4.5q17 0 27 -8t10 -22q0 -10 -7.5 -19.5t-23.5 -20t-42 -26.5l-47 -29h-53z" />
    <glyph glyph-name="sacute" unicode="&#x15b;" horiz-adv-x="503" 
d="M244 36q56 0 91.5 23t35.5 64q0 33 -22 53t-54.5 32.5t-65.5 21.5q-41 13 -79 30.5t-62 48.5t-24 82q0 72 52.5 115.5t146.5 43.5q80 0 126.5 -33.5t46.5 -91.5q0 -31 -14 -49.5t-40 -18.5q-23 0 -38 14t-15 36q0 19 10 34.5t26 22.5q-15 21 -38.5 30.5t-60.5 9.5
q-60 0 -90 -21.5t-30 -63.5q0 -30 14.5 -47.5t42.5 -29.5t69 -25q34 -10 67 -22.5t60 -30.5t43 -45t16 -67q0 -51 -28 -87.5t-77 -55.5t-113 -19q-88 0 -142 36t-54 97q0 32 14.5 50.5t41.5 18.5q24 0 40.5 -14t16.5 -37q0 -19 -10.5 -36t-25.5 -25q13 -19 46.5 -31.5
t76.5 -12.5zM235 639l49 76q29 45 46.5 62.5t38.5 17.5t33 -8.5t12 -26.5q0 -15 -20.5 -36.5t-67.5 -56.5l-38 -28h-53z" />
    <glyph glyph-name="Scircumflex" unicode="&#x15c;" horiz-adv-x="599" 
d="M321 -11q-59 0 -107.5 18t-80.5 51l-11 -58h-56v227h61q6 -95 48 -139t127 -44q71 0 107 27.5t36 81.5q0 43 -21.5 72t-62 52t-96.5 45q-63 26 -107 51.5t-66.5 62t-22.5 94.5q0 95 59.5 148t159.5 53q99 0 161 -56l8 45h56v-227h-57q0 96 -36 140t-113 44
q-137 0 -137 -125q0 -33 12 -54.5t43.5 -39.5t89.5 -43q83 -35 134 -68t74 -71.5t23 -91.5q0 -61 -28.5 -105t-79 -67t-117.5 -23zM454 769l-119 121h-95l-118 -121h53l113 61l113 -61h53z" />
    <glyph glyph-name="scircumflex" unicode="&#x15d;" horiz-adv-x="503" 
d="M244 36q56 0 91.5 23t35.5 64q0 33 -22 53t-54.5 32.5t-65.5 21.5q-41 13 -79 30.5t-62 48.5t-24 82q0 72 52.5 115.5t146.5 43.5q80 0 126.5 -33.5t46.5 -91.5q0 -31 -14 -49.5t-40 -18.5q-23 0 -38 14t-15 36q0 19 10 34.5t26 22.5q-15 21 -38.5 30.5t-60.5 9.5
q-60 0 -90 -21.5t-30 -63.5q0 -30 14.5 -47.5t42.5 -29.5t69 -25q34 -10 67 -22.5t60 -30.5t43 -45t16 -67q0 -51 -28 -87.5t-77 -55.5t-113 -19q-88 0 -142 36t-54 97q0 32 14.5 50.5t41.5 18.5q24 0 40.5 -14t16.5 -37q0 -19 -10.5 -36t-25.5 -25q13 -19 46.5 -31.5
t76.5 -12.5zM398 639l-89 151h-95l-88 -151h53l83 91l83 -91h53z" />
    <glyph glyph-name="uni015E" unicode="&#x15e;" horiz-adv-x="599" 
d="M321 -11q-59 0 -107.5 18t-80.5 51l-11 -58h-56v227h61q6 -95 48 -139t127 -44q71 0 107 27.5t36 81.5q0 43 -21.5 72t-62 52t-96.5 45q-63 26 -107 51.5t-66.5 62t-22.5 94.5q0 95 59.5 148t159.5 53q99 0 161 -56l8 45h56v-227h-57q0 96 -36 140t-113 44
q-137 0 -137 -125q0 -33 12 -54.5t43.5 -39.5t89.5 -43q83 -35 134 -68t74 -71.5t23 -91.5q0 -61 -28.5 -105t-79 -67t-117.5 -23zM298 -210q-53 0 -91 28l27 37q29 -20 59 -20q21 0 34 10t13 26q0 15 -14 22.5t-40 7.5q-11 0 -21 -1.5t-21 -4.5l-13 22l77 100h44l-46 -76
l1 -3q56 0 80 -16t24 -48q0 -40 -33 -62t-80 -22z" />
    <glyph glyph-name="uni015F" unicode="&#x15f;" horiz-adv-x="503" 
d="M244 36q56 0 91.5 23t35.5 64q0 33 -22 53t-54.5 32.5t-65.5 21.5q-41 13 -79 30.5t-62 48.5t-24 82q0 72 52.5 115.5t146.5 43.5q80 0 126.5 -33.5t46.5 -91.5q0 -31 -14 -49.5t-40 -18.5q-23 0 -38 14t-15 36q0 19 10 34.5t26 22.5q-15 21 -38.5 30.5t-60.5 9.5
q-60 0 -90 -21.5t-30 -63.5q0 -30 14.5 -47.5t42.5 -29.5t69 -25q34 -10 67 -22.5t60 -30.5t43 -45t16 -67q0 -51 -28 -87.5t-77 -55.5t-113 -19q-88 0 -142 36t-54 97q0 32 14.5 50.5t41.5 18.5q24 0 40.5 -14t16.5 -37q0 -19 -10.5 -36t-25.5 -25q13 -19 46.5 -31.5
t76.5 -12.5zM230 -210q-53 0 -91 28l27 37q29 -20 59 -20q21 0 34 10t13 26q0 15 -14 22.5t-40 7.5q-11 0 -21 -1.5t-21 -4.5l-13 22l77 100h44l-46 -76l1 -3q56 0 80 -16t24 -48q0 -40 -33 -62t-80 -22z" />
    <glyph glyph-name="Scaron" unicode="&#x160;" horiz-adv-x="599" 
d="M321 -11q-59 0 -107.5 18t-80.5 51l-11 -58h-56v227h61q6 -95 48 -139t127 -44q71 0 107 27.5t36 81.5q0 43 -21.5 72t-62 52t-96.5 45q-63 26 -107 51.5t-66.5 62t-22.5 94.5q0 95 59.5 148t159.5 53q99 0 161 -56l8 45h56v-227h-57q0 96 -36 140t-113 44
q-137 0 -137 -125q0 -33 12 -54.5t43.5 -39.5t89.5 -43q83 -35 134 -68t74 -71.5t23 -91.5q0 -61 -28.5 -105t-79 -67t-117.5 -23zM353 769l119 121h-53l-113 -61l-113 61h-53l118 -121h95z" />
    <glyph glyph-name="scaron" unicode="&#x161;" horiz-adv-x="503" 
d="M244 36q56 0 91.5 23t35.5 64q0 33 -22 53t-54.5 32.5t-65.5 21.5q-41 13 -79 30.5t-62 48.5t-24 82q0 72 52.5 115.5t146.5 43.5q80 0 126.5 -33.5t46.5 -91.5q0 -31 -14 -49.5t-40 -18.5q-23 0 -38 14t-15 36q0 19 10 34.5t26 22.5q-15 21 -38.5 30.5t-60.5 9.5
q-60 0 -90 -21.5t-30 -63.5q0 -30 14.5 -47.5t42.5 -29.5t69 -25q34 -10 67 -22.5t60 -30.5t43 -45t16 -67q0 -51 -28 -87.5t-77 -55.5t-113 -19q-88 0 -142 36t-54 97q0 32 14.5 50.5t41.5 18.5q24 0 40.5 -14t16.5 -37q0 -19 -10.5 -36t-25.5 -25q13 -19 46.5 -31.5
t76.5 -12.5zM315 639l83 141h-53l-83 -91l-80 91h-56l83 -141h106z" />
    <glyph glyph-name="uni0162" unicode="&#x162;" horiz-adv-x="658" 
d="M31 720h596v-210h-52l-32 150h-164v-593l106 -24v-43h-312v43l106 24v593h-165l-31 -150h-52v210zM304 -210q-53 0 -91 28l27 37q29 -20 59 -20q21 0 34 10t13 26q0 15 -14 22.5t-40 7.5q-11 0 -21 -1.5t-21 -4.5l-13 22l77 100h44l-46 -76l1 -3q56 0 80 -16t24 -48
q0 -40 -33 -62t-80 -22z" />
    <glyph glyph-name="uni0163" unicode="&#x163;" horiz-adv-x="341" 
d="M9 490v36l97 14l13 126l84 12v-138h128v-50h-128v-357q0 -34 1 -46.5t4 -20.5q3 -7 11 -9.5t26 -2.5h70v-29q-48 -18 -84.5 -26.5t-58.5 -8.5q-45 0 -58 37q-4 12 -6 31t-2 56v376h-97zM176 -210q-53 0 -91 28l27 37q29 -20 59 -20q21 0 34 10t13 26q0 15 -14 22.5
t-40 7.5q-11 0 -21 -1.5t-21 -4.5l-13 22l77 100h44l-46 -76l1 -3q56 0 80 -16t24 -48q0 -40 -33 -62t-80 -22z" />
    <glyph glyph-name="Tcaron" unicode="&#x164;" horiz-adv-x="658" 
d="M31 720h596v-210h-52l-32 150h-164v-593l106 -24v-43h-312v43l106 24v593h-165l-31 -150h-52v210zM378 769l119 121h-53l-113 -61l-113 61h-53l118 -121h95z" />
    <glyph glyph-name="tcaron" unicode="&#x165;" horiz-adv-x="341" 
d="M9 490v36l97 14l13 126l84 12v-138h128v-50h-128v-357q0 -34 1 -46.5t4 -20.5q3 -7 11 -9.5t26 -2.5h70v-29q-48 -18 -84.5 -26.5t-58.5 -8.5q-45 0 -58 37q-4 12 -6 31t-2 56v376h-97zM325 605h-40q0 33 -5 57t-9.5 44t-4.5 41q0 14 7.5 28.5t32.5 14.5q23 0 31 -14.5
t8 -28.5q0 -21 -5 -41t-10 -44t-5 -57z" />
    <glyph glyph-name="Tbar" unicode="&#x166;" horiz-adv-x="664" 
d="M104 356v65h456v-65h-456zM34 720h596v-210h-52l-32 150h-164v-593l106 -24v-43h-312v43l106 24v593h-165l-31 -150h-52v210z" />
    <glyph glyph-name="tbar" unicode="&#x167;" horiz-adv-x="349" 
d="M13 331v60h321v-60h-321zM13 490v36l97 14l13 126l84 12v-138h128v-50h-128v-357q0 -34 1 -46.5t4 -20.5q3 -7 11 -9.5t26 -2.5h70v-29q-48 -18 -84.5 -26.5t-58.5 -8.5q-45 0 -58 37q-4 12 -6 31t-2 56v376h-97z" />
    <glyph glyph-name="Utilde" unicode="&#x168;" horiz-adv-x="772" 
d="M592 259v397l-84 21v43h231v-43l-84 -21v-413q0 -124 -67 -189t-196 -65q-133 0 -204.5 66.5t-71.5 188.5v412l-84 21v43h268v-43l-84 -21v-395q0 -217 198 -217q94 0 136 51t42 164zM221 770q8 58 36 86.5t76 28.5q26 0 44.5 -8.5t34.5 -19t32 -19t35 -8.5q30 0 45 13
t20 37h45q-18 -121 -112 -121q-25 0 -44 8.5t-35 19.5t-31.5 19.5t-35.5 8.5q-30 0 -45 -12t-20 -33h-45z" />
    <glyph glyph-name="utilde" unicode="&#x169;" horiz-adv-x="633" 
d="M193 540v-283q0 -64 3.5 -96.5t12.5 -50.5q11 -24 33 -36.5t51 -12.5q27 0 52 10t44 27q41 37 45 115v267l-87 19v41h184v-480l77 -19v-41l-155 -10l-11 110h-4q-29 -51 -79 -80.5t-107 -29.5q-38 0 -69.5 14.5t-49.5 39.5q-19 28 -28 79t-9 136v221l-67 19v41h164z
M127 639q8 58 36 86.5t76 28.5q26 0 44.5 -8.5t34.5 -19t32 -19t35 -8.5q30 0 45 13t20 37h45q-18 -121 -112 -121q-25 0 -44 8.5t-35 19.5t-31.5 19.5t-35.5 8.5q-30 0 -45 -12t-20 -33h-45z" />
    <glyph glyph-name="Umacron" unicode="&#x16a;" horiz-adv-x="772" 
d="M592 259v397l-84 21v43h231v-43l-84 -21v-413q0 -124 -67 -189t-196 -65q-133 0 -204.5 66.5t-71.5 188.5v412l-84 21v43h268v-43l-84 -21v-395q0 -217 198 -217q94 0 136 51t42 164zM265 796v65h279v-65h-279z" />
    <glyph glyph-name="umacron" unicode="&#x16b;" horiz-adv-x="633" 
d="M193 540v-283q0 -64 3.5 -96.5t12.5 -50.5q11 -24 33 -36.5t51 -12.5q27 0 52 10t44 27q41 37 45 115v267l-87 19v41h184v-480l77 -19v-41l-155 -10l-11 110h-4q-29 -51 -79 -80.5t-107 -29.5q-38 0 -69.5 14.5t-49.5 39.5q-19 28 -28 79t-9 136v221l-67 19v41h164z
M171 665v65h279v-65h-279z" />
    <glyph glyph-name="Ubreve" unicode="&#x16c;" horiz-adv-x="772" 
d="M592 259v397l-84 21v43h231v-43l-84 -21v-413q0 -124 -67 -189t-196 -65q-133 0 -204.5 66.5t-71.5 188.5v412l-84 21v43h268v-43l-84 -21v-395q0 -217 198 -217q94 0 136 51t42 164zM552 908h-48q-1 -38 -30.5 -55t-68.5 -17t-67.5 17t-30.5 55h-48q0 -63 39.5 -102
t106.5 -39q68 0 107.5 39t39.5 102z" />
    <glyph glyph-name="ubreve" unicode="&#x16d;" horiz-adv-x="633" 
d="M193 540v-283q0 -64 3.5 -96.5t12.5 -50.5q11 -24 33 -36.5t51 -12.5q27 0 52 10t44 27q41 37 45 115v267l-87 19v41h184v-480l77 -19v-41l-155 -10l-11 110h-4q-29 -51 -79 -80.5t-107 -29.5q-38 0 -69.5 14.5t-49.5 39.5q-19 28 -28 79t-9 136v221l-67 19v41h164z
M464 780h-48q0 -43 -27.5 -62.5t-77.5 -19.5q-39 0 -65 19.5t-28 62.5h-48q0 -67 37 -109t104 -42q65 0 108 40t45 111z" />
    <glyph glyph-name="Uring" unicode="&#x16e;" horiz-adv-x="772" 
d="M592 259v397l-84 21v43h231v-43l-84 -21v-413q0 -124 -67 -189t-196 -65q-133 0 -204.5 66.5t-71.5 188.5v412l-84 21v43h268v-43l-84 -21v-395q0 -217 198 -217q94 0 136 51t42 164zM330 824q0 32 22 54t53 22q32 0 54 -22t22 -54q0 -31 -22 -52.5t-54 -21.5
q-31 0 -53 21.5t-22 52.5zM384 824q0 -9 6 -15t15 -6q10 0 16.5 6t6.5 15q0 10 -6.5 16.5t-16.5 6.5q-9 0 -15 -6.5t-6 -16.5z" />
    <glyph glyph-name="uring" unicode="&#x16f;" horiz-adv-x="633" 
d="M193 540v-283q0 -64 3.5 -96.5t12.5 -50.5q11 -24 33 -36.5t51 -12.5q27 0 52 10t44 27q41 37 45 115v267l-87 19v41h184v-480l77 -19v-41l-155 -10l-11 110h-4q-29 -51 -79 -80.5t-107 -29.5q-38 0 -69.5 14.5t-49.5 39.5q-19 28 -28 79t-9 136v221l-67 19v41h164z
M227 713q0 36 24.5 61t59.5 25q36 0 61 -25t25 -61q0 -35 -25 -59.5t-61 -24.5q-35 0 -59.5 24.5t-24.5 59.5zM269 713q0 -18 12 -30t30 -12q19 0 31.5 12t12.5 30q0 19 -12.5 31.5t-31.5 12.5q-18 0 -30 -12.5t-12 -31.5z" />
    <glyph glyph-name="Uhungarumlaut" unicode="&#x170;" horiz-adv-x="772" 
d="M592 259v397l-84 21v43h231v-43l-84 -21v-413q0 -124 -67 -189t-196 -65q-133 0 -204.5 66.5t-71.5 188.5v412l-84 21v43h268v-43l-84 -21v-395q0 -217 198 -217q94 0 136 51t42 164zM291 770l61 77q14 18 26.5 28.5t24.5 15t24 4.5q17 0 27 -8t10 -22q0 -10 -7.5 -19.5
t-23.5 -20t-42 -26.5l-47 -29h-53zM471 770l61 77q14 18 26.5 28.5t24.5 15t24 4.5q17 0 27 -8t10 -22q0 -10 -7.5 -19.5t-23.5 -20t-42 -26.5l-47 -29h-53z" />
    <glyph glyph-name="uhungarumlaut" unicode="&#x171;" horiz-adv-x="633" 
d="M193 540v-283q0 -64 3.5 -96.5t12.5 -50.5q11 -24 33 -36.5t51 -12.5q27 0 52 10t44 27q41 37 45 115v267l-87 19v41h184v-480l77 -19v-41l-155 -10l-11 110h-4q-29 -51 -79 -80.5t-107 -29.5q-38 0 -69.5 14.5t-49.5 39.5q-19 28 -28 79t-9 136v221l-67 19v41h164z
M197 639l49 76q29 45 46.5 62.5t38.5 17.5t33 -8.5t12 -26.5q0 -15 -20.5 -36.5t-67.5 -56.5l-38 -28h-53zM363 639l49 76q29 45 46.5 62.5t38.5 17.5t33 -8.5t12 -26.5q0 -15 -20.5 -36.5t-67.5 -56.5l-38 -28h-53z" />
    <glyph glyph-name="Uogonek" unicode="&#x172;" horiz-adv-x="772" 
d="M592 259v397l-84 21v43h231v-43l-84 -21v-413q0 -124 -67 -189t-196 -65q-133 0 -204.5 66.5t-71.5 188.5v412l-84 21v43h268v-43l-84 -21v-395q0 -217 198 -217q94 0 136 51t42 164zM387 -210q-45 0 -72.5 23.5t-27.5 61.5q0 75 114 139h41q-27 -18 -45.5 -38t-28 -40.5
t-9.5 -40.5q0 -23 13 -35t37 -12q18 0 37 5t31 15l15 -22q-17 -27 -44 -41.5t-61 -14.5z" />
    <glyph glyph-name="uogonek" unicode="&#x173;" horiz-adv-x="633" 
d="M193 540v-283q0 -64 3.5 -96.5t12.5 -50.5q11 -24 33 -36.5t51 -12.5q27 0 52 10t44 27q41 37 45 115v267l-87 19v41h184v-480l77 -19v-41l-155 -10l-11 110h-4q-29 -51 -79 -80.5t-107 -29.5q-38 0 -69.5 14.5t-49.5 39.5q-19 28 -28 79t-9 136v221l-67 19v41h164z
M478 -210q-45 0 -72.5 23.5t-27.5 61.5q0 75 114 139h41q-27 -18 -45.5 -38t-28 -40.5t-9.5 -40.5q0 -23 13 -35t37 -12q18 0 37 5t31 15l15 -22q-17 -27 -44 -41.5t-61 -14.5z" />
    <glyph glyph-name="Wcircumflex" unicode="&#x174;" horiz-adv-x="1041" 
d="M737 94l155 563l-79 20v43h229v-43l-83 -21l-190 -656h-104l-147 481l-133 -481h-104l-208 656l-78 21v43h284v-43l-96 -21l165 -562h4l136 502l-13 60l-78 21v43h264v-43l-92 -21l164 -562h4zM689 769l-119 121h-95l-118 -121h53l113 61l113 -61h53z" />
    <glyph glyph-name="wcircumflex" unicode="&#x175;" horiz-adv-x="877" 
d="M168 480l103 -360l12 -59h5l12 59l117 430h72l121 -430l12 -59h4l12 59l100 360l-65 19v41h190v-41l-54 -19l-149 -490h-103l-119 390l-116 -390h-103l-153 490l-53 19v41h224v-41zM589 639l-89 151h-95l-88 -151h53l83 91l83 -91h53z" />
    <glyph glyph-name="Ycircumflex" unicode="&#x176;" horiz-adv-x="678" 
d="M359 336l174 320l-81 21v43h227v-43l-82 -21l-204 -374v-218l94 -21v-43h-288v43l94 21v202l-215 390l-83 21v43h276v-43l-84 -21zM525 770l-119 121h-95l-118 -121h53l113 61l113 -61h53z" />
    <glyph glyph-name="ycircumflex" unicode="&#x177;" horiz-adv-x="590" 
d="M514 480l-166 -456q-28 -77 -51 -124.5t-51 -68.5t-72 -21q-47 0 -80.5 25t-33.5 63q0 28 16 46.5t42 18.5q23 0 36.5 -12.5t13.5 -34.5q0 -14 -5.5 -27t-14.5 -23q2 -10 12 -13.5t17 -3.5q14 0 26 7t25.5 29.5t29.5 70.5l12 37l-207 487l-60 19v41h224l8 -41l-71 -19
l149 -392h4l126 392l-58 19v41h190v-41zM449 639l-89 151h-95l-88 -151h53l83 91l83 -91h53z" />
    <glyph glyph-name="Ydieresis" unicode="&#x178;" horiz-adv-x="678" 
d="M359 336l174 320l-81 21v43h227v-43l-82 -21l-204 -374v-218l94 -21v-43h-288v43l94 21v202l-215 390l-83 21v43h276v-43l-84 -21zM186 829q0 28 15.5 43.5t42.5 15.5t43 -16t16 -43t-15.5 -42.5t-43.5 -15.5q-27 0 -42.5 15.5t-15.5 42.5zM416 829q0 28 15.5 43.5
t42.5 15.5t43 -16t16 -43t-15.5 -42.5t-43.5 -15.5q-27 0 -42.5 15.5t-15.5 42.5z" />
    <glyph glyph-name="Zacute" unicode="&#x179;" horiz-adv-x="647" 
d="M511 60l32 163h57v-223h-563v61l426 599h-311l-32 -152h-52v212h509v-61l-426 -599h360zM302 770l61 77q14 18 26.5 28.5t24.5 15t24 4.5q17 0 27 -8t10 -22q0 -10 -7.5 -19.5t-23.5 -20t-42 -26.5l-47 -29h-53z" />
    <glyph glyph-name="zacute" unicode="&#x17a;" horiz-adv-x="538" 
d="M410 56l20 136h57v-192h-443v56l328 428h-234l-24 -131h-57v187h426v-56l-328 -428h255zM243 639l49 76q29 45 46.5 62.5t38.5 17.5t33 -8.5t12 -26.5q0 -15 -20.5 -36.5t-67.5 -56.5l-38 -28h-53z" />
    <glyph glyph-name="Zdotaccent" unicode="&#x17b;" horiz-adv-x="647" 
d="M511 60l32 163h57v-223h-563v61l426 599h-311l-32 -152h-52v212h509v-61l-426 -599h360zM267 832q0 29 17 46t45 17q29 0 46 -17t17 -46q0 -28 -17 -45t-46 -17t-45.5 16.5t-16.5 45.5z" />
    <glyph glyph-name="zdotaccent" unicode="&#x17c;" horiz-adv-x="538" 
d="M410 56l20 136h57v-192h-443v56l328 428h-234l-24 -131h-57v187h426v-56l-328 -428h255zM208 701q0 29 17 46t45 17q29 0 46 -17t17 -46q0 -28 -17 -45t-46 -17t-45.5 16.5t-16.5 45.5z" />
    <glyph glyph-name="Zcaron" unicode="&#x17d;" horiz-adv-x="647" 
d="M511 60l32 163h57v-223h-563v61l426 599h-311l-32 -152h-52v212h509v-61l-426 -599h360zM376 769l119 121h-53l-113 -61l-113 61h-53l118 -121h95z" />
    <glyph glyph-name="zcaron" unicode="&#x17e;" horiz-adv-x="538" 
d="M410 56l20 136h57v-192h-443v56l328 428h-234l-24 -131h-57v187h426v-56l-328 -428h255zM323 639l83 141h-53l-83 -91l-80 91h-56l83 -141h106z" />
    <glyph glyph-name="uni018F" unicode="&#x18f;" horiz-adv-x="698" 
d="M50 368h480q0 55 -9.5 106t-26.5 90q-25 58 -69 85t-112 27q-67 0 -118 -26.5t-89 -82.5l-33 29q49 71 106.5 102.5t141.5 31.5q197 0 277 -153q23 -44 35 -98.5t12 -116.5q0 -114 -39 -197.5t-110.5 -129t-169.5 -45.5q-132 0 -206 84t-74 232q0 14 1 27t3 35zM335 44
q85 0 135 66.5t59 192.5h-369v-43q0 -66 21.5 -114.5t61 -75t92.5 -26.5z" />
    <glyph glyph-name="uni01C4" unicode="&#x1c4;" horiz-adv-x="1413" 
d="M232 60h155q54 0 92.5 16t63.5 50q28 35 41.5 92t13.5 136q0 156 -55 232q-26 38 -67 56t-99 18h-145v-600zM48 720h336q149 0 232 -84q47 -48 72 -118t25 -150q0 -84 -26.5 -157.5t-73.5 -123.5q-83 -87 -238 -87h-327v43l84 21v592l-84 21v43zM1277 60l32 163h57v-223
h-563v61l426 599h-311l-32 -152h-52v212h509v-61l-426 -599h360zM1142 769l119 121h-53l-113 -61l-113 61h-53l118 -121h95z" />
    <glyph glyph-name="uni01C5" unicode="&#x1c5;" horiz-adv-x="1304" 
d="M232 60h155q54 0 92.5 16t63.5 50q28 35 41.5 92t13.5 136q0 156 -55 232q-26 38 -67 56t-99 18h-145v-600zM48 720h336q149 0 232 -84q47 -48 72 -118t25 -150q0 -84 -26.5 -157.5t-73.5 -123.5q-83 -87 -238 -87h-327v43l84 21v592l-84 21v43zM1176 56l20 136h57v-192
h-443v56l328 428h-234l-24 -131h-57v187h426v-56l-328 -428h255zM1089 639l83 141h-53l-83 -91l-80 91h-56l83 -141h106z" />
    <glyph glyph-name="uni01C6" unicode="&#x1c6;" horiz-adv-x="1158" 
d="M46 265q0 65 17 124t51 96q29 32 69 48.5t92 16.5q44 0 80.5 -17t65.5 -61v248l-77 19v41h174v-720l77 -19v-41l-155 -10l-8 82q-31 -46 -70 -64t-87 -18q-51 0 -92 15t-68 48q-32 39 -50.5 93.5t-18.5 118.5zM421 266q0 61 -9 106t-26 73q-16 26 -39 39.5t-61 13.5
q-34 0 -59.5 -12t-41.5 -35q-18 -25 -26 -71.5t-8 -106.5t9 -104.5t26 -73.5q17 -25 40.5 -39t60.5 -14q35 0 60.5 11.5t38.5 34.5q17 28 26 72.5t9 105.5zM1030 56l20 136h57v-192h-443v56l328 428h-234l-24 -131h-57v187h426v-56l-328 -428h255zM943 639l83 141h-53
l-83 -91l-80 91h-56l83 -141h106z" />
    <glyph glyph-name="uni01C7" unicode="&#x1c7;" horiz-adv-x="1212" 
d="M237 656v-596h272l34 173h55v-233h-555v43l94 21v592l-94 21v43h298v-43zM994 207v449l-99 21v43h278v-43l-79 -21v-438q0 -69 -29.5 -120.5t-82.5 -80t-124 -28.5q-62 0 -110 23.5t-74.5 65.5t-26.5 97q0 41 16.5 62.5t49.5 21.5q29 0 46 -16t17 -42q0 -23 -13 -46.5
t-30 -31.5q0 -32 34.5 -54t89.5 -22q71 0 104 40t33 120z" />
    <glyph glyph-name="uni01C8" unicode="&#x1c8;" horiz-adv-x="907" 
d="M237 656v-596h272l34 173h55v-233h-555v43l94 21v592l-94 21v43h298v-43zM824 540v-455q0 -74 -5 -116.5t-17 -69.5q-19 -43 -55.5 -66t-83.5 -23q-53 0 -88 27t-35 68q0 26 14.5 41.5t38.5 15.5q23 0 36 -14.5t13 -40.5q0 -14 -4 -25.5t-12 -19.5q2 -7 12.5 -11t26.5 -4
q35 0 48.5 28t13.5 101v504l-77 19v41h174zM713 701q0 29 17 46t45 17q29 0 46 -17t17 -46q0 -28 -17 -45t-46 -17t-45.5 16.5t-16.5 45.5z" />
    <glyph glyph-name="uni01C9" unicode="&#x1c9;" horiz-adv-x="592" 
d="M105 60v660l-77 19v41h174v-720l77 -19v-41h-251v41zM509 540v-455q0 -74 -5 -116.5t-17 -69.5q-19 -43 -55.5 -66t-83.5 -23q-53 0 -88 27t-35 68q0 26 14.5 41.5t38.5 15.5q23 0 36 -14.5t13 -40.5q0 -14 -4 -25.5t-12 -19.5q2 -7 12.5 -11t26.5 -4q35 0 48.5 28
t13.5 101v504l-77 19v41h174zM398 701q0 29 17 46t45 17q29 0 46 -17t17 -46q0 -28 -17 -45t-46 -17t-45.5 16.5t-16.5 45.5z" />
    <glyph glyph-name="uni01CA" unicode="&#x1ca;" horiz-adv-x="1376" 
d="M132 64v592l-84 21v43h191l374 -553v489l-84 21v43h233v-43l-84 -21v-656h-71l-410 599v-535l84 -21v-43h-233v43zM1158 207v449l-99 21v43h278v-43l-79 -21v-438q0 -69 -29.5 -120.5t-82.5 -80t-124 -28.5q-62 0 -110 23.5t-74.5 65.5t-26.5 97q0 41 16.5 62.5
t49.5 21.5q29 0 46 -16t17 -42q0 -23 -13 -46.5t-30 -31.5q0 -32 34.5 -54t89.5 -22q71 0 104 40t33 120z" />
    <glyph glyph-name="uni01CB" unicode="&#x1cb;" horiz-adv-x="1074" 
d="M132 64v592l-84 21v43h191l374 -553v489l-84 21v43h233v-43l-84 -21v-656h-71l-410 599v-535l84 -21v-43h-233v43zM991 540v-455q0 -74 -5 -116.5t-17 -69.5q-19 -43 -55.5 -66t-83.5 -23q-53 0 -88 27t-35 68q0 26 14.5 41.5t38.5 15.5q23 0 36 -14.5t13 -40.5
q0 -14 -4 -25.5t-12 -19.5q2 -7 12.5 -11t26.5 -4q35 0 48.5 28t13.5 101v504l-77 19v41h174zM880 701q0 29 17 46t45 17q29 0 46 -17t17 -46q0 -28 -17 -45t-46 -17t-45.5 16.5t-16.5 45.5z" />
    <glyph glyph-name="uni01CC" unicode="&#x1cc;" horiz-adv-x="939" 
d="M113 60v420l-77 19v41h144l22 -100h4q30 51 81 80.5t109 29.5q83 0 123 -54q20 -28 28.5 -78.5t8.5 -136.5v-221l77 -19v-41h-241v41l67 19v223q0 65 -3.5 97t-12.5 50q-12 24 -34.5 36.5t-53.5 12.5q-58 0 -100 -37q-41 -37 -45 -115v-267l67 -19v-41h-241v41zM856 540
v-455q0 -74 -5 -116.5t-17 -69.5q-19 -43 -55.5 -66t-83.5 -23q-53 0 -88 27t-35 68q0 26 14.5 41.5t38.5 15.5q23 0 36 -14.5t13 -40.5q0 -14 -4 -25.5t-12 -19.5q2 -7 12.5 -11t26.5 -4q35 0 48.5 28t13.5 101v504l-77 19v41h174zM745 701q0 29 17 46t45 17q29 0 46 -17
t17 -46q0 -28 -17 -45t-46 -17t-45.5 16.5t-16.5 45.5z" />
    <glyph glyph-name="uni01EA" unicode="&#x1ea;" horiz-adv-x="764" 
d="M711 368q0 -87 -26.5 -163.5t-73.5 -127.5q-41 -44 -98.5 -65.5t-132.5 -21.5q-76 0 -134 21t-97 63q-46 48 -71 120.5t-25 157.5q0 87 26.5 163.5t73.5 127.5q42 45 97.5 66t131.5 21t133.5 -20.5t98.5 -63.5q47 -48 72 -121t25 -157zM168 372q0 -83 14 -147.5
t40 -105.5q26 -37 65.5 -55.5t97.5 -18.5q106 0 156 66q27 37 41 98.5t14 144.5t-14 146t-41 102q-26 38 -66.5 56t-95.5 18q-53 0 -91.5 -16.5t-64.5 -49.5q-55 -73 -55 -238zM362 -210q-45 0 -72.5 23.5t-27.5 61.5q0 75 114 139h41q-27 -18 -45.5 -38t-28 -40.5
t-9.5 -40.5q0 -23 13 -35t37 -12q18 0 37 5t31 15l15 -22q-17 -27 -44 -41.5t-61 -14.5z" />
    <glyph glyph-name="uni01EB" unicode="&#x1eb;" horiz-adv-x="582" 
d="M536 275q0 -65 -19.5 -123.5t-54.5 -96.5q-30 -33 -74 -49t-100 -16q-55 0 -98 15.5t-73 47.5q-34 37 -52.5 91.5t-18.5 118.5q0 65 19 124.5t55 97.5q32 34 74.5 49.5t97.5 15.5t99 -15.5t74 -47.5q35 -37 53 -92.5t18 -119.5zM153 274q0 -61 9.5 -105.5t26.5 -73.5
q17 -25 40.5 -39t61.5 -14q69 0 103 47q18 26 26.5 72t8.5 106t-9.5 105t-26.5 73q-16 26 -40.5 39.5t-62.5 13.5q-70 0 -101 -46q-36 -56 -36 -178zM271 -210q-45 0 -72.5 23.5t-27.5 61.5q0 75 114 139h41q-27 -18 -45.5 -38t-28 -40.5t-9.5 -40.5q0 -23 13 -35t37 -12
q18 0 37 5t31 15l15 -22q-17 -27 -44 -41.5t-61 -14.5z" />
    <glyph glyph-name="uni01F1" unicode="&#x1f1;" horiz-adv-x="1407" 
d="M232 60h155q54 0 92.5 16t63.5 50q28 35 41.5 92t13.5 136q0 156 -55 232q-26 38 -67 56t-99 18h-145v-600zM48 720h336q149 0 232 -84q47 -48 72 -118t25 -150q0 -84 -26.5 -157.5t-73.5 -123.5q-83 -87 -238 -87h-327v43l84 21v592l-84 21v43zM1271 60l32 163h57v-223
h-563v61l426 599h-311l-32 -152h-52v212h509v-61l-426 -599h360z" />
    <glyph glyph-name="uni01F2" unicode="&#x1f2;" horiz-adv-x="1304" 
d="M232 60h155q54 0 92.5 16t63.5 50q28 35 41.5 92t13.5 136q0 156 -55 232q-26 38 -67 56t-99 18h-145v-600zM48 720h336q149 0 232 -84q47 -48 72 -118t25 -150q0 -84 -26.5 -157.5t-73.5 -123.5q-83 -87 -238 -87h-327v43l84 21v592l-84 21v43zM1176 56l20 136h57v-192
h-443v56l328 428h-234l-24 -131h-57v187h426v-56l-328 -428h255z" />
    <glyph glyph-name="uni01F3" unicode="&#x1f3;" horiz-adv-x="1158" 
d="M46 265q0 65 17 124t51 96q29 32 69 48.5t92 16.5q44 0 80.5 -17t65.5 -61v248l-77 19v41h174v-720l77 -19v-41l-155 -10l-8 82q-31 -46 -70 -64t-87 -18q-51 0 -92 15t-68 48q-32 39 -50.5 93.5t-18.5 118.5zM421 266q0 61 -9 106t-26 73q-16 26 -39 39.5t-61 13.5
q-34 0 -59.5 -12t-41.5 -35q-18 -25 -26 -71.5t-8 -106.5t9 -104.5t26 -73.5q17 -25 40.5 -39t60.5 -14q35 0 60.5 11.5t38.5 34.5q17 28 26 72.5t9 105.5zM1030 56l20 136h57v-192h-443v56l328 428h-234l-24 -131h-57v187h426v-56l-328 -428h255z" />
    <glyph glyph-name="Aringacute" unicode="&#x1fa;" horiz-adv-x="721" 
d="M286 763q0 32 22 54t53 22h1.5h1.5q16 21 28.5 33t25.5 17.5t27 5.5q17 0 27 -8t10 -22t-14 -26t-45 -32q14 -19 14 -44q0 -37 -29 -58l237 -641l80 -21v-43h-275v43l82 21l-59 178h-268l-61 -178l83 -21v-43h-234v43l82 21l240 640q-13 11 -21 26t-8 33zM342 626
l-117 -326h229l-108 326h-4zM340 763q0 -9 6 -15t15 -6q10 0 16.5 6t6.5 15q0 10 -6.5 16.5t-16.5 6.5q-9 0 -15 -6.5t-6 -16.5z" />
    <glyph glyph-name="aringacute" unicode="&#x1fb;" horiz-adv-x="537" 
d="M200 652l38 -33l-31 -29h-53zM318 698l-50 46q24 32 36.5 41.5t28.5 9.5q34 0 34 -31q0 -14 -9.5 -27t-39.5 -39zM38 117q0 78 73 123t242 70q-4 59 -11 92t-18 53q-14 26 -39 38.5t-54 12.5q-28 0 -50.5 -10t-30.5 -27q14 -10 20.5 -26t6.5 -30q0 -25 -16.5 -39.5
t-40.5 -14.5t-39.5 16t-15.5 45q0 42 29 71t73.5 44t89.5 15q41 0 75.5 -12.5t58.5 -36.5q62 -62 62 -220v-145q0 -49 6.5 -68t28.5 -19h45v-30q-72 -29 -112 -29q-31 0 -41.5 22.5t-10.5 86.5h-4q-31 -51 -82 -80t-110 -29q-63 0 -99 34t-36 93zM215 48q28 0 58.5 14.5
t51.5 40.5q16 20 23.5 47.5t7.5 64.5q0 17 -1 33.5t-3 31.5q-81 -16 -127 -34.5t-65 -44t-19 -63.5q0 -43 19.5 -66.5t54.5 -23.5zM175 681q0 36 24.5 61t59.5 25q36 0 61 -25t25 -61q0 -35 -25 -59.5t-61 -24.5q-35 0 -59.5 24.5t-24.5 59.5zM217 681q0 -18 12 -30t30 -12
q19 0 31.5 12t12.5 30q0 19 -12.5 31.5t-31.5 12.5q-18 0 -30 -12.5t-12 -31.5z" />
    <glyph glyph-name="AEacute" unicode="&#x1fc;" horiz-adv-x="1057" 
d="M844 238h-51l-18 102h-166v-280h302l31 163h58v-223h-585v43l94 21v178h-252l-98 -178l79 -21v-43h-247v43l94 21l337 602l-84 11v43h640v-212h-52l-32 154h-285v-262h166l18 102h51v-264zM509 656l-23 3l-197 -359h220v356zM604 770l61 77q14 18 26.5 28.5t24.5 15
t24 4.5q17 0 27 -8t10 -22q0 -10 -7.5 -19.5t-23.5 -20t-42 -26.5l-47 -29h-53z" />
    <glyph glyph-name="aeacute" unicode="&#x1fd;" horiz-adv-x="836" 
d="M38 117q0 78 73 123t242 70q-4 59 -11 92t-18 53q-14 26 -39 38.5t-54 12.5q-28 0 -50.5 -10t-30.5 -27q14 -10 20.5 -26t6.5 -30q0 -25 -16.5 -39.5t-40.5 -14.5t-39.5 16t-15.5 45q0 42 29 71t73.5 44t89.5 15q50 0 92 -25.5t56 -77.5h5q20 51 66 77t103 26
q102 0 157.5 -63.5t55.5 -175.5q0 -10 -0.5 -18.5t-2.5 -28.5h-349q0 -37 5 -67.5t15 -53.5q20 -46 57 -66t80 -20q47 0 86 19.5t70 53.5l32 -24q-23 -32 -53 -58.5t-69 -42t-92 -15.5q-67 0 -118.5 27.5t-80.5 81.5h-7q-31 -51 -82 -80t-110 -29q-63 0 -99 34t-36 93z
M573 496q-60 0 -93 -46t-39 -137h250v33q0 72 -30.5 111t-87.5 39zM215 48q28 0 58.5 14.5t51.5 40.5q16 20 23.5 47.5t7.5 64.5q0 17 -1 33.5t-3 31.5q-81 -16 -127 -34.5t-65 -44t-19 -63.5q0 -43 19.5 -66.5t54.5 -23.5zM381 639l49 76q29 45 46.5 62.5t38.5 17.5
t33 -8.5t12 -26.5q0 -15 -20.5 -36.5t-67.5 -56.5l-38 -28h-53z" />
    <glyph glyph-name="Oslashacute" unicode="&#x1fe;" horiz-adv-x="761" 
d="M71 -10l526 740h71l-526 -740h-71zM709 368q0 -87 -26.5 -163.5t-73.5 -127.5q-41 -44 -98.5 -65.5t-132.5 -21.5q-76 0 -134 21t-97 63q-46 48 -71 120.5t-25 157.5q0 87 26.5 163.5t73.5 127.5q42 45 97.5 66t131.5 21t133.5 -20.5t98.5 -63.5q47 -48 72 -121t25 -157z
M166 372q0 -83 14 -147.5t40 -105.5q26 -37 65.5 -55.5t97.5 -18.5q106 0 156 66q27 37 41 98.5t14 144.5t-14 146t-41 102q-26 38 -66.5 56t-95.5 18q-53 0 -91.5 -16.5t-64.5 -49.5q-55 -73 -55 -238zM351 770l61 77q14 18 26.5 28.5t24.5 15t24 4.5q17 0 27 -8t10 -22
q0 -10 -7.5 -19.5t-23.5 -20t-42 -26.5l-47 -29h-53z" />
    <glyph glyph-name="oslashacute" unicode="&#x1ff;" horiz-adv-x="582" 
d="M96 -60l334 642h64l-334 -642h-64zM536 275q0 -65 -19.5 -123.5t-54.5 -96.5q-30 -33 -74 -49t-100 -16q-55 0 -98 15.5t-73 47.5q-34 37 -52.5 91.5t-18.5 118.5q0 65 19 124.5t55 97.5q32 34 74.5 49.5t97.5 15.5t99 -15.5t74 -47.5q35 -37 53 -92.5t18 -119.5z
M153 274q0 -61 9.5 -105.5t26.5 -73.5q17 -25 40.5 -39t61.5 -14q69 0 103 47q18 26 26.5 72t8.5 106t-9.5 105t-26.5 73q-16 26 -40.5 39.5t-62.5 13.5q-70 0 -101 -46q-36 -56 -36 -178zM261 639l49 76q29 45 46.5 62.5t38.5 17.5t33 -8.5t12 -26.5q0 -15 -20.5 -36.5
t-67.5 -56.5l-38 -28h-53z" />
    <glyph glyph-name="uni0218" unicode="&#x218;" horiz-adv-x="599" 
d="M321 -11q-59 0 -107.5 18t-80.5 51l-11 -58h-56v227h61q6 -95 48 -139t127 -44q71 0 107 27.5t36 81.5q0 43 -21.5 72t-62 52t-96.5 45q-63 26 -107 51.5t-66.5 62t-22.5 94.5q0 95 59.5 148t159.5 53q99 0 161 -56l8 45h56v-227h-57q0 96 -36 140t-113 44
q-137 0 -137 -125q0 -33 12 -54.5t43.5 -39.5t89.5 -43q83 -35 134 -68t74 -71.5t23 -91.5q0 -61 -28.5 -105t-79 -67t-117.5 -23zM322 -44q26 0 40 -17t14 -48q0 -39 -19.5 -69.5t-61.5 -56.5l-22 27q29 23 40.5 39.5t12.5 33.5l-3 2q-4 -6 -18 -6q-16 0 -27.5 13t-11.5 32
q0 21 16 35.5t40 14.5z" />
    <glyph glyph-name="uni0219" unicode="&#x219;" horiz-adv-x="503" 
d="M244 36q56 0 91.5 23t35.5 64q0 33 -22 53t-54.5 32.5t-65.5 21.5q-41 13 -79 30.5t-62 48.5t-24 82q0 72 52.5 115.5t146.5 43.5q80 0 126.5 -33.5t46.5 -91.5q0 -31 -14 -49.5t-40 -18.5q-23 0 -38 14t-15 36q0 19 10 34.5t26 22.5q-15 21 -38.5 30.5t-60.5 9.5
q-60 0 -90 -21.5t-30 -63.5q0 -30 14.5 -47.5t42.5 -29.5t69 -25q34 -10 67 -22.5t60 -30.5t43 -45t16 -67q0 -51 -28 -87.5t-77 -55.5t-113 -19q-88 0 -142 36t-54 97q0 32 14.5 50.5t41.5 18.5q24 0 40.5 -14t16.5 -37q0 -19 -10.5 -36t-25.5 -25q13 -19 46.5 -31.5
t76.5 -12.5zM249 -44q26 0 40 -17t14 -48q0 -39 -19.5 -69.5t-61.5 -56.5l-22 27q29 23 40.5 39.5t12.5 33.5l-3 2q-4 -6 -18 -6q-16 0 -27.5 13t-11.5 32q0 21 16 35.5t40 14.5z" />
    <glyph glyph-name="uni021A" unicode="&#x21a;" horiz-adv-x="658" 
d="M31 720h596v-210h-52l-32 150h-164v-593l106 -24v-43h-312v43l106 24v593h-165l-31 -150h-52v210zM328 -44q26 0 40 -17t14 -48q0 -39 -19.5 -69.5t-61.5 -56.5l-22 27q29 23 40.5 39.5t12.5 33.5l-3 2q-4 -6 -18 -6q-16 0 -27.5 13t-11.5 32q0 21 16 35.5t40 14.5z" />
    <glyph glyph-name="uni021B" unicode="&#x21b;" horiz-adv-x="341" 
d="M9 490v36l97 14l13 126l84 12v-138h128v-50h-128v-357q0 -34 1 -46.5t4 -20.5q3 -7 11 -9.5t26 -2.5h70v-29q-48 -18 -84.5 -26.5t-58.5 -8.5q-45 0 -58 37q-4 12 -6 31t-2 56v376h-97zM174 -44q26 0 40 -17t14 -48q0 -39 -19.5 -69.5t-61.5 -56.5l-22 27
q29 23 40.5 39.5t12.5 33.5l-3 2q-4 -6 -18 -6q-16 0 -27.5 13t-11.5 32q0 21 16 35.5t40 14.5z" />
    <glyph glyph-name="uni0237" unicode="&#x237;" horiz-adv-x="284" 
d="M201 540v-455q0 -74 -5 -116.5t-17 -69.5q-19 -43 -55.5 -66t-83.5 -23q-35 0 -63 12.5t-44 34t-16 48.5q0 26 14.5 41.5t38.5 15.5q23 0 36 -14.5t13 -40.5q0 -14 -4 -25.5t-12 -19.5q2 -7 12.5 -11t26.5 -4q24 0 37.5 12t19 40.5t5.5 76.5v504l-77 19v41h174z" />
    <glyph glyph-name="uni0259" unicode="&#x259;" horiz-adv-x="544" 
d="M47 276h349q0 38 -5 68t-15 53q-19 47 -56 66.5t-81 19.5q-47 0 -86 -19.5t-70 -53.5l-32 24q24 32 53.5 58.5t69 42t91.5 15.5q69 0 122 -29.5t81 -86.5q15 -31 22 -68.5t7 -81.5q0 -140 -64.5 -217t-175.5 -77q-102 0 -157.5 63.5t-55.5 175.5q0 10 0.5 19t2.5 28z
M263 44q60 0 93 46t39 137h-250v-33q0 -72 30.5 -111t87.5 -39z" />
    <glyph glyph-name="apostrophe" unicode="&#x2bc;" horiz-adv-x="175" 
d="M91 790q26 0 40 -17t14 -48q0 -39 -23.5 -73.5t-69.5 -62.5l-22 27q32 26 48 46t17 37l-3 2q-1 -2 -7 -4t-11 -2q-16 0 -27.5 13t-11.5 32q0 21 16 35.5t40 14.5z" />
    <glyph glyph-name="circumflex" unicode="&#x2c6;" horiz-adv-x="352" 
d="M312 639l-89 151h-95l-88 -151h53l83 91l83 -91h53z" />
    <glyph glyph-name="caron" unicode="&#x2c7;" horiz-adv-x="352" 
d="M229 639l83 141h-53l-83 -91l-80 91h-56l83 -141h106z" />
    <glyph glyph-name="breve" unicode="&#x2d8;" horiz-adv-x="364" 
d="M329 780h-48q0 -43 -27.5 -62.5t-77.5 -19.5q-39 0 -65 19.5t-28 62.5h-48q0 -67 37 -109t104 -42q65 0 108 40t45 111z" />
    <glyph glyph-name="dotaccent" unicode="&#x2d9;" horiz-adv-x="185" 
d="M30 701q0 29 17 46t45 17q29 0 46 -17t17 -46q0 -28 -17 -45t-46 -17t-45.5 16.5t-16.5 45.5z" />
    <glyph glyph-name="ring" unicode="&#x2da;" horiz-adv-x="240" 
d="M35 713q0 36 24.5 61t59.5 25q36 0 61 -25t25 -61q0 -35 -25 -59.5t-61 -24.5q-35 0 -59.5 24.5t-24.5 59.5zM77 713q0 -18 12 -30t30 -12q19 0 31.5 12t12.5 30q0 19 -12.5 31.5t-31.5 12.5q-18 0 -30 -12.5t-12 -31.5z" />
    <glyph glyph-name="ogonek" unicode="&#x2db;" horiz-adv-x="275" 
d="M135 -210q-45 0 -72.5 23.5t-27.5 61.5q0 75 114 139h41q-27 -18 -45.5 -38t-28 -40.5t-9.5 -40.5q0 -23 13 -35t37 -12q18 0 37 5t31 15l15 -22q-17 -27 -44 -41.5t-61 -14.5z" />
    <glyph glyph-name="tilde" unicode="&#x2dc;" horiz-adv-x="398" 
d="M15 639q8 58 36 86.5t76 28.5q26 0 44.5 -8.5t34.5 -19t32 -19t35 -8.5q30 0 45 13t20 37h45q-18 -121 -112 -121q-25 0 -44 8.5t-35 19.5t-31.5 19.5t-35.5 8.5q-30 0 -45 -12t-20 -33h-45z" />
    <glyph glyph-name="hungarumlaut" unicode="&#x2dd;" horiz-adv-x="425" 
d="M40 639l49 76q29 45 46.5 62.5t38.5 17.5t33 -8.5t12 -26.5q0 -15 -20.5 -36.5t-67.5 -56.5l-38 -28h-53zM206 639l49 76q29 45 46.5 62.5t38.5 17.5t33 -8.5t12 -26.5q0 -15 -20.5 -36.5t-67.5 -56.5l-38 -28h-53z" />
    <glyph glyph-name="gravecomb" unicode="&#x300;" 
d="M170 715l49 -76h-53l-38 28q-47 35 -67.5 56.5t-20.5 36.5q0 18 12 26.5t33 8.5t39 -17.5t46 -62.5z" />
    <glyph glyph-name="acutecomb" unicode="&#x301;" 
d="M40 639l49 76q29 45 46.5 62.5t38.5 17.5t33 -8.5t12 -26.5q0 -15 -20.5 -36.5t-67.5 -56.5l-38 -28h-53z" />
    <glyph glyph-name="uni0302" unicode="&#x302;" 
d="M312 639l-89 151h-95l-88 -151h53l83 91l83 -91h53z" />
    <glyph glyph-name="tildecomb" unicode="&#x303;" 
d="M15 639q8 58 36 86.5t76 28.5q26 0 44.5 -8.5t34.5 -19t32 -19t35 -8.5q30 0 45 13t20 37h45q-18 -121 -112 -121q-25 0 -44 8.5t-35 19.5t-31.5 19.5t-35.5 8.5q-30 0 -45 -12t-20 -33h-45z" />
    <glyph glyph-name="uni0304" unicode="&#x304;" 
d="M25 665v65h279v-65h-279z" />
    <glyph glyph-name="uni0306" unicode="&#x306;" 
d="M329 780h-48q0 -43 -27.5 -62.5t-77.5 -19.5q-39 0 -65 19.5t-28 62.5h-48q0 -67 37 -109t104 -42q65 0 108 40t45 111z" />
    <glyph glyph-name="uni0307" unicode="&#x307;" 
d="M30 701q0 29 17 46t45 17q29 0 46 -17t17 -46q0 -28 -17 -45t-46 -17t-45.5 16.5t-16.5 45.5z" />
    <glyph glyph-name="uni0308" unicode="&#x308;" 
d="M30 705q0 28 15.5 43.5t42.5 15.5t43 -16t16 -43t-15.5 -42.5t-43.5 -15.5q-27 0 -42.5 15.5t-15.5 42.5zM260 705q0 28 15.5 43.5t42.5 15.5t43 -16t16 -43t-15.5 -42.5t-43.5 -15.5q-27 0 -42.5 15.5t-15.5 42.5z" />
    <glyph glyph-name="uni030A" unicode="&#x30a;" 
d="M35 713q0 36 24.5 61t59.5 25q36 0 61 -25t25 -61q0 -35 -25 -59.5t-61 -24.5q-35 0 -59.5 24.5t-24.5 59.5zM77 713q0 -18 12 -30t30 -12q19 0 31.5 12t12.5 30q0 19 -12.5 31.5t-31.5 12.5q-18 0 -30 -12.5t-12 -31.5z" />
    <glyph glyph-name="uni030B" unicode="&#x30b;" 
d="M40 639l49 76q29 45 46.5 62.5t38.5 17.5t33 -8.5t12 -26.5q0 -15 -20.5 -36.5t-67.5 -56.5l-38 -28h-53zM206 639l49 76q29 45 46.5 62.5t38.5 17.5t33 -8.5t12 -26.5q0 -15 -20.5 -36.5t-67.5 -56.5l-38 -28h-53z" />
    <glyph glyph-name="uni030C" unicode="&#x30c;" 
d="M229 639l83 141h-53l-83 -91l-80 91h-56l83 -141h106z" />
    <glyph glyph-name="dotbelowcomb" unicode="&#x323;" 
d="M30 -128q0 29 17 46t45 17q29 0 46 -17t17 -46q0 -28 -17 -45t-46 -17t-45.5 16.5t-16.5 45.5z" />
    <glyph glyph-name="commaaccentcomb" unicode="&#x326;" 
d="M91 -44q26 0 40 -17t14 -48q0 -39 -19.5 -69.5t-61.5 -56.5l-22 27q29 23 40.5 39.5t12.5 33.5l-3 2q-4 -6 -18 -6q-16 0 -27.5 13t-11.5 32q0 21 16 35.5t40 14.5z" />
    <glyph glyph-name="uni0327" unicode="&#x327;" 
d="M116 -210q-53 0 -91 28l27 37q29 -20 59 -20q21 0 34 10t13 26q0 15 -14 22.5t-40 7.5q-11 0 -21 -1.5t-21 -4.5l-13 22l77 100h44l-46 -76l1 -3q56 0 80 -16t24 -48q0 -40 -33 -62t-80 -22z" />
    <glyph glyph-name="uni0328" unicode="&#x328;" 
d="M135 -210q-45 0 -72.5 23.5t-27.5 61.5q0 75 114 139h41q-27 -18 -45.5 -38t-28 -40.5t-9.5 -40.5q0 -23 13 -35t37 -12q18 0 37 5t31 15l15 -22q-17 -27 -44 -41.5t-61 -14.5z" />
    <glyph glyph-name="uni03BC.1" unicode="&#x3bc;" horiz-adv-x="639" 
d="M99 -179v659l-67 19v41h164v-283q0 -64 3.5 -96.5t12.5 -50.5q23 -49 84 -49q26 0 51.5 10t44.5 27q21 20 31.5 46.5t13.5 68.5v267l-87 19v41h184v-480l77 -19v-41l-155 -10l-11 110h-4q-32 -52 -74.5 -81t-88.5 -29q-35 0 -57.5 17.5t-30.5 51.5h-4l10 -238h-97z" />
    <glyph glyph-name="uni1E0C" unicode="&#x1e0c;" horiz-adv-x="766" 
d="M232 60h155q54 0 92.5 16t63.5 50q28 35 41.5 92t13.5 136q0 156 -55 232q-26 38 -67 56t-99 18h-145v-600zM48 720h336q149 0 232 -84q47 -48 72 -118t25 -150q0 -84 -26.5 -157.5t-73.5 -123.5q-83 -87 -238 -87h-327v43l84 21v592l-84 21v43zM265 -128q0 29 17 46
t45 17q29 0 46 -17t17 -46q0 -28 -17 -45t-46 -17t-45.5 16.5t-16.5 45.5z" />
    <glyph glyph-name="uni1E0D" unicode="&#x1e0d;" horiz-adv-x="620" 
d="M46 265q0 65 17 124t51 96q29 32 69 48.5t92 16.5q44 0 80.5 -17t65.5 -61v248l-77 19v41h174v-720l77 -19v-41l-155 -10l-8 82q-31 -46 -70 -64t-87 -18q-51 0 -92 15t-68 48q-32 39 -50.5 93.5t-18.5 118.5zM421 266q0 61 -9 106t-26 73q-16 26 -39 39.5t-61 13.5
q-34 0 -59.5 -12t-41.5 -35q-18 -25 -26 -71.5t-8 -106.5t9 -104.5t26 -73.5q17 -25 40.5 -39t60.5 -14q35 0 60.5 11.5t38.5 34.5q17 28 26 72.5t9 105.5zM213 -128q0 29 17 46t45 17q29 0 46 -17t17 -46q0 -28 -17 -45t-46 -17t-45.5 16.5t-16.5 45.5z" />
    <glyph glyph-name="uni1E24" unicode="&#x1e24;" horiz-adv-x="803" 
d="M671 656v-592l84 -21v-43h-268v43l84 21v277h-339v-277l84 -21v-43h-268v43l84 21v592l-84 21v43h268v-43l-84 -21v-257h339v257l-84 21v43h268v-43zM342 -128q0 29 17 46t45 17q29 0 46 -17t17 -46q0 -28 -17 -45t-46 -17t-45.5 16.5t-16.5 45.5z" />
    <glyph glyph-name="uni1E25" unicode="&#x1e25;" horiz-adv-x="644" 
d="M448 60v223q0 65 -3.5 97t-12.5 50q-24 49 -88 49q-28 0 -54 -10t-46 -27q-22 -19 -32.5 -45.5t-12.5 -65.5v-271l67 -19v-41h-241v41l77 19v660l-77 19v41h174v-334q30 48 79.5 76t106.5 28q40 0 72 -14t51 -40q20 -28 28.5 -78.5t8.5 -136.5v-221l77 -19v-41h-241v41z
M261 -128q0 29 17 46t45 17q29 0 46 -17t17 -46q0 -28 -17 -45t-46 -17t-45.5 16.5t-16.5 45.5z" />
    <glyph glyph-name="uni1E44" unicode="&#x1e44;" horiz-adv-x="801" 
d="M132 64v592l-84 21v43h191l374 -553v489l-84 21v43h233v-43l-84 -21v-656h-71l-410 599v-535l84 -21v-43h-233v43zM338 832q0 29 17 46t45 17q29 0 46 -17t17 -46q0 -28 -17 -45t-46 -17t-45.5 16.5t-16.5 45.5z" />
    <glyph glyph-name="uni1E45" unicode="&#x1e45;" horiz-adv-x="655" 
d="M113 60v420l-77 19v41h144l22 -100h4q30 51 81 80.5t109 29.5q83 0 123 -54q20 -28 28.5 -78.5t8.5 -136.5v-221l77 -19v-41h-241v41l67 19v223q0 65 -3.5 97t-12.5 50q-12 24 -34.5 36.5t-53.5 12.5q-58 0 -100 -37q-41 -37 -45 -115v-267l67 -19v-41h-241v41zM267 701
q0 29 17 46t45 17q29 0 46 -17t17 -46q0 -28 -17 -45t-46 -17t-45.5 16.5t-16.5 45.5z" />
    <glyph glyph-name="uni1E5A" unicode="&#x1e5a;" horiz-adv-x="706" 
d="M543 382q-18 -14 -42 -24t-59 -17q9 -9 19.5 -23t20.5 -31l133 -225l89 -19v-43h-206v43l-144 280h-122v-259l95 -21v-43h-279v43l84 21v592l-84 21v43h344q48 0 84 -9t65 -29q37 -24 57.5 -66t20.5 -84t-20.5 -82.5t-55.5 -67.5zM232 381h143q55 0 91 31
q20 18 31.5 48.5t11.5 65.5t-11.5 63.5t-32.5 46.5q-17 14 -39.5 20t-54.5 6h-139v-281zM319 -128q0 29 17 46t45 17q29 0 46 -17t17 -46q0 -28 -17 -45t-46 -17t-45.5 16.5t-16.5 45.5z" />
    <glyph glyph-name="uni1E5B" unicode="&#x1e5b;" horiz-adv-x="458" 
d="M337 482q-4 3 -9.5 4.5t-10.5 1.5q-12 0 -26 -11t-27 -29.5t-24 -42.5q-14 -34 -22 -74.5t-8 -83.5v-187l108 -19v-41h-282v41l77 19v420l-77 19v41h144l22 -132h4q23 68 62 105t86 37q39 0 65 -24.5t26 -65.5q0 -30 -15.5 -47.5t-41.5 -17.5t-41 16.5t-15 43.5
q0 6 1 11.5t4 15.5zM99 -128q0 29 17 46t45 17q29 0 46 -17t17 -46q0 -28 -17 -45t-46 -17t-45.5 16.5t-16.5 45.5z" />
    <glyph glyph-name="uni1E62" unicode="&#x1e62;" horiz-adv-x="599" 
d="M321 -11q-59 0 -107.5 18t-80.5 51l-11 -58h-56v227h61q6 -95 48 -139t127 -44q71 0 107 27.5t36 81.5q0 43 -21.5 72t-62 52t-96.5 45q-63 26 -107 51.5t-66.5 62t-22.5 94.5q0 95 59.5 148t159.5 53q99 0 161 -56l8 45h56v-227h-57q0 96 -36 140t-113 44
q-137 0 -137 -125q0 -33 12 -54.5t43.5 -39.5t89.5 -43q83 -35 134 -68t74 -71.5t23 -91.5q0 -61 -28.5 -105t-79 -67t-117.5 -23zM259 -128q0 29 17 46t45 17q29 0 46 -17t17 -46q0 -28 -17 -45t-46 -17t-45.5 16.5t-16.5 45.5z" />
    <glyph glyph-name="uni1E63" unicode="&#x1e63;" horiz-adv-x="503" 
d="M244 36q56 0 91.5 23t35.5 64q0 33 -22 53t-54.5 32.5t-65.5 21.5q-41 13 -79 30.5t-62 48.5t-24 82q0 72 52.5 115.5t146.5 43.5q80 0 126.5 -33.5t46.5 -91.5q0 -31 -14 -49.5t-40 -18.5q-23 0 -38 14t-15 36q0 19 10 34.5t26 22.5q-15 21 -38.5 30.5t-60.5 9.5
q-60 0 -90 -21.5t-30 -63.5q0 -30 14.5 -47.5t42.5 -29.5t69 -25q34 -10 67 -22.5t60 -30.5t43 -45t16 -67q0 -51 -28 -87.5t-77 -55.5t-113 -19q-88 0 -142 36t-54 97q0 32 14.5 50.5t41.5 18.5q24 0 40.5 -14t16.5 -37q0 -19 -10.5 -36t-25.5 -25q13 -19 46.5 -31.5
t76.5 -12.5zM178 -128q0 29 17 46t45 17q29 0 46 -17t17 -46q0 -28 -17 -45t-46 -17t-45.5 16.5t-16.5 45.5z" />
    <glyph glyph-name="uni1E6C" unicode="&#x1e6c;" horiz-adv-x="658" 
d="M31 720h596v-210h-52l-32 150h-164v-593l106 -24v-43h-312v43l106 24v593h-165l-31 -150h-52v210zM265 -128q0 29 17 46t45 17q29 0 46 -17t17 -46q0 -28 -17 -45t-46 -17t-45.5 16.5t-16.5 45.5z" />
    <glyph glyph-name="uni1E6D" unicode="&#x1e6d;" horiz-adv-x="341" 
d="M9 490v36l97 14l13 126l84 12v-138h128v-50h-128v-357q0 -34 1 -46.5t4 -20.5q3 -7 11 -9.5t26 -2.5h70v-29q-48 -18 -84.5 -26.5t-58.5 -8.5q-45 0 -58 37q-4 12 -6 31t-2 56v376h-97zM101 -128q0 29 17 46t45 17q29 0 46 -17t17 -46q0 -28 -17 -45t-46 -17t-45.5 16.5
t-16.5 45.5z" />
    <glyph glyph-name="Wgrave" unicode="&#x1e80;" horiz-adv-x="1041" 
d="M737 94l155 563l-79 20v43h229v-43l-83 -21l-190 -656h-104l-147 481l-133 -481h-104l-208 656l-78 21v43h284v-43l-96 -21l165 -562h4l136 502l-13 60l-78 21v43h264v-43l-92 -21l164 -562h4zM516 847l61 -77h-53l-47 29q-25 16 -41.5 26.5t-24 20t-7.5 19.5q0 14 10 22
t27 8q13 0 24.5 -4.5t24 -15t26.5 -28.5z" />
    <glyph glyph-name="wgrave" unicode="&#x1e81;" horiz-adv-x="877" 
d="M168 480l103 -360l12 -59h5l12 59l117 430h72l121 -430l12 -59h4l12 59l100 360l-65 19v41h190v-41l-54 -19l-149 -490h-103l-119 390l-116 -390h-103l-153 490l-53 19v41h224v-41zM448 715l49 -76h-53l-38 28q-47 35 -67.5 56.5t-20.5 36.5q0 18 12 26.5t33 8.5
t39 -17.5t46 -62.5z" />
    <glyph glyph-name="Wacute" unicode="&#x1e82;" horiz-adv-x="1041" 
d="M737 94l155 563l-79 20v43h229v-43l-83 -21l-190 -656h-104l-147 481l-133 -481h-104l-208 656l-78 21v43h284v-43l-96 -21l165 -562h4l136 502l-13 60l-78 21v43h264v-43l-92 -21l164 -562h4zM496 770l61 77q14 18 26.5 28.5t24.5 15t24 4.5q17 0 27 -8t10 -22
q0 -10 -7.5 -19.5t-23.5 -20t-42 -26.5l-47 -29h-53z" />
    <glyph glyph-name="wacute" unicode="&#x1e83;" horiz-adv-x="877" 
d="M168 480l103 -360l12 -59h5l12 59l117 430h72l121 -430l12 -59h4l12 59l100 360l-65 19v41h190v-41l-54 -19l-149 -490h-103l-119 390l-116 -390h-103l-153 490l-53 19v41h224v-41zM426 639l49 76q29 45 46.5 62.5t38.5 17.5t33 -8.5t12 -26.5q0 -15 -20.5 -36.5
t-67.5 -56.5l-38 -28h-53z" />
    <glyph glyph-name="Wdieresis" unicode="&#x1e84;" horiz-adv-x="1041" 
d="M737 94l155 563l-79 20v43h229v-43l-83 -21l-190 -656h-104l-147 481l-133 -481h-104l-208 656l-78 21v43h284v-43l-96 -21l165 -562h4l136 502l-13 60l-78 21v43h264v-43l-92 -21l164 -562h4zM350 828q0 28 15.5 43.5t42.5 15.5t43 -16t16 -43t-15.5 -42.5t-43.5 -15.5
q-27 0 -42.5 15.5t-15.5 42.5zM580 828q0 28 15.5 43.5t42.5 15.5t43 -16t16 -43t-15.5 -42.5t-43.5 -15.5q-27 0 -42.5 15.5t-15.5 42.5z" />
    <glyph glyph-name="wdieresis" unicode="&#x1e85;" horiz-adv-x="877" 
d="M168 480l103 -360l12 -59h5l12 59l117 430h72l121 -430l12 -59h4l12 59l100 360l-65 19v41h190v-41l-54 -19l-149 -490h-103l-119 390l-116 -390h-103l-153 490l-53 19v41h224v-41zM280 705q0 28 15.5 43.5t42.5 15.5t43 -16t16 -43t-15.5 -42.5t-43.5 -15.5
q-27 0 -42.5 15.5t-15.5 42.5zM510 705q0 28 15.5 43.5t42.5 15.5t43 -16t16 -43t-15.5 -42.5t-43.5 -15.5q-27 0 -42.5 15.5t-15.5 42.5z" />
    <glyph glyph-name="uni1E92" unicode="&#x1e92;" horiz-adv-x="647" 
d="M511 60l32 163h57v-223h-563v61l426 599h-311l-32 -152h-52v212h509v-61l-426 -599h360zM274 -128q0 29 17 46t45 17q29 0 46 -17t17 -46q0 -28 -17 -45t-46 -17t-45.5 16.5t-16.5 45.5z" />
    <glyph glyph-name="uni1E93" unicode="&#x1e93;" horiz-adv-x="538" 
d="M410 56l20 136h57v-192h-443v56l328 428h-234l-24 -131h-57v187h426v-56l-328 -428h255zM203 -128q0 29 17 46t45 17q29 0 46 -17t17 -46q0 -28 -17 -45t-46 -17t-45.5 16.5t-16.5 45.5z" />
    <glyph glyph-name="uni1EB8" unicode="&#x1eb8;" horiz-adv-x="685" 
d="M472 238h-51l-18 102h-166v-280h302l31 163h58v-223h-585v43l94 21v592l-94 21v43h563v-212h-52l-32 154h-285v-262h166l18 102h51v-264zM291 -128q0 29 17 46t45 17q29 0 46 -17t17 -46q0 -28 -17 -45t-46 -17t-45.5 16.5t-16.5 45.5z" />
    <glyph glyph-name="uni1EB9" unicode="&#x1eb9;" horiz-adv-x="544" 
d="M497 264h-349q0 -73 20 -121q20 -46 57 -66t80 -20q47 0 86 19.5t70 53.5l32 -24q-35 -48 -85 -82t-129 -34q-69 0 -122 29.5t-81 86.5q-15 31 -22 69t-7 81q0 140 64.5 217t175.5 77q102 0 157.5 -63.5t55.5 -175.5q0 -10 -0.5 -18.5t-2.5 -28.5zM281 496
q-120 0 -132 -183h250v33q0 72 -30.5 111t-87.5 39zM220 -128q0 29 17 46t45 17q29 0 46 -17t17 -46q0 -28 -17 -45t-46 -17t-45.5 16.5t-16.5 45.5z" />
    <glyph glyph-name="uni1EBC" unicode="&#x1ebc;" horiz-adv-x="685" 
d="M472 238h-51l-18 102h-166v-280h302l31 163h58v-223h-585v43l94 21v592l-94 21v43h563v-212h-52l-32 154h-285v-262h166l18 102h51v-264zM162 770q8 58 36 86.5t76 28.5q26 0 44.5 -8.5t34.5 -19t32 -19t35 -8.5q30 0 45 13t20 37h45q-18 -121 -112 -121q-25 0 -44 8.5
t-35 19.5t-31.5 19.5t-35.5 8.5q-30 0 -45 -12t-20 -33h-45z" />
    <glyph glyph-name="uni1EBD" unicode="&#x1ebd;" horiz-adv-x="544" 
d="M497 264h-349q0 -73 20 -121q20 -46 57 -66t80 -20q47 0 86 19.5t70 53.5l32 -24q-35 -48 -85 -82t-129 -34q-69 0 -122 29.5t-81 86.5q-15 31 -22 69t-7 81q0 140 64.5 217t175.5 77q102 0 157.5 -63.5t55.5 -175.5q0 -10 -0.5 -18.5t-2.5 -28.5zM281 496
q-120 0 -132 -183h250v33q0 72 -30.5 111t-87.5 39zM101 639q8 58 36 86.5t76 28.5q26 0 44.5 -8.5t34.5 -19t32 -19t35 -8.5q30 0 45 13t20 37h45q-18 -121 -112 -121q-25 0 -44 8.5t-35 19.5t-31.5 19.5t-35.5 8.5q-30 0 -45 -12t-20 -33h-45z" />
    <glyph glyph-name="uni1ECA" unicode="&#x1eca;" horiz-adv-x="374" 
d="M237 656v-592l94 -21v-43h-288v43l94 21v592l-94 21v43h288v-43zM126 -128q0 29 17 46t45 17q29 0 46 -17t17 -46q0 -28 -17 -45t-46 -17t-45.5 16.5t-16.5 45.5z" />
    <glyph glyph-name="uni1ECB" unicode="&#x1ecb;" horiz-adv-x="312" 
d="M113 480l-77 19v41h174v-480l77 -19v-41h-251v41l77 19v420zM99 701q0 29 17 46t45 17q29 0 46 -17t17 -46q0 -28 -17 -45t-46 -17t-45.5 16.5t-16.5 45.5zM101 -128q0 29 17 46t45 17q29 0 46 -17t17 -46q0 -28 -17 -45t-46 -17t-45.5 16.5t-16.5 45.5z" />
    <glyph glyph-name="uni1ECC" unicode="&#x1ecc;" horiz-adv-x="764" 
d="M711 368q0 -87 -26.5 -163.5t-73.5 -127.5q-41 -44 -98.5 -65.5t-132.5 -21.5q-76 0 -134 21t-97 63q-46 48 -71 120.5t-25 157.5q0 87 26.5 163.5t73.5 127.5q42 45 97.5 66t131.5 21t133.5 -20.5t98.5 -63.5q47 -48 72 -121t25 -157zM168 372q0 -83 14 -147.5
t40 -105.5q26 -37 65.5 -55.5t97.5 -18.5q106 0 156 66q27 37 41 98.5t14 144.5t-14 146t-41 102q-26 38 -66.5 56t-95.5 18q-53 0 -91.5 -16.5t-64.5 -49.5q-55 -73 -55 -238zM318 -128q0 29 17 46t45 17q29 0 46 -17t17 -46q0 -28 -17 -45t-46 -17t-45.5 16.5t-16.5 45.5z
" />
    <glyph glyph-name="uni1ECD" unicode="&#x1ecd;" horiz-adv-x="582" 
d="M536 275q0 -65 -19.5 -123.5t-54.5 -96.5q-30 -33 -74 -49t-100 -16q-55 0 -98 15.5t-73 47.5q-34 37 -52.5 91.5t-18.5 118.5q0 65 19 124.5t55 97.5q32 34 74.5 49.5t97.5 15.5t99 -15.5t74 -47.5q35 -37 53 -92.5t18 -119.5zM153 274q0 -61 9.5 -105.5t26.5 -73.5
q17 -25 40.5 -39t61.5 -14q69 0 103 47q18 26 26.5 72t8.5 106t-9.5 105t-26.5 73q-16 26 -40.5 39.5t-62.5 13.5q-70 0 -101 -46q-36 -56 -36 -178zM227 -128q0 29 17 46t45 17q29 0 46 -17t17 -46q0 -28 -17 -45t-46 -17t-45.5 16.5t-16.5 45.5z" />
    <glyph glyph-name="uni1EE4" unicode="&#x1ee4;" horiz-adv-x="772" 
d="M592 259v397l-84 21v43h231v-43l-84 -21v-413q0 -124 -67 -189t-196 -65q-133 0 -204.5 66.5t-71.5 188.5v412l-84 21v43h268v-43l-84 -21v-395q0 -217 198 -217q94 0 136 51t42 164zM343 -128q0 29 17 46t45 17q29 0 46 -17t17 -46q0 -28 -17 -45t-46 -17t-45.5 16.5
t-16.5 45.5z" />
    <glyph glyph-name="uni1EE5" unicode="&#x1ee5;" horiz-adv-x="633" 
d="M193 540v-283q0 -64 3.5 -96.5t12.5 -50.5q11 -24 33 -36.5t51 -12.5q27 0 52 10t44 27q41 37 45 115v267l-87 19v41h184v-480l77 -19v-41l-155 -10l-11 110h-4q-29 -51 -79 -80.5t-107 -29.5q-38 0 -69.5 14.5t-49.5 39.5q-19 28 -28 79t-9 136v221l-67 19v41h164z
M230 -128q0 29 17 46t45 17q29 0 46 -17t17 -46q0 -28 -17 -45t-46 -17t-45.5 16.5t-16.5 45.5z" />
    <glyph glyph-name="Ygrave" unicode="&#x1ef2;" horiz-adv-x="678" 
d="M359 336l174 320l-81 21v43h227v-43l-82 -21l-204 -374v-218l94 -21v-43h-288v43l94 21v202l-215 390l-83 21v43h276v-43l-84 -21zM356 848l61 -77h-53l-47 29q-25 16 -41.5 26.5t-24 20t-7.5 19.5q0 14 10 22t27 8q13 0 24.5 -4.5t24 -15t26.5 -28.5z" />
    <glyph glyph-name="ygrave" unicode="&#x1ef3;" horiz-adv-x="590" 
d="M514 480l-166 -456q-28 -77 -51 -124.5t-51 -68.5t-72 -21q-47 0 -80.5 25t-33.5 63q0 28 16 46.5t42 18.5q23 0 36.5 -12.5t13.5 -34.5q0 -14 -5.5 -27t-14.5 -23q2 -10 12 -13.5t17 -3.5q14 0 26 7t25.5 29.5t29.5 70.5l12 37l-207 487l-60 19v41h224l8 -41l-71 -19
l149 -392h4l126 392l-58 19v41h190v-41zM314 715l49 -76h-53l-38 28q-47 35 -67.5 56.5t-20.5 36.5q0 18 12 26.5t33 8.5t39 -17.5t46 -62.5z" />
    <glyph glyph-name="uni1EF8" unicode="&#x1ef8;" horiz-adv-x="678" 
d="M359 336l174 320l-81 21v43h227v-43l-82 -21l-204 -374v-218l94 -21v-43h-288v43l94 21v202l-215 390l-83 21v43h276v-43l-84 -21zM175 771q8 58 36 86.5t76 28.5q26 0 44.5 -8.5t34.5 -19t32 -19t35 -8.5q30 0 45 13t20 37h45q-18 -121 -112 -121q-25 0 -44 8.5
t-35 19.5t-31.5 19.5t-35.5 8.5q-30 0 -45 -12t-20 -33h-45z" />
    <glyph glyph-name="uni1EF9" unicode="&#x1ef9;" horiz-adv-x="590" 
d="M514 480l-166 -456q-28 -77 -51 -124.5t-51 -68.5t-72 -21q-47 0 -80.5 25t-33.5 63q0 28 16 46.5t42 18.5q23 0 36.5 -12.5t13.5 -34.5q0 -14 -5.5 -27t-14.5 -23q2 -10 12 -13.5t17 -3.5q14 0 26 7t25.5 29.5t29.5 70.5l12 37l-207 487l-60 19v41h224l8 -41l-71 -19
l149 -392h4l126 392l-58 19v41h190v-41zM129 639q8 58 36 86.5t76 28.5q26 0 44.5 -8.5t34.5 -19t32 -19t35 -8.5q30 0 45 13t20 37h45q-18 -121 -112 -121q-25 0 -44 8.5t-35 19.5t-31.5 19.5t-35.5 8.5q-30 0 -45 -12t-20 -33h-45z" />
    <glyph glyph-name="endash" unicode="&#x2013;" horiz-adv-x="618" 
d="M62 249v58h494v-58h-494z" />
    <glyph glyph-name="emdash" unicode="&#x2014;" horiz-adv-x="927" 
d="M63 249v58h801v-58h-801z" />
    <glyph glyph-name="quoteleft" unicode="&#x2018;" horiz-adv-x="242" 
d="M117 493q-32 0 -50.5 22.5t-18.5 60.5q0 54 30 98.5t94 85.5l22 -25q-43 -35 -67 -66t-26 -55l4 -3q5 9 25 9q22 0 37 -17.5t15 -44.5q0 -29 -18 -47t-47 -18z" />
    <glyph glyph-name="quoteright" unicode="&#x2019;" horiz-adv-x="240" 
d="M129 760q32 0 50.5 -22.5t18.5 -60.5q0 -54 -30 -98.5t-94 -85.5l-22 25q43 35 67 66t26 55l-4 3q-5 -9 -25 -9q-22 0 -37 17.5t-15 44.5q0 29 18 47t47 18z" />
    <glyph glyph-name="quotesinglbase" unicode="&#x201a;" horiz-adv-x="247" 
d="M121 118q32 0 50.5 -22.5t18.5 -60.5q0 -54 -30 -98.5t-94 -85.5l-22 25q43 35 67 66t26 55l-4 3q-5 -9 -25 -9q-22 0 -37 17.5t-15 44.5q0 29 18 47t47 18z" />
    <glyph glyph-name="quotedblleft" unicode="&#x201c;" horiz-adv-x="442" 
d="M117 493q-32 0 -50.5 22.5t-18.5 60.5q0 54 30 98.5t94 85.5l22 -25q-43 -35 -67 -66t-26 -55l4 -3q5 9 25 9q22 0 37 -17.5t15 -44.5q0 -29 -18 -47t-47 -18zM317 493q-32 0 -50.5 22.5t-18.5 60.5q0 54 30 98.5t94 85.5l22 -25q-43 -35 -67 -66t-26 -55l4 -3q5 9 25 9
q22 0 37 -17.5t15 -44.5q0 -29 -18 -47t-47 -18z" />
    <glyph glyph-name="quotedblright" unicode="&#x201d;" horiz-adv-x="440" 
d="M129 760q32 0 50.5 -22.5t18.5 -60.5q0 -54 -30 -98.5t-94 -85.5l-22 25q43 35 67 66t26 55l-4 3q-5 -9 -25 -9q-22 0 -37 17.5t-15 44.5q0 29 18 47t47 18zM329 760q32 0 50.5 -22.5t18.5 -60.5q0 -54 -30 -98.5t-94 -85.5l-22 25q43 35 67 66t26 55l-4 3q-5 -9 -25 -9
q-22 0 -37 17.5t-15 44.5q0 29 18 47t47 18z" />
    <glyph glyph-name="quotedblbase" unicode="&#x201e;" horiz-adv-x="447" 
d="M121 118q32 0 50.5 -22.5t18.5 -60.5q0 -54 -30 -98.5t-94 -85.5l-22 25q43 35 67 66t26 55l-4 3q-5 -9 -25 -9q-22 0 -37 17.5t-15 44.5q0 29 18 47t47 18zM321 118q32 0 50.5 -22.5t18.5 -60.5q0 -54 -30 -98.5t-94 -85.5l-22 25q43 35 67 66t26 55l-4 3q-5 -9 -25 -9
q-22 0 -37 17.5t-15 44.5q0 29 18 47t47 18z" />
    <glyph glyph-name="dagger" unicode="&#x2020;" horiz-adv-x="436" 
d="M200 520l-5 5q-14 0 -36 -4t-43.5 -8.5t-37.5 -4.5q-22 0 -34.5 9t-12.5 26q0 18 13 26.5t34 8.5q16 0 37.5 -4t43.5 -8.5t36 -4.5l5 5q0 15 -3.5 40t-7.5 52t-7.5 50t-3.5 35q0 21 10 34t30 13t30 -12.5t10 -34.5q0 -12 -3.5 -35t-7.5 -50t-7.5 -52t-3.5 -40l5 -5
q14 0 35.5 4.5t44 8.5t37.5 4q21 0 34 -8.5t13 -26.5q0 -17 -12.5 -26t-34.5 -9q-15 0 -37.5 4.5t-44 8.5t-35.5 4l-5 -5v-237q0 -128 11 -201t11 -105q0 -22 -10 -34.5t-30 -12.5t-30 13t-10 34q0 32 11 105t11 201v237z" />
    <glyph glyph-name="daggerdbl" unicode="&#x2021;" horiz-adv-x="460" 
d="M248 371q0 -43 1 -85.5t4 -85.5l5 -5q14 0 34 4.5t41.5 8.5t36.5 4q22 0 34.5 -9t12.5 -26q0 -18 -13 -26.5t-34 -8.5q-15 0 -37.5 4.5t-44 8.5t-35.5 4l-5 -5q0 -15 3.5 -40t7.5 -52t7.5 -50t3.5 -35q0 -22 -10 -34.5t-30 -12.5t-30 13t-10 34q0 12 3.5 35t7.5 50
t7.5 52t3.5 40l-5 5q-14 0 -36 -4t-43.5 -8.5t-37.5 -4.5q-21 0 -34 8.5t-13 26.5q0 17 12.5 26t34.5 9q16 0 36.5 -4t41 -8.5t34.5 -4.5l5 5q3 43 4 85.5t1 85.5q0 38 -1 75t-4 74l-5 5q-14 0 -34.5 -4t-41 -8.5t-36.5 -4.5q-22 0 -34.5 9t-12.5 26q0 18 13 26.5t34 8.5
q16 0 37.5 -4t43.5 -8.5t36 -4.5l5 5q0 15 -3.5 40t-7.5 52t-7.5 50t-3.5 35q0 21 10 34t30 13t30 -12.5t10 -34.5q0 -12 -3.5 -35t-7.5 -50t-7.5 -52t-3.5 -40l5 -5q14 0 35.5 4.5t44 8.5t37.5 4q21 0 34 -8.5t13 -26.5q0 -17 -12.5 -26t-34.5 -9q-15 0 -36.5 4.5
t-41.5 8.5t-34 4l-5 -5q-3 -37 -4 -74t-1 -75z" />
    <glyph glyph-name="bullet" unicode="&#x2022;" horiz-adv-x="400" 
d="M82 343q0 56 31.5 88.5t86.5 32.5t87 -33t32 -88t-32 -86t-87 -31q-56 0 -87 30.5t-31 86.5z" />
    <glyph glyph-name="ellipsis" unicode="&#x2026;" horiz-adv-x="716" 
d="M57 53q0 30 17 47.5t46 17.5t46.5 -18t17.5 -47t-17.5 -46t-46.5 -17q-30 0 -46.5 16.5t-16.5 46.5zM300 53q0 30 17 47.5t46 17.5t46.5 -18t17.5 -47t-17.5 -46t-46.5 -17q-30 0 -46.5 16.5t-16.5 46.5zM534 53q0 30 17 47.5t46 17.5t46.5 -18t17.5 -47t-17.5 -46
t-46.5 -17q-30 0 -46.5 16.5t-16.5 46.5z" />
    <glyph glyph-name="perthousand" unicode="&#x2030;" horiz-adv-x="988" 
d="M120 -10l386 740h54l-386 -740h-54zM36 564q0 85 37 130q16 19 36.5 27t52.5 8q60 0 89 -35q37 -45 37 -130q0 -43 -9.5 -77.5t-27.5 -55.5q-29 -35 -89 -35q-31 0 -52.5 8.5t-36.5 26.5q-37 43 -37 133zM230 563q0 71 -21 107q-10 15 -20 21t-27 6t-28 -6t-19 -21
q-10 -18 -15.5 -44.5t-5.5 -62.5t5.5 -62.5t15.5 -44.5q8 -15 19 -21t28 -6t27 6t20 21q11 18 16 44.5t5 62.5zM390 158q0 85 37 130q16 19 36.5 27t52.5 8q60 0 89 -35q37 -45 37 -130q0 -43 -9.5 -77.5t-27.5 -55.5q-29 -35 -89 -35q-31 0 -52.5 8.5t-36.5 26.5
q-37 43 -37 133zM584 157q0 71 -21 107q-10 15 -20 21t-27 6t-28 -6t-19 -21q-10 -18 -15.5 -44.5t-5.5 -62.5t5.5 -62.5t15.5 -44.5q8 -15 19 -21t28 -6t27 6t20 21q11 18 16 44.5t5 62.5zM703 158q0 85 37 130q16 19 36.5 27t52.5 8q60 0 89 -35q37 -45 37 -130
q0 -43 -9.5 -77.5t-27.5 -55.5q-29 -35 -89 -35q-31 0 -52.5 8.5t-36.5 26.5q-37 43 -37 133zM897 157q0 71 -21 107q-10 15 -20 21t-27 6t-28 -6t-19 -21q-10 -18 -15.5 -44.5t-5.5 -62.5t5.5 -62.5t15.5 -44.5q8 -15 19 -21t28 -6t27 6t20 21q11 18 16 44.5t5 62.5z" />
    <glyph glyph-name="guilsinglleft" unicode="&#x2039;" horiz-adv-x="324" 
d="M141 255l133 -201l-34 -33l-199 215v34l199 215l33 -27z" />
    <glyph glyph-name="guilsinglright" unicode="&#x203a;" horiz-adv-x="324" 
d="M50 54l133 201l-132 203l33 27l199 -215v-34l-199 -215z" />
    <glyph glyph-name="fraction" unicode="&#x2044;" horiz-adv-x="40" 
d="M-200 -10l386 740h54l-386 -740h-54z" />
    <glyph glyph-name="uni2070" unicode="&#x2070;" horiz-adv-x="360" 
d="M54 564q0 85 37 130q16 19 36.5 27t52.5 8q60 0 89 -35q37 -45 37 -130q0 -43 -9.5 -77.5t-27.5 -55.5q-29 -35 -89 -35q-31 0 -52.5 8.5t-36.5 26.5q-37 43 -37 133zM248 563q0 71 -21 107q-10 15 -20 21t-27 6t-28 -6t-19 -21q-10 -18 -15.5 -44.5t-5.5 -62.5
t5.5 -62.5t15.5 -44.5q8 -15 19 -21t28 -6t27 6t20 21q11 18 16 44.5t5 62.5z" />
    <glyph glyph-name="uni2074" unicode="&#x2074;" horiz-adv-x="304" 
d="M167 426v58h-131l-5 31l136 205h52v-203h49l-4 -33h-45v-58l35 -9v-25h-130v25zM167 664l-96 -147h96v147z" />
    <glyph glyph-name="uni2075" unicode="&#x2075;" horiz-adv-x="308" 
d="M229 671l20 63h-22l-8 -14h-130l-26 -163l25 -9q8 10 24.5 16t35.5 6q31 0 45 -18t14 -56q0 -39 -14.5 -57t-45.5 -18q-23 0 -40 9.5t-20 22.5q11 0 18.5 8t7.5 20q0 11 -7.5 19t-18.5 8q-15 0 -25 -12t-10 -30q0 -32 27.5 -53t70.5 -21q51 0 82 29.5t31 77.5
q0 47 -28 74.5t-75 27.5q-37 0 -63 -22l13 92h119z" />
    <glyph glyph-name="uni2076" unicode="&#x2076;" horiz-adv-x="338" 
d="M108 559h4q25 36 75 36q44 0 71.5 -27.5t27.5 -71.5q0 -46 -30.5 -72.5t-82.5 -26.5q-59 0 -87.5 38.5t-28.5 118.5q0 86 31 131t89 45q41 0 67 -20.5t26 -54.5q0 -19 -8 -28.5t-23 -9.5q-13 0 -21 7.5t-8 19.5q0 13 7 20.5t19 7.5q-3 13 -16.5 20t-36.5 7q-40 0 -58 -28
t-18 -91q0 -15 1 -21zM229 496q0 34 -14 51t-41 17q-28 0 -42 -17t-14 -51t14 -51.5t42 -17.5q27 0 41 17.5t14 51.5z" />
    <glyph glyph-name="uni2077" unicode="&#x2077;" horiz-adv-x="283" 
d="M145 425q0 -15 -6.5 -24t-20.5 -9q-15 0 -21 8.5t-6 24.5q0 31 14.5 75.5t39.5 90t55 78.5h-122l-8 -44h-29v95h209v-27q-29 -35 -53 -81t-38 -94.5t-14 -92.5z" />
    <glyph glyph-name="uni2078" unicode="&#x2078;" horiz-adv-x="321" 
d="M256 658q0 -52 -53 -82q36 -19 52 -39.5t16 -47.5q0 -41 -32 -66.5t-85 -25.5q-48 0 -74.5 22t-26.5 62q0 55 65 90q-27 18 -38.5 35.5t-11.5 41.5q0 38 26 60t72 22q43 0 66.5 -19t23.5 -53zM138 558q-22 -15 -33.5 -32.5t-11.5 -42.5q0 -28 15 -42t47 -14
q31 0 47.5 12.5t16.5 36.5q0 22 -16.5 38t-64.5 44zM182 590q17 9 28 25.5t11 37.5q0 23 -14 35t-41 12q-25 0 -38.5 -10.5t-13.5 -31.5t15 -36t53 -32z" />
    <glyph glyph-name="uni2079" unicode="&#x2079;" horiz-adv-x="337" 
d="M229 568h-4q-25 -36 -75 -36q-43 0 -71 28t-28 71q0 46 30.5 72.5t82.5 26.5q59 0 87.5 -38.5t28.5 -119.5q0 -85 -30.5 -130t-91.5 -45q-42 0 -69 21t-27 55q0 18 8 27.5t23 9.5q14 0 21.5 -7.5t7.5 -20.5q0 -12 -7 -19.5t-19 -7.5q3 -13 18 -20t38 -7q42 0 60 27.5
t18 91.5q0 16 -1 21zM108 631q0 -34 14 -51t41 -17q28 0 42 17t14 51q0 35 -14 52t-42 17q-27 0 -41 -17t-14 -52z" />
    <glyph glyph-name="uni2080" unicode="&#x2080;" horiz-adv-x="362" 
d="M55 158q0 85 37 130q16 19 36.5 27t52.5 8q60 0 89 -35q37 -45 37 -130q0 -43 -9.5 -77.5t-27.5 -55.5q-29 -35 -89 -35q-31 0 -52.5 8.5t-36.5 26.5q-37 43 -37 133zM249 157q0 71 -21 107q-10 15 -20 21t-27 6t-28 -6t-19 -21q-10 -18 -15.5 -44.5t-5.5 -62.5
t5.5 -62.5t15.5 -44.5q8 -15 19 -21t28 -6t27 6t20 21q11 18 16 44.5t5 62.5z" />
    <glyph glyph-name="uni2081" unicode="&#x2081;" horiz-adv-x="297" 
d="M128 35v242h-60v31q16 0 41 5t32 15h39v-293l48 -9v-26h-160v26z" />
    <glyph glyph-name="uni2082" unicode="&#x2082;" horiz-adv-x="317" 
d="M97 48h129l11 52h28v-100h-217v30q0 28 16 50.5t40 42.5t48 39.5t40 41.5t16 49q0 21 -16 32.5t-45 11.5q-18 0 -31 -4t-21.5 -12t-11.5 -20q14 0 22 -7t8 -20t-7.5 -20.5t-21.5 -7.5q-16 0 -23.5 9t-7.5 28q0 39 28.5 62.5t74.5 23.5q47 0 76 -23.5t29 -63.5
q0 -32 -16.5 -55.5t-41 -41.5t-49 -33t-41 -30t-16.5 -34z" />
    <glyph glyph-name="uni2083" unicode="&#x2083;" horiz-adv-x="316" 
d="M258 239q0 -30 -18 -49.5t-50 -24.5v-4q73 -14 73 -77q0 -42 -31 -68t-81 -26q-46 0 -74.5 23t-28.5 61q0 20 7.5 29.5t23.5 9.5q13 0 20.5 -7.5t7.5 -20.5t-7 -20t-18 -7q4 -17 19.5 -26.5t41.5 -9.5q32 0 47.5 13.5t15.5 41.5q0 32 -20.5 51t-56.5 19v30q34 0 55 18.5
t21 48.5q0 24 -15 36.5t-44 12.5q-25 0 -42 -9t-20 -24q14 0 22 -7t8 -20t-8 -20.5t-21 -7.5q-16 0 -24.5 10.5t-8.5 29.5q0 35 28 56.5t74 21.5q47 0 75.5 -23t28.5 -61z" />
    <glyph glyph-name="uni2084" unicode="&#x2084;" horiz-adv-x="304" 
d="M167 34v58h-131l-5 31l136 205h52v-203h49l-4 -33h-45v-58l35 -9v-25h-137v25zM167 272l-96 -147h96v147z" />
    <glyph glyph-name="uni2085" unicode="&#x2085;" horiz-adv-x="310" 
d="M229 269l20 63h-22l-8 -14h-130l-26 -163l25 -9q8 10 24.5 16t35.5 6q31 0 45 -18t14 -56q0 -39 -14.5 -57t-45.5 -18q-23 0 -40 9.5t-20 22.5q11 0 18.5 8t7.5 20q0 11 -7.5 19t-18.5 8q-15 0 -25 -12t-10 -30q0 -32 27.5 -53t70.5 -21q51 0 82 29.5t31 77.5
q0 47 -28 74.5t-75 27.5q-37 0 -63 -22l13 92h119z" />
    <glyph glyph-name="uni2086" unicode="&#x2086;" horiz-adv-x="337" 
d="M107 152h4q25 36 75 36q44 0 71.5 -27.5t27.5 -71.5q0 -46 -30.5 -72.5t-82.5 -26.5q-59 0 -87.5 38.5t-28.5 118.5q0 86 31 131t89 45q41 0 67 -20.5t26 -54.5q0 -19 -8 -28.5t-23 -9.5q-13 0 -21 7.5t-8 19.5q0 13 7 20.5t19 7.5q-3 13 -16.5 20t-36.5 7q-40 0 -58 -28
t-18 -91q0 -15 1 -21zM228 89q0 34 -14 51t-41 17q-28 0 -42 -17t-14 -51t14 -51.5t42 -17.5q27 0 41 17.5t14 51.5z" />
    <glyph glyph-name="uni2087" unicode="&#x2087;" horiz-adv-x="284" 
d="M145 23q0 -15 -6.5 -24t-20.5 -9q-15 0 -21 8.5t-6 24.5q0 31 14.5 75.5t39.5 90t55 78.5h-122l-8 -44h-29v95h209v-27q-29 -35 -53 -80.5t-38 -94.5t-14 -93z" />
    <glyph glyph-name="uni2088" unicode="&#x2088;" horiz-adv-x="321" 
d="M257 251q0 -52 -53 -82q36 -19 52 -39.5t16 -47.5q0 -41 -32 -66.5t-85 -25.5q-48 0 -74.5 22t-26.5 62q0 55 65 90q-27 18 -38.5 35.5t-11.5 41.5q0 38 26 60t72 22q43 0 66.5 -19t23.5 -53zM139 151q-22 -15 -33.5 -32.5t-11.5 -42.5q0 -28 15 -42t47 -14
q31 0 47.5 12.5t16.5 36.5q0 22 -16.5 38t-64.5 44zM183 183q17 9 28 25.5t11 37.5q0 23 -14 35t-41 12q-25 0 -38.5 -10.5t-13.5 -31.5t15 -36t53 -32z" />
    <glyph glyph-name="uni2089" unicode="&#x2089;" horiz-adv-x="336" 
d="M229 161h-4q-25 -36 -75 -36q-43 0 -71 28t-28 71q0 46 30.5 72.5t82.5 26.5q59 0 87.5 -38.5t28.5 -119.5q0 -85 -30.5 -130t-91.5 -45q-42 0 -69 21t-27 55q0 18 8 27.5t23 9.5q14 0 21.5 -7.5t7.5 -20.5q0 -12 -7 -19.5t-19 -7.5q3 -13 18 -20t38 -7q42 0 60 27.5
t18 91.5q0 16 -1 21zM108 224q0 -34 14 -51t41 -17q28 0 42 17t14 51q0 35 -14 52t-42 17q-27 0 -41 -17t-14 -52z" />
    <glyph glyph-name="Euro" unicode="&#x20ac;" horiz-adv-x="727" 
d="M43 403v60h107q21 131 92.5 199t188.5 68q69 0 124.5 -22t88 -59t32.5 -84q0 -33 -16 -52.5t-44 -19.5q-25 0 -41 15.5t-16 39.5q0 40 36 58q-20 32 -62 50.5t-92 18.5q-79 0 -124.5 -52.5t-59.5 -159.5h194v-60h-199q-1 -11 -1 -22.5v-23.5v-25.5t1 -23.5h199v-61h-193
q14 -97 58.5 -143t122.5 -46q75 0 121.5 38.5t56.5 108.5h55q-20 -109 -81 -162t-166 -53q-238 0 -276 257h-106v61h100q-1 11 -1 21.5v21.5v26.5t1 25.5h-100z" />
    <glyph glyph-name="uni2120" unicode="&#x2120;" horiz-adv-x="785" 
d="M188 406q-56 0 -85 31l-5 -26h-25v102h27q3 -41 21.5 -59t58.5 -18q32 0 45 10t13 34q0 26 -16.5 43t-59.5 33q-51 20 -69.5 39.5t-18.5 53.5q0 42 26.5 66.5t72.5 24.5q44 0 72 -25l4 20h25v-102h-26q0 42 -15.5 60t-51.5 18q-30 0 -43 -11.5t-13 -40.5q0 -22 12.5 -33
t52.5 -28q58 -23 78.5 -46t20.5 -58q0 -40 -27 -64t-74 -24zM528 457l81 278h110v-19l-33 -10v-266l33 -10v-19h-116v19l33 10v266l-92 -295h-54l-93 295v-266l33 -10v-19h-100v19l33 10v266l-33 10v19h112l82 -278h4z" />
    <glyph glyph-name="trademark" unicode="&#x2122;" horiz-adv-x="843" 
d="M72 730h269v-95h-24l-14 63h-69v-262l43 -11v-19h-141v19l44 11v262h-70l-14 -63h-24v95zM582 452l81 278h111v-19l-33 -10v-266l33 -10v-19h-116v19l32 10v261l-92 -290h-53l-89 290v-261l28 -10v-19h-100v19l38 10v266l-38 10v19h112l82 -278h4z" />
    <glyph glyph-name="uni2153" unicode="&#x2153;" horiz-adv-x="638" 
d="M92 -10l386 740h54l-386 -740h-54zM108 427v242h-60v31q16 0 41 5t32 15h39v-293l48 -9v-26h-160v26zM592 239q0 -30 -18 -49.5t-50 -24.5v-4q73 -14 73 -77q0 -42 -31 -68t-81 -26q-46 0 -74.5 23t-28.5 61q0 20 7.5 29.5t23.5 9.5q13 0 20.5 -7.5t7.5 -20.5t-7 -20
t-18 -7q4 -17 19.5 -26.5t41.5 -9.5q32 0 47.5 13.5t15.5 41.5q0 32 -20.5 51t-56.5 19v30q34 0 55 18.5t21 48.5q0 24 -15 36.5t-44 12.5q-25 0 -42 -9t-20 -24q14 0 22 -7t8 -20t-8 -20.5t-21 -7.5q-16 0 -24.5 10.5t-8.5 29.5q0 35 28 56.5t74 21.5q47 0 75.5 -23
t28.5 -61z" />
    <glyph glyph-name="uni2154" unicode="&#x2154;" horiz-adv-x="656" 
d="M110 -10l386 740h54l-386 -740h-54zM610 239q0 -30 -18 -49.5t-50 -24.5v-4q73 -14 73 -77q0 -42 -31 -68t-81 -26q-46 0 -74.5 23t-28.5 61q0 20 7.5 29.5t23.5 9.5q13 0 20.5 -7.5t7.5 -20.5t-7 -20t-18 -7q4 -17 19.5 -26.5t41.5 -9.5q32 0 47.5 13.5t15.5 41.5
q0 32 -20.5 51t-56.5 19v30q34 0 55 18.5t21 48.5q0 24 -15 36.5t-44 12.5q-25 0 -42 -9t-20 -24q14 0 22 -7t8 -20t-8 -20.5t-21 -7.5q-16 0 -24.5 10.5t-8.5 29.5q0 35 28 56.5t74 21.5q47 0 75.5 -23t28.5 -61zM93 449h129l11 52h28v-100h-217v30q0 28 16 50.5t40 42.5
t48 39.5t40 41.5t16 49q0 21 -16 32.5t-45 11.5q-18 0 -31 -4t-21.5 -12t-11.5 -20q14 0 22 -7t8 -20t-7.5 -20.5t-21.5 -7.5q-16 0 -23.5 9t-7.5 28q0 39 28.5 62.5t74.5 23.5q47 0 76 -23.5t29 -63.5q0 -32 -16.5 -55.5t-41 -41.5t-49 -33t-41 -30t-16.5 -34z" />
    <glyph glyph-name="oneeighth" unicode="&#x215b;" horiz-adv-x="636" 
d="M92 -10l386 740h54l-386 -740h-54zM108 427v242h-60v31q16 0 41 5t32 15h39v-293l48 -9v-26h-160v26zM583 251q0 -52 -53 -82q36 -19 52 -39.5t16 -47.5q0 -41 -32 -66.5t-85 -25.5q-48 0 -74.5 22t-26.5 62q0 55 65 90q-27 18 -38.5 35.5t-11.5 41.5q0 38 26 60t72 22
q43 0 66.5 -19t23.5 -53zM465 151q-22 -15 -33.5 -32.5t-11.5 -42.5q0 -28 15 -42t47 -14q31 0 47.5 12.5t16.5 36.5q0 22 -16.5 38t-64.5 44zM509 183q17 9 28 25.5t11 37.5q0 23 -14 35t-41 12q-25 0 -38.5 -10.5t-13.5 -31.5t15 -36t53 -32z" />
    <glyph glyph-name="threeeighths" unicode="&#x215c;" horiz-adv-x="648" 
d="M104 -10l386 740h54l-386 -740h-54zM252 646q0 -30 -18 -49.5t-50 -24.5v-4q73 -14 73 -77q0 -42 -31 -68t-81 -26q-46 0 -74.5 23t-28.5 61q0 20 7.5 29.5t23.5 9.5q13 0 20.5 -7.5t7.5 -20.5t-7 -20t-18 -7q4 -17 19.5 -26.5t41.5 -9.5q32 0 47.5 13.5t15.5 41.5
q0 32 -20.5 51t-56.5 19v30q34 0 55 18.5t21 48.5q0 24 -15 36.5t-44 12.5q-25 0 -42 -9t-20 -24q14 0 22 -7t8 -20t-8 -20.5t-21 -7.5q-16 0 -24.5 10.5t-8.5 29.5q0 35 28 56.5t74 21.5q47 0 75.5 -23t28.5 -61zM595 251q0 -52 -53 -82q36 -19 52 -39.5t16 -47.5
q0 -41 -32 -66.5t-85 -25.5q-48 0 -74.5 22t-26.5 62q0 55 65 90q-27 18 -38.5 35.5t-11.5 41.5q0 38 26 60t72 22q43 0 66.5 -19t23.5 -53zM477 151q-22 -15 -33.5 -32.5t-11.5 -42.5q0 -28 15 -42t47 -14q31 0 47.5 12.5t16.5 36.5q0 22 -16.5 38t-64.5 44zM521 183
q17 9 28 25.5t11 37.5q0 23 -14 35t-41 12q-25 0 -38.5 -10.5t-13.5 -31.5t15 -36t53 -32z" />
    <glyph glyph-name="fiveeighths" unicode="&#x215d;" horiz-adv-x="634" 
d="M99 -10l386 740h54l-386 -740h-54zM580 251q0 -52 -53 -82q36 -19 52 -39.5t16 -47.5q0 -41 -32 -66.5t-85 -25.5q-48 0 -74.5 22t-26.5 62q0 55 65 90q-27 18 -38.5 35.5t-11.5 41.5q0 38 26 60t72 22q43 0 66.5 -19t23.5 -53zM462 151q-22 -15 -33.5 -32.5t-11.5 -42.5
q0 -28 15 -42t47 -14q31 0 47.5 12.5t16.5 36.5q0 22 -16.5 38t-64.5 44zM506 183q17 9 28 25.5t11 37.5q0 23 -14 35t-41 12q-25 0 -38.5 -10.5t-13.5 -31.5t15 -36t53 -32zM216 671l20 63h-22l-8 -14h-130l-26 -163l25 -9q8 10 24.5 16t35.5 6q31 0 45 -18t14 -56
q0 -39 -14.5 -57t-45.5 -18q-23 0 -40 9.5t-20 22.5q11 0 18.5 8t7.5 20q0 11 -7.5 19t-18.5 8q-15 0 -25 -12t-10 -30q0 -32 27.5 -53t70.5 -21q51 0 82 29.5t31 77.5q0 47 -28 74.5t-75 27.5q-37 0 -63 -22l13 92h119z" />
    <glyph glyph-name="seveneighths" unicode="&#x215e;" horiz-adv-x="616" 
d="M81 -10l386 740h54l-386 -740h-54zM562 251q0 -52 -53 -82q36 -19 52 -39.5t16 -47.5q0 -41 -32 -66.5t-85 -25.5q-48 0 -74.5 22t-26.5 62q0 55 65 90q-27 18 -38.5 35.5t-11.5 41.5q0 38 26 60t72 22q43 0 66.5 -19t23.5 -53zM444 151q-22 -15 -33.5 -32.5t-11.5 -42.5
q0 -28 15 -42t47 -14q31 0 47.5 12.5t16.5 36.5q0 22 -16.5 38t-64.5 44zM488 183q17 9 28 25.5t11 37.5q0 23 -14 35t-41 12q-25 0 -38.5 -10.5t-13.5 -31.5t15 -36t53 -32zM141 425q0 -15 -6.5 -24t-20.5 -9q-15 0 -21 8.5t-6 24.5q0 31 14.5 75.5t39.5 90t55 78.5h-122
l-8 -44h-29v95h209v-27q-29 -35 -53 -81t-38 -94.5t-14 -92.5z" />
    <glyph glyph-name="minus" unicode="&#x2212;" horiz-adv-x="546" 
d="M74 328v68h398v-68h-398z" />
    <glyph glyph-name="uni2215" unicode="&#x2215;" horiz-adv-x="420" 
d="M-10 -10l386 740h54l-386 -740h-54z" />
    <glyph glyph-name="uni2219" unicode="&#x2219;" horiz-adv-x="260" 
d="M67 298q0 30 17 47.5t46 17.5t46.5 -18t17.5 -47t-17.5 -46t-46.5 -17q-30 0 -46.5 16.5t-16.5 46.5z" />
    <glyph glyph-name="dotbelow" horiz-adv-x="185" 
d="M30 -128q0 29 17 46t45 17q29 0 46 -17t17 -46q0 -28 -17 -45t-46 -17t-45.5 16.5t-16.5 45.5z" />
    <glyph glyph-name="caron.alt" horiz-adv-x="119" 
d="M79 605h-40q0 33 -5 57t-9.5 44t-4.5 41q0 14 7.5 28.5t32.5 14.5q23 0 31 -14.5t8 -28.5q0 -21 -5 -41t-10 -44t-5 -57z" />
    <glyph glyph-name="gravecomb.case" 
d="M152 847l61 -77h-53l-47 29q-25 16 -41.5 26.5t-24 20t-7.5 19.5q0 14 10 22t27 8q13 0 24.5 -4.5t24 -15t26.5 -28.5z" />
    <glyph glyph-name="acutecomb.case" 
d="M40 770l61 77q14 18 26.5 28.5t24.5 15t24 4.5q17 0 27 -8t10 -22q0 -10 -7.5 -19.5t-23.5 -20t-42 -26.5l-47 -29h-53z" />
    <glyph glyph-name="uni0302.case" 
d="M342 769l-119 121h-95l-118 -121h53l113 61l113 -61h53z" />
    <glyph glyph-name="tildecomb.case" 
d="M15 770q8 58 36 86.5t76 28.5q26 0 44.5 -8.5t34.5 -19t32 -19t35 -8.5q30 0 45 13t20 37h45q-18 -121 -112 -121q-25 0 -44 8.5t-35 19.5t-31.5 19.5t-35.5 8.5q-30 0 -45 -12t-20 -33h-45z" />
    <glyph glyph-name="uni0304.case" 
d="M25 796v65h279v-65h-279z" />
    <glyph glyph-name="uni0306.case" 
d="M323 908h-48q-1 -38 -30.5 -55t-68.5 -17t-67.5 17t-30.5 55h-48q0 -63 39.5 -102t106.5 -39q68 0 107.5 39t39.5 102z" />
    <glyph glyph-name="uni0307.case" 
d="M30 832q0 29 17 46t45 17q29 0 46 -17t17 -46q0 -28 -17 -45t-46 -17t-45.5 16.5t-16.5 45.5z" />
    <glyph glyph-name="uni0308.case" 
d="M30 828q0 28 15.5 43.5t42.5 15.5t43 -16t16 -43t-15.5 -42.5t-43.5 -15.5q-27 0 -42.5 15.5t-15.5 42.5zM260 828q0 28 15.5 43.5t42.5 15.5t43 -16t16 -43t-15.5 -42.5t-43.5 -15.5q-27 0 -42.5 15.5t-15.5 42.5z" />
    <glyph glyph-name="uni030A.case" 
d="M44 824q0 32 22 54t53 22q32 0 54 -22t22 -54q0 -31 -22 -52.5t-54 -21.5q-31 0 -53 21.5t-22 52.5zM98 824q0 -9 6 -15t15 -6q10 0 16.5 6t6.5 15q0 10 -6.5 16.5t-16.5 6.5q-9 0 -15 -6.5t-6 -16.5z" />
    <glyph glyph-name="uni030B.case" 
d="M40 770l61 77q14 18 26.5 28.5t24.5 15t24 4.5q17 0 27 -8t10 -22q0 -10 -7.5 -19.5t-23.5 -20t-42 -26.5l-47 -29h-53zM220 770l61 77q14 18 26.5 28.5t24.5 15t24 4.5q17 0 27 -8t10 -22q0 -10 -7.5 -19.5t-23.5 -20t-42 -26.5l-47 -29h-53z" />
    <glyph glyph-name="uni030C.case" 
d="M223 769l119 121h-53l-113 -61l-113 61h-53l118 -121h95z" />
    </font>
</defs>
</svg>
